{
.appVersion = "1118";
copyright = "Copyright © 2018 by Cadson Demak Co.,Ltd.. All rights reserved.";
customParameters = (
{
name = vendorID;
value = CDK;
},
{
name = description;
value = "Copyright (c) 2018, Cadson Demak (info@cadsondemak.com)";
},
{
name = license;

glyphs = (
{
glyphname = A;
lastChange = "2018-02-27 12:32:58 +0000";
layers = (
{
anchors = (
{
name = bottom;
position = "{348, 0}";
},
{
name = ogonek;
position = "{626, 10}";
},
{
name = top;
position = "{348, 700}";
}
);
layerId = "0B1DFD06-3317-40CA-B510-4969A0718C16";
paths = (
{
closed = 1;
nodes = (
"100 -8 OFFCURVE",
"118 10 OFFCURVE",
"131 44 CURVE SMOOTH",
"188 190 LINE",
"506 190 LINE",
"566 39 LINE SMOOTH",
"578 9 OFFCURVE",
"602 -8 OFFCURVE",
"638 -8 CURVE SMOOTH",
"650 -8 OFFCURVE",
"667 -6 OFFCURVE",
"683 -1 CURVE",
"674 6 OFFCURVE",
"666 19 OFFCURVE",
"660 34 CURVE SMOOTH",
"393 700 LINE",
"302 700 LINE",
"20 -3 LINE",
"33 -6 OFFCURVE",
"47 -8 OFFCURVE",
"60 -8 CURVE SMOOTH"
);
},
{
closed = 1;
nodes = (
"347 596 LINE",
"348 596 LINE",
"474 269 LINE",
"220 269 LINE"
);
}
);
width = 695;
}
);
note = A;
unicode = 0041;
},
{
glyphname = B;
lastChange = "2018-02-27 10:19:56 +0000";
layers = (
{
anchors = (
{
name = bottom;
position = "{335, 0}";
},
{
name = top;
position = "{335, 700}";
}
);
layerId = "0B1DFD06-3317-40CA-B510-4969A0718C16";
paths = (
{
closed = 1;
nodes = (
"362 0 LINE SMOOTH",
"501 0 OFFCURVE",
"627 54 OFFCURVE",
"627 200 CURVE SMOOTH",
"627 283 OFFCURVE",
"587 345 OFFCURVE",
"489 365 CURVE",
"489 367 LINE",
"543 386 OFFCURVE",
"591 435 OFFCURVE",
"591 519 CURVE SMOOTH",
"591 627 OFFCURVE",
"512 700 OFFCURVE",
"339 700 CURVE SMOOTH",
"83 700 LINE",
"83 0 LINE"
);
},
{
closed = 1;
nodes = (
"171 321 LINE",
"352 321 LINE SMOOTH",
"450 321 OFFCURVE",
"537 305 OFFCURVE",
"537 208 CURVE SMOOTH",
"537 120 OFFCURVE",
"466 80 OFFCURVE",
"355 80 CURVE SMOOTH",
"171 80 LINE"
);
},
{
closed = 1;
nodes = (
"171 620 LINE",
"337 620 LINE SMOOTH",
"423 620 OFFCURVE",
"502 607 OFFCURVE",
"502 515 CURVE SMOOTH",
"502 426 OFFCURVE",
"428 400 OFFCURVE",
"347 400 CURVE SMOOTH",
"171 400 LINE"
);
}
);
width = 669;
}
);
note = B;
unicode = 0042;
},
{
glyphname = C;
lastChange = "2018-02-27 10:19:58 +0000";
layers = (
{
anchors = (
{
name = bottom;
position = "{336, 0}";
},
{
name = top;
position = "{336, 700}";
}
);
layerId = "0B1DFD06-3317-40CA-B510-4969A0718C16";
paths = (
{
closed = 1;
nodes = (
"492 -12 OFFCURVE",
"627 34 OFFCURVE",
"627 109 CURVE SMOOTH",
"627 123 OFFCURVE",
"622 150 OFFCURVE",
"590 159 CURVE",
"558 109 OFFCURVE",
"473 72 OFFCURVE",
"389 72 CURVE SMOOTH",
"238 72 OFFCURVE",
"147 190 OFFCURVE",
"147 350 CURVE SMOOTH",
"147 510 OFFCURVE",
"238 628 OFFCURVE",
"389 628 CURVE SMOOTH",
"473 628 OFFCURVE",
"558 591 OFFCURVE",
"590 541 CURVE",
"618 549 OFFCURVE",
"627 571 OFFCURVE",
"627 590 CURVE SMOOTH",
"627 666 OFFCURVE",
"492 712 OFFCURVE",
"384 712 CURVE SMOOTH",
"188 712 OFFCURVE",
"56 560 OFFCURVE",
"56 350 CURVE SMOOTH",
"56 140 OFFCURVE",
"188 -12 OFFCURVE",
"384 -12 CURVE SMOOTH"
);
}
);
width = 671;
}
);
note = C;
unicode = 0043;
},
{
glyphname = D;
lastChange = "2018-02-27 10:20:05 +0000";
layers = (
{
anchors = (
{
name = bottom;
position = "{346, 0}";
},
{
name = center;
position = "{346, 350}";
},
{
name = top;
position = "{346, 700}";
}
);
layerId = "0B1DFD06-3317-40CA-B510-4969A0718C16";
paths = (
{
closed = 1;
nodes = (
"307 0 LINE SMOOTH",
"523 0 OFFCURVE",
"631 144 OFFCURVE",
"631 350 CURVE SMOOTH",
"631 556 OFFCURVE",
"523 700 OFFCURVE",
"307 700 CURVE SMOOTH",
"83 700 LINE",
"83 0 LINE"
);
},
{
closed = 1;
nodes = (
"171 618 LINE",
"302 618 LINE SMOOTH",
"469 618 OFFCURVE",
"540 513 OFFCURVE",
"540 350 CURVE SMOOTH",
"540 187 OFFCURVE",
"469 82 OFFCURVE",
"302 82 CURVE SMOOTH",
"171 82 LINE"
);
}
);
width = 691;
}
);
note = D;
unicode = 0044;
},
{
glyphname = E;
lastChange = "2018-02-27 12:33:40 +0000";
layers = (
{
anchors = (
{
name = bottom;
position = "{296, 0}";
},
{
name = ogonek;
position = "{523, 23}";
},
{
name = top;
position = "{296, 700}";
},
{
name = topleft;
position = "{20, 700}";
}
);
layerId = "0B1DFD06-3317-40CA-B510-4969A0718C16";
paths = (
{
closed = 1;
nodes = (
"478 0 LINE SMOOTH",
"531 0 OFFCURVE",
"552 14 OFFCURVE",
"552 54 CURVE SMOOTH",
"552 72 OFFCURVE",
"548 84 OFFCURVE",
"537 99 CURVE",
"526 86 OFFCURVE",
"506 82 OFFCURVE",
"462 82 CURVE SMOOTH",
"170 82 LINE",
"170 316 LINE",
"476 316 LINE",
"476 398 LINE",
"170 398 LINE",
"170 618 LINE",
"534 618 LINE",
"534 700 LINE",
"83 700 LINE",
"83 0 LINE"
);
}
);
width = 592;
}
);
note = E;
unicode = 0045;
},
{
glyphname = F;
lastChange = "2018-02-27 10:20:45 +0000";
layers = (
{
anchors = (
{
name = bottom;
position = "{287, 0}";
},
{
name = top;
position = "{287, 700}";
}
);
layerId = "0B1DFD06-3317-40CA-B510-4969A0718C16";
paths = (
{
closed = 1;
nodes = (
"170 0 LINE",
"170 316 LINE",
"424 316 LINE SMOOTH",
"475 316 OFFCURVE",
"496 330 OFFCURVE",
"496 369 CURVE SMOOTH",
"496 386 OFFCURVE",
"492 398 OFFCURVE",
"481 412 CURVE",
"470 400 OFFCURVE",
"451 396 OFFCURVE",
"408 396 CURVE SMOOTH",
"170 396 LINE",
"170 618 LINE",
"525 618 LINE",
"525 700 LINE",
"83 700 LINE",
"83 0 LINE"
);
}
);
width = 573;
}
);
note = F;
unicode = 0046;
},
{
glyphname = G;
lastChange = "2018-02-27 12:33:51 +0000";
layers = (
{
anchors = (
{
name = bottom;
position = "{352, 0}";
},
{
name = top;
position = "{372, 700}";
}
);
layerId = "0B1DFD06-3317-40CA-B510-4969A0718C16";
paths = (
{
closed = 1;
nodes = (
"470 -8 OFFCURVE",
"674 45 OFFCURVE",
"674 297 CURVE SMOOTH",
"674 324 OFFCURVE",
"672 352 OFFCURVE",
"664 379 CURVE",
"406 379 LINE",
"406 327 OFFCURVE",
"433 297 OFFCURVE",
"478 297 CURVE SMOOTH",
"592 297 LINE",
"592 291 LINE SMOOTH",
"592 177 OFFCURVE",
"513 76 OFFCURVE",
"386 76 CURVE SMOOTH",
"234 76 OFFCURVE",
"147 186 OFFCURVE",
"147 350 CURVE SMOOTH",
"147 514 OFFCURVE",
"242 628 OFFCURVE",
"391 628 CURVE SMOOTH",
"493 628 OFFCURVE",
"568 592 OFFCURVE",
"603 541 CURVE",
"633 550 OFFCURVE",
"640 571 OFFCURVE",
"640 595 CURVE SMOOTH",
"640 663 OFFCURVE",
"510 712 OFFCURVE",
"391 712 CURVE SMOOTH",
"186 712 OFFCURVE",
"56 559 OFFCURVE",
"56 350 CURVE SMOOTH",
"56 141 OFFCURVE",
"185 -8 OFFCURVE",
"384 -8 CURVE SMOOTH"
);
}
);
width = 744;
}
);
note = G;
unicode = 0047;
},
{
glyphname = H;
lastChange = "2018-02-27 10:20:58 +0000";
layers = (
{
anchors = (
{
name = bottom;
position = "{358, 0}";
},
{
name = center;
position = "{358, 360}";
},
{
name = top;
position = "{358, 700}";
},
{
name = topleft;
position = "{20, 700}";
}
);
layerId = "0B1DFD06-3317-40CA-B510-4969A0718C16";
paths = (
{
closed = 1;
nodes = (
"623 -8 OFFCURVE",
"637 -4 OFFCURVE",
"651 8 CURVE",
"638 21 OFFCURVE",
"634 42 OFFCURVE",
"634 90 CURVE SMOOTH",
"634 700 LINE",
"545 700 LINE",
"545 408 LINE",
"171 408 LINE",
"171 633 LINE SMOOTH",
"171 681 OFFCURVE",
"139 710 OFFCURVE",
"83 710 CURVE",
"83 0 LINE",
"171 0 LINE",
"171 326 LINE",
"545 326 LINE",
"545 72 LINE SMOOTH",
"545 15 OFFCURVE",
"561 -8 OFFCURVE",
"605 -8 CURVE SMOOTH"
);
}
);
width = 716;
}
);
note = H;
unicode = 0048;
},
{
glyphname = I;
lastChange = "2018-02-27 12:34:07 +0000";
layers = (
{
anchors = (
{
name = bottom;
position = "{135, 0}";
},
{
name = ogonek;
position = "{143, 12}";
},
{
name = top;
position = "{135, 700}";
},
{
name = topleft;
position = "{20, 700}";
}
);
layerId = "0B1DFD06-3317-40CA-B510-4969A0718C16";
paths = (
{
closed = 1;
nodes = (
"168 -8 OFFCURVE",
"182 -4 OFFCURVE",
"196 7 CURVE",
"183 19 OFFCURVE",
"179 38 OFFCURVE",
"179 82 CURVE SMOOTH",
"179 638 LINE SMOOTH",
"179 683 OFFCURVE",
"146 710 OFFCURVE",
"90 710 CURVE",
"90 66 LINE SMOOTH",
"90 14 OFFCURVE",
"106 -8 OFFCURVE",
"149 -8 CURVE SMOOTH"
);
}
);
width = 269;
}
);
note = I;
unicode = 0049;
},
{
glyphname = J;
lastChange = "2018-02-27 12:34:17 +0000";
layers = (
{
anchors = (
{
name = bottom;
position = "{212, 0}";
},
{
name = top;
position = "{297, 700}";
}
);
layerId = "0B1DFD06-3317-40CA-B510-4969A0718C16";
paths = (
{
closed = 1;
nodes = (
"289 -12 OFFCURVE",
"344 56 OFFCURVE",
"344 197 CURVE SMOOTH",
"344 638 LINE SMOOTH",
"344 683 OFFCURVE",
"311 710 OFFCURVE",
"255 710 CURVE",
"255 197 LINE SMOOTH",
"255 103 OFFCURVE",
"234 69 OFFCURVE",
"156 69 CURVE SMOOTH",
"101 69 OFFCURVE",
"70 86 OFFCURVE",
"53 100 CURVE",
"38 95 OFFCURVE",
"28 79 OFFCURVE",
"28 63 CURVE SMOOTH",
"28 29 OFFCURVE",
"72 -12 OFFCURVE",
"167 -12 CURVE SMOOTH"
);
}
);
width = 423;
}
);
note = J;
unicode = 004A;
},
{
glyphname = K;
lastChange = "2018-02-27 10:21:08 +0000";
layers = (
{
anchors = (
{
name = bottom;
position = "{329, 0}";
},
{
name = top;
position = "{329, 700}";
}
);
layerId = "0B1DFD06-3317-40CA-B510-4969A0718C16";
paths = (
{
closed = 1;
nodes = (
"604 -8 OFFCURVE",
"624 -6 OFFCURVE",
"640 5 CURVE",
"632 10 OFFCURVE",
"622 19 OFFCURVE",
"615 29 CURVE SMOOTH",
"344 406 LINE",
"626 700 LINE",
"513 700 LINE",
"171 343 LINE",
"171 638 LINE SMOOTH",
"171 683 OFFCURVE",
"139 710 OFFCURVE",
"83 710 CURVE",
"83 0 LINE",
"171 0 LINE",
"171 226 LINE",
"284 344 LINE",
"510 32 LINE SMOOTH",
"529 6 OFFCURVE",
"557 -8 OFFCURVE",
"591 -8 CURVE SMOOTH"
);
}
);
width = 657;
}
);
note = K;
unicode = 004B;
},
{
glyphname = L;
lastChange = "2018-02-27 10:21:11 +0000";
layers = (
{
anchors = (
{
name = bottom;
position = "{283, 0}";
},
{
name = center;
position = "{283, 350}";
},
{
name = top;
position = "{283, 700}";
},
{
name = topright;
position = "{546, 700}";
}
);
layerId = "0B1DFD06-3317-40CA-B510-4969A0718C16";
paths = (
{
closed = 1;
nodes = (
"454 0 LINE SMOOTH",
"507 0 OFFCURVE",
"528 14 OFFCURVE",
"528 54 CURVE SMOOTH",
"528 72 OFFCURVE",
"524 84 OFFCURVE",
"513 99 CURVE",
"502 86 OFFCURVE",
"482 82 OFFCURVE",
"438 82 CURVE SMOOTH",
"172 82 LINE",
"172 638 LINE SMOOTH",
"172 683 OFFCURVE",
"139 710 OFFCURVE",
"83 710 CURVE",
"83 0 LINE"
);
}
);
width = 566;
}
);
note = L;
unicode = 004C;
},
{
glyphname = M;
lastChange = "2018-02-27 12:34:34 +0000";
layers = (
{
anchors = (
{
name = bottom;
position = "{415, 0}";
},
{
name = top;
position = "{415, 700}";
}
);
layerId = "0B1DFD06-3317-40CA-B510-4969A0718C16";
paths = (
{
closed = 1;
nodes = (
"169 554 LINE",
"377 0 LINE",
"452 0 LINE",
"660 554 LINE",
"660 70 LINE SMOOTH",
"660 15 OFFCURVE",
"676 -8 OFFCURVE",
"718 -8 CURVE SMOOTH",
"736 -8 OFFCURVE",
"749 -4 OFFCURVE",
"763 8 CURVE",
"750 21 OFFCURVE",
"747 41 OFFCURVE",
"747 88 CURVE SMOOTH",
"747 700 LINE",
"633 700 LINE",
"415 114 LINE",
"197 700 LINE",
"83 700 LINE",
"83 62 LINE SMOOTH",
"83 18 OFFCURVE",
"115 -8 OFFCURVE",
"169 -8 CURVE"
);
}
);
width = 829;
}
);
note = M;
unicode = 004D;
},
{
glyphname = N;
lastChange = "2018-02-27 10:21:43 +0000";
layers = (
{
anchors = (
{
name = bottom;
position = "{365, 0}";
},
{
name = top;
position = "{365, 700}";
}
);
layerId = "0B1DFD06-3317-40CA-B510-4969A0718C16";
paths = (
{
closed = 1;
nodes = (
"169 553 LINE",
"561 0 LINE",
"647 0 LINE",
"647 614 LINE SMOOTH",
"647 661 OFFCURVE",
"651 681 OFFCURVE",
"664 694 CURVE",
"650 706 OFFCURVE",
"637 710 OFFCURVE",
"619 710 CURVE SMOOTH",
"577 710 OFFCURVE",
"561 687 OFFCURVE",
"561 632 CURVE SMOOTH",
"561 147 LINE",
"169 700 LINE",
"83 700 LINE",
"83 62 LINE SMOOTH",
"83 18 OFFCURVE",
"115 -8 OFFCURVE",
"169 -8 CURVE"
);
}
);
width = 730;
}
);
note = N;
unicode = 004E;
},
{
glyphname = O;
lastChange = "2018-02-27 12:34:47 +0000";
layers = (
{
anchors = (
{
name = bottom;
position = "{383, 0}";
},
{
name = center;
position = "{383, 350}";
},
{
name = ogonek;
position = "{361, 10}";
},
{
name = top;
position = "{383, 700}";
},
{
name = topleft;
position = "{20, 700}";
},
{
name = topright;
position = "{745, 700}";
}
);
layerId = "0B1DFD06-3317-40CA-B510-4969A0718C16";
paths = (
{
closed = 1;
nodes = (
"572 -12 OFFCURVE",
"709 140 OFFCURVE",
"709 350 CURVE SMOOTH",
"709 560 OFFCURVE",
"572 712 OFFCURVE",
"382 712 CURVE SMOOTH",
"193 712 OFFCURVE",
"56 560 OFFCURVE",
"56 350 CURVE SMOOTH",
"56 140 OFFCURVE",
"193 -12 OFFCURVE",
"382 -12 CURVE SMOOTH"
);
},
{
closed = 1;
nodes = (
"246 70 OFFCURVE",
"147 188 OFFCURVE",
"147 350 CURVE SMOOTH",
"147 512 OFFCURVE",
"246 630 OFFCURVE",
"382 630 CURVE SMOOTH",
"519 630 OFFCURVE",
"618 512 OFFCURVE",
"618 350 CURVE SMOOTH",
"618 188 OFFCURVE",
"519 70 OFFCURVE",
"382 70 CURVE SMOOTH"
);
}
);
width = 765;
}
);
note = O;
unicode = 004F;
},
{
glyphname = P;
lastChange = "2018-02-27 10:21:50 +0000";
layers = (
{
anchors = (
{
name = bottom;
position = "{312, 0}";
},
{
name = top;
position = "{312, 700}";
}
);
layerId = "0B1DFD06-3317-40CA-B510-4969A0718C16";
paths = (
{
closed = 1;
nodes = (
"171 0 LINE",
"171 280 LINE",
"321 280 LINE SMOOTH",
"463 280 OFFCURVE",
"582 328 OFFCURVE",
"582 490 CURVE SMOOTH",
"582 652 OFFCURVE",
"463 700 OFFCURVE",
"321 700 CURVE SMOOTH",
"83 700 LINE",
"83 0 LINE"
);
},
{
closed = 1;
nodes = (
"171 618 LINE",
"318 618 LINE SMOOTH",
"431 618 OFFCURVE",
"492 588 OFFCURVE",
"492 490 CURVE SMOOTH",
"492 392 OFFCURVE",
"431 362 OFFCURVE",
"318 362 CURVE SMOOTH",
"171 362 LINE"
);
}
);
width = 624;
}
);
note = P;
unicode = 0050;
},
{
glyphname = Q;
lastChange = "2018-02-27 10:22:41 +0000";
layers = (
{
anchors = (
{
name = bottom;
position = "{383, 0}";
},
{
name = top;
position = "{383, 700}";
}
);
layerId = "0B1DFD06-3317-40CA-B510-4969A0718C16";
paths = (
{
closed = 1;
nodes = (
"564 -12 OFFCURVE",
"709 154 OFFCURVE",
"709 358 CURVE SMOOTH",
"709 555 OFFCURVE",
"575 712 OFFCURVE",
"381 712 CURVE SMOOTH",
"189 712 OFFCURVE",
"56 558 OFFCURVE",
"56 351 CURVE SMOOTH",
"56 142 OFFCURVE",
"192 -12 OFFCURVE",
"375 -12 CURVE SMOOTH"
);
},
{
closed = 1;
nodes = (
"706 0 OFFCURVE",
"722 10 OFFCURVE",
"734 36 CURVE",
"722 37 OFFCURVE",
"710 44 OFFCURVE",
"700 53 CURVE SMOOTH",
"481 247 LINE",
"428 188 LINE",
"611 25 LINE SMOOTH",
"626 12 OFFCURVE",
"652 0 OFFCURVE",
"672 0 CURVE SMOOTH"
);
},
{
closed = 1;
nodes = (
"247 70 OFFCURVE",
"147 188 OFFCURVE",
"147 351 CURVE SMOOTH",
"147 512 OFFCURVE",
"245 630 OFFCURVE",
"382 630 CURVE SMOOTH",
"520 630 OFFCURVE",
"618 509 OFFCURVE",
"618 356 CURVE SMOOTH",
"618 199 OFFCURVE",
"515 70 OFFCURVE",
"378 70 CURVE SMOOTH"
);
}
);
width = 765;
}
);
note = Q;
unicode = 0051;
},
{
glyphname = R;
lastChange = "2018-02-27 10:22:46 +0000";
layers = (
{
anchors = (
{
name = bottom;
position = "{320, 0}";
},
{
name = top;
position = "{320, 700}";
}
);
layerId = "0B1DFD06-3317-40CA-B510-4969A0718C16";
paths = (
{
closed = 1;
nodes = (
"584 -8 OFFCURVE",
"602 -6 OFFCURVE",
"618 5 CURVE",
"610 10 OFFCURVE",
"599 17 OFFCURVE",
"594 27 CURVE SMOOTH",
"529 150 LINE SMOOTH",
"483 238 OFFCURVE",
"441 281 OFFCURVE",
"386 299 CURVE",
"517 312 OFFCURVE",
"593 364 OFFCURVE",
"593 493 CURVE SMOOTH",
"593 651 OFFCURVE",
"478 700 OFFCURVE",
"337 700 CURVE SMOOTH",
"83 700 LINE",
"83 0 LINE",
"171 0 LINE",
"171 289 LINE",
"289 289 LINE",
"353 269 OFFCURVE",
"397 220 OFFCURVE",
"443 127 CURVE SMOOTH",
"491 30 LINE SMOOTH",
"505 2 OFFCURVE",
"539 -8 OFFCURVE",
"570 -8 CURVE SMOOTH"
);
},
{
closed = 1;
nodes = (
"171 620 LINE",
"334 620 LINE SMOOTH",
"448 620 OFFCURVE",
"505 587 OFFCURVE",
"505 494 CURVE SMOOTH",
"505 400 OFFCURVE",
"448 367 OFFCURVE",
"334 367 CURVE SMOOTH",
"171 367 LINE"
);
}
);
width = 640;
}
);
note = R;
unicode = 0052;
},
{
glyphname = S;
lastChange = "2018-02-27 10:22:49 +0000";
layers = (
{
anchors = (
{
name = bottom;
position = "{296, 0}";
},
{
name = top;
position = "{296, 700}";
}
);
layerId = "0B1DFD06-3317-40CA-B510-4969A0718C16";
paths = (
{
closed = 1;
nodes = (
"428 -12 OFFCURVE",
"543 49 OFFCURVE",
"543 197 CURVE SMOOTH",
"543 324 OFFCURVE",
"458 353 OFFCURVE",
"309 402 CURVE SMOOTH",
"183 443 OFFCURVE",
"135 462 OFFCURVE",
"135 529 CURVE SMOOTH",
"135 610 OFFCURVE",
"206 633 OFFCURVE",
"278 633 CURVE SMOOTH",
"363 633 OFFCURVE",
"451 601 OFFCURVE",
"489 551 CURVE",
"520 561 OFFCURVE",
"527 583 OFFCURVE",
"527 599 CURVE SMOOTH",
"527 668 OFFCURVE",
"389 712 OFFCURVE",
"277 712 CURVE SMOOTH",
"152 712 OFFCURVE",
"50 657 OFFCURVE",
"50 519 CURVE SMOOTH",
"50 397 OFFCURVE",
"130 370 OFFCURVE",
"281 324 CURVE SMOOTH",
"412 284 OFFCURVE",
"457 270 OFFCURVE",
"457 195 CURVE SMOOTH",
"457 102 OFFCURVE",
"387 67 OFFCURVE",
"287 67 CURVE SMOOTH",
"189 67 OFFCURVE",
"115 101 OFFCURVE",
"80 149 CURVE",
"49 139 OFFCURVE",
"42 117 OFFCURVE",
"42 101 CURVE SMOOTH",
"42 32 OFFCURVE",
"167 -12 OFFCURVE",
"287 -12 CURVE SMOOTH"
);
}
);
width = 591;
}
);
note = S;
unicode = 0053;
},
{
glyphname = T;
lastChange = "2018-02-27 10:22:54 +0000";
layers = (
{
anchors = (
{
name = bottom;
position = "{283, 0}";
},
{
name = center;
position = "{283, 350}";
},
{
name = top;
position = "{283, 700}";
}
);
layerId = "0B1DFD06-3317-40CA-B510-4969A0718C16";
paths = (
{
closed = 1;
nodes = (
"316 -8 OFFCURVE",
"329 -4 OFFCURVE",
"343 8 CURVE",
"330 21 OFFCURVE",
"327 41 OFFCURVE",
"327 88 CURVE SMOOTH",
"327 618 LINE",
"540 618 LINE",
"540 700 LINE",
"27 700 LINE",
"27 647 OFFCURVE",
"54 618 OFFCURVE",
"99 618 CURVE SMOOTH",
"239 618 LINE",
"239 70 LINE SMOOTH",
"239 15 OFFCURVE",
"255 -8 OFFCURVE",
"298 -8 CURVE SMOOTH"
);
}
);
width = 566;
}
);
note = T;
unicode = 0054;
},
{
glyphname = U;
lastChange = "2018-02-27 12:35:06 +0000";
layers = (
{
anchors = (
{
name = bottom;
position = "{354, 0}";
},
{
name = ogonek;
position = "{328, 10}";
},
{
name = top;
position = "{354, 700}";
},
{
name = topright;
position = "{687, 700}";
}
);
layerId = "0B1DFD06-3317-40CA-B510-4969A0718C16";
paths = (
{
closed = 1;
nodes = (
"555 -12 OFFCURVE",
"624 120 OFFCURVE",
"624 308 CURVE SMOOTH",
"624 614 LINE SMOOTH",
"624 661 OFFCURVE",
"628 681 OFFCURVE",
"641 694 CURVE",
"627 706 OFFCURVE",
"613 710 OFFCURVE",
"595 710 CURVE SMOOTH",
"552 710 OFFCURVE",
"536 687 OFFCURVE",
"536 632 CURVE SMOOTH",
"536 308 LINE SMOOTH",
"536 167 OFFCURVE",
"496 72 OFFCURVE",
"351 72 CURVE SMOOTH",
"206 72 OFFCURVE",
"167 167 OFFCURVE",
"167 308 CURVE SMOOTH",
"167 633 LINE SMOOTH",
"167 681 OFFCURVE",
"135 710 OFFCURVE",
"79 710 CURVE",
"79 308 LINE SMOOTH",
"79 120 OFFCURVE",
"148 -12 OFFCURVE",
"351 -12 CURVE SMOOTH"
);
}
);
width = 707;
}
);
note = U;
unicode = 0055;
},
{
glyphname = V;
lastChange = "2018-02-27 10:22:58 +0000";
layers = (
{
anchors = (
{
name = bottom;
position = "{321, 0}";
},
{
name = top;
position = "{321, 700}";
}
);
layerId = "0B1DFD06-3317-40CA-B510-4969A0718C16";
paths = (
{
closed = 1;
nodes = (
"369 0 LINE",
"608 667 LINE SMOOTH",
"613 682 OFFCURVE",
"622 695 OFFCURVE",
"631 702 CURVE",
"615 708 OFFCURVE",
"598 710 OFFCURVE",
"586 710 CURVE SMOOTH",
"554 710 OFFCURVE",
"525 695 OFFCURVE",
"513 662 CURVE SMOOTH",
"322 113 LINE",
"320 113 LINE",
"130 658 LINE SMOOTH",
"117 695 OFFCURVE",
"94 710 OFFCURVE",
"59 710 CURVE SMOOTH",
"46 710 OFFCURVE",
"32 708 OFFCURVE",
"19 705 CURVE",
"273 0 LINE"
);
}
);
width = 641;
}
);
note = V;
unicode = 0056;
},
{
glyphname = W;
lastChange = "2018-02-27 10:23:18 +0000";
layers = (
{
anchors = (
{
name = bottom;
position = "{503, 0}";
},
{
name = top;
position = "{503, 700}";
}
);
layerId = "0B1DFD06-3317-40CA-B510-4969A0718C16";
paths = (
{
closed = 1;
nodes = (
"328 0 LINE",
"502 577 LINE",
"675 0 LINE",
"770 0 LINE",
"971 667 LINE SMOOTH",
"976 682 OFFCURVE",
"985 695 OFFCURVE",
"994 702 CURVE",
"978 708 OFFCURVE",
"962 710 OFFCURVE",
"948 710 CURVE SMOOTH",
"914 710 OFFCURVE",
"888 694 OFFCURVE",
"878 662 CURVE SMOOTH",
"721 137 LINE",
"545 700 LINE",
"461 700 LINE",
"287 131 LINE",
"128 661 LINE SMOOTH",
"118 694 OFFCURVE",
"99 710 OFFCURVE",
"61 710 CURVE SMOOTH",
"49 710 OFFCURVE",
"36 708 OFFCURVE",
"24 705 CURVE",
"236 0 LINE"
);
}
);
width = 1006;
}
);
note = W;
unicode = 0057;
},
{
glyphname = X;
lastChange = "2018-02-27 10:24:05 +0000";
layers = (
{
anchors = (
{
name = bottom;
position = "{327, 0}";
},
{
name = top;
position = "{327, 700}";
}
);
layerId = "0B1DFD06-3317-40CA-B510-4969A0718C16";
paths = (
{
closed = 1;
nodes = (
"502 31 LINE SMOOTH",
"519 6 OFFCURVE",
"551 -8 OFFCURVE",
"584 -8 CURVE SMOOTH",
"597 -8 OFFCURVE",
"617 -6 OFFCURVE",
"632 5 CURVE",
"625 10 OFFCURVE",
"615 19 OFFCURVE",
"608 29 CURVE SMOOTH",
"158 673 LINE SMOOTH",
"141 698 OFFCURVE",
"118 710 OFFCURVE",
"77 710 CURVE SMOOTH",
"65 710 OFFCURVE",
"45 709 OFFCURVE",
"30 703 CURVE"
);
},
{
closed = 1;
nodes = (
"23 0 LINE",
"131 0 LINE",
"620 700 LINE",
"513 700 LINE"
);
}
);
width = 653;
}
);
note = X;
unicode = 0058;
},
{
glyphname = Y;
lastChange = "2018-02-27 08:55:52 +0000";
layers = (
{
anchors = (
{
name = bottom;
position = "{330, 0}";
},
{
name = top;
position = "{330, 700}";
},
{
name = topleft;
position = "{20, 700}";
}
);
layerId = "0B1DFD06-3317-40CA-B510-4969A0718C16";
paths = (
{
closed = 1;
nodes = (
"364 -8 OFFCURVE",
"377 -4 OFFCURVE",
"391 8 CURVE",
"378 21 OFFCURVE",
"373 42 OFFCURVE",
"373 90 CURVE SMOOTH",
"373 288 LINE",
"634 700 LINE",
"532 700 LINE",
"329 371 LINE",
"143 675 LINE SMOOTH",
"128 700 OFFCURVE",
"105 710 OFFCURVE",
"70 710 CURVE SMOOTH",
"56 710 OFFCURVE",
"38 709 OFFCURVE",
"24 703 CURVE",
"285 288 LINE",
"285 72 LINE SMOOTH",
"285 17 OFFCURVE",
"301 -8 OFFCURVE",
"342 -8 CURVE SMOOTH"
);
}
);
width = 659;
}
);
note = Y;
unicode = 0059;
},
{
glyphname = Z;
lastChange = "2018-02-27 08:55:52 +0000";
layers = (
{
anchors = (
{
name = bottom;
position = "{321, 0}";
},
{
name = top;
position = "{321, 700}";
}
);
layerId = "0B1DFD06-3317-40CA-B510-4969A0718C16";
paths = (
{
closed = 1;
nodes = (
"518 0 LINE SMOOTH",
"569 0 OFFCURVE",
"592 15 OFFCURVE",
"592 53 CURVE SMOOTH",
"592 73 OFFCURVE",
"587 84 OFFCURVE",
"577 98 CURVE",
"565 85 OFFCURVE",
"546 82 OFFCURVE",
"502 82 CURVE SMOOTH",
"158 82 LINE",
"582 621 LINE",
"582 700 LINE",
"68 700 LINE",
"68 647 OFFCURVE",
"95 618 OFFCURVE",
"140 618 CURVE SMOOTH",
"473 618 LINE",
"50 79 LINE",
"50 0 LINE"
);
}
);
width = 641;
}
);
note = Z;
unicode = 005A;
},
{
glyphname = a;
lastChange = "2018-02-27 12:35:27 +0000";
layers = (
{
anchors = (
{
name = bottom;
position = "{273, 0}";
},
{
name = ogonek;
position = "{439, 10}";
},
{
name = top;
position = "{273, 510}";
}
);
layerId = "0B1DFD06-3317-40CA-B510-4969A0718C16";
paths = (
{
closed = 1;
nodes = (
"304 -10 OFFCURVE",
"359 27 OFFCURVE",
"388 66 CURVE",
"388 14 OFFCURVE",
"401 -8 OFFCURVE",
"441 -8 CURVE SMOOTH",
"458 -8 OFFCURVE",
"471 -4 OFFCURVE",
"484 7 CURVE",
"472 19 OFFCURVE",
"468 38 OFFCURVE",
"468 82 CURVE SMOOTH",
"468 330 LINE SMOOTH",
"468 447 OFFCURVE",
"386 521 OFFCURVE",
"260 521 CURVE SMOOTH",
"166 521 OFFCURVE",
"56 480 OFFCURVE",
"56 416 CURVE SMOOTH",
"56 402 OFFCURVE",
"61 380 OFFCURVE",
"89 371 CURVE",
"120 415 OFFCURVE",
"182 451 OFFCURVE",
"257 451 CURVE SMOOTH",
"339 451 OFFCURVE",
"388 408 OFFCURVE",
"388 330 CURVE SMOOTH",
"388 263 LINE",
"361 291 OFFCURVE",
"315 313 OFFCURVE",
"246 313 CURVE SMOOTH",
"126 313 OFFCURVE",
"40 246 OFFCURVE",
"40 142 CURVE SMOOTH",
"40 49 OFFCURVE",
"110 -10 OFFCURVE",
"218 -10 CURVE SMOOTH"
);
},
{
closed = 1;
nodes = (
"161 59 OFFCURVE",
"120 88 OFFCURVE",
"120 146 CURVE SMOOTH",
"120 208 OFFCURVE",
"167 250 OFFCURVE",
"248 250 CURVE SMOOTH",
"302 250 OFFCURVE",
"388 231 OFFCURVE",
"388 168 CURVE SMOOTH",
"388 118 OFFCURVE",
"333 59 OFFCURVE",
"232 59 CURVE SMOOTH"
);
}
);
width = 546;
}
);
note = a;
unicode = 0061;
},
{
glyphname = b;
lastChange = "2018-02-27 10:20:20 +0000";
layers = (
{
anchors = (
{
name = bottom;
position = "{294, 0}";
},
{
name = top;
position = "{294, 800}";
}
);
layerId = "0B1DFD06-3317-40CA-B510-4969A0718C16";
paths = (
{
closed = 1;
nodes = (
"444 -12 OFFCURVE",
"542 109 OFFCURVE",
"542 277 CURVE SMOOTH",
"542 438 OFFCURVE",
"452 522 OFFCURVE",
"332 522 CURVE SMOOTH",
"251 522 OFFCURVE",
"187 484 OFFCURVE",
"154 435 CURVE",
"154 648 LINE SMOOTH",
"154 693 OFFCURVE",
"124 720 OFFCURVE",
"72 720 CURVE",
"72 180 LINE SMOOTH",
"72 63 OFFCURVE",
"162 -12 OFFCURVE",
"286 -12 CURVE SMOOTH"
);
},
{
closed = 1;
nodes = (
"209 59 OFFCURVE",
"152 108 OFFCURVE",
"152 196 CURVE SMOOTH",
"152 255 LINE SMOOTH",
"152 363 OFFCURVE",
"218 451 OFFCURVE",
"326 451 CURVE SMOOTH",
"405 451 OFFCURVE",
"458 404 OFFCURVE",
"458 278 CURVE SMOOTH",
"458 143 OFFCURVE",
"398 59 OFFCURVE",
"291 59 CURVE SMOOTH"
);
}
);
width = 588;
}
);
note = b;
unicode = 0062;
},
{
glyphname = c;
lastChange = "2018-02-27 10:24:24 +0000";
layers = (
{
anchors = (
{
name = bottom;
position = "{272, 0}";
},
{
name = top;
position = "{272, 510}";
}
);
layerId = "0B1DFD06-3317-40CA-B510-4969A0718C16";
paths = (
{
closed = 1;
nodes = (
"380 -12 OFFCURVE",
"505 29 OFFCURVE",
"505 96 CURVE SMOOTH",
"505 106 OFFCURVE",
"502 132 OFFCURVE",
"472 140 CURVE",
"439 93 OFFCURVE",
"363 63 OFFCURVE",
"296 63 CURVE SMOOTH",
"178 63 OFFCURVE",
"129 156 OFFCURVE",
"129 255 CURVE SMOOTH",
"129 354 OFFCURVE",
"178 447 OFFCURVE",
"296 447 CURVE SMOOTH",
"363 447 OFFCURVE",
"439 417 OFFCURVE",
"472 370 CURVE",
"502 378 OFFCURVE",
"505 404 OFFCURVE",
"505 414 CURVE SMOOTH",
"505 481 OFFCURVE",
"380 522 OFFCURVE",
"290 522 CURVE SMOOTH",
"132 522 OFFCURVE",
"46 395 OFFCURVE",
"46 255 CURVE SMOOTH",
"46 115 OFFCURVE",
"132 -12 OFFCURVE",
"290 -12 CURVE SMOOTH"
);
}
);
width = 543;
}
);
note = c;
unicode = 0063;
},
{
glyphname = d;
lastChange = "2018-02-27 12:36:31 +0000";
layers = (
{
anchors = (
{
name = bottom;
position = "{296, 0}";
},
{
name = center;
position = "{296, 255}";
},
{
name = top;
position = "{474, 720}";
},
{
name = topright;
position = "{572, 510}";
}
);
layerId = "0B1DFD06-3317-40CA-B510-4969A0718C16";
paths = (
{
closed = 1;
nodes = (
"335 -11 OFFCURVE",
"401 21 OFFCURVE",
"438 77 CURVE",
"438 66 LINE SMOOTH",
"438 14 OFFCURVE",
"449 -8 OFFCURVE",
"489 -8 CURVE SMOOTH",
"506 -8 OFFCURVE",
"519 -4 OFFCURVE",
"532 7 CURVE",
"520 19 OFFCURVE",
"516 38 OFFCURVE",
"516 82 CURVE SMOOTH",
"516 720 LINE",
"434 720 LINE",
"434 471 LINE",
"402 500 OFFCURVE",
"341 522 OFFCURVE",
"280 522 CURVE SMOOTH",
"139 522 OFFCURVE",
"46 407 OFFCURVE",
"46 240 CURVE SMOOTH",
"46 82 OFFCURVE",
"130 -11 OFFCURVE",
"259 -11 CURVE SMOOTH"
);
},
{
closed = 1;
nodes = (
"174 59 OFFCURVE",
"130 113 OFFCURVE",
"130 235 CURVE SMOOTH",
"130 374 OFFCURVE",
"187 451 OFFCURVE",
"293 451 CURVE SMOOTH",
"380 451 OFFCURVE",
"436 400 OFFCURVE",
"436 307 CURVE SMOOTH",
"436 255 LINE SMOOTH",
"436 129 OFFCURVE",
"366 59 OFFCURVE",
"264 59 CURVE SMOOTH"
);
}
);
width = 592;
}
);
note = d;
unicode = 0064;
},
{
glyphname = e;
lastChange = "2018-02-27 12:35:56 +0000";
layers = (
{
anchors = (
{
name = bottom;
position = "{281, 0}";
},
{
name = ogonek;
position = "{267, 10}";
},
{
name = top;
position = "{281, 510}";
}
);
layerId = "0B1DFD06-3317-40CA-B510-4969A0718C16";
paths = (
{
closed = 1;
nodes = (
"381 -12 OFFCURVE",
"494 28 OFFCURVE",
"494 93 CURVE SMOOTH",
"494 107 OFFCURVE",
"489 129 OFFCURVE",
"461 138 CURVE",
"427 91 OFFCURVE",
"358 56 OFFCURVE",
"292 56 CURVE SMOOTH",
"200 56 OFFCURVE",
"128 124 OFFCURVE",
"128 227 CURVE",
"508 227 LINE",
"515 243 OFFCURVE",
"516 259 OFFCURVE",
"516 275 CURVE SMOOTH",
"516 400 OFFCURVE",
"455 521 OFFCURVE",
"292 521 CURVE SMOOTH",
"124 521 OFFCURVE",
"46 394 OFFCURVE",
"46 249 CURVE SMOOTH",
"46 83 OFFCURVE",
"147 -12 OFFCURVE",
"289 -12 CURVE SMOOTH"
);
},
{
closed = 1;
nodes = (
"143 377 OFFCURVE",
"184 452 OFFCURVE",
"292 452 CURVE SMOOTH",
"407 452 OFFCURVE",
"432 368 OFFCURVE",
"434 294 CURVE",
"130 294 LINE"
);
}
);
width = 562;
}
);
note = e;
unicode = 0065;
},
{
glyphname = f;
lastChange = "2018-02-27 12:36:05 +0000";
layers = (
{
anchors = (
{
name = bottom;
position = "{162, 0}";
},
{
name = top;
position = "{162, 730}";
}
);
layerId = "0B1DFD06-3317-40CA-B510-4969A0718C16";
paths = (
{
closed = 1;
nodes = (
"165 -8 OFFCURVE",
"180 14 OFFCURVE",
"180 66 CURVE SMOOTH",
"180 446 LINE",
"308 446 LINE",
"308 510 LINE",
"179 510 LINE",
"179 574 LINE SMOOTH",
"179 626 OFFCURVE",
"199 655 OFFCURVE",
"241 655 CURVE SMOOTH",
"255 655 OFFCURVE",
"275 652 OFFCURVE",
"293 645 CURVE",
"307 650 OFFCURVE",
"316 664 OFFCURVE",
"316 680 CURVE SMOOTH",
"316 711 OFFCURVE",
"281 730 OFFCURVE",
"233 730 CURVE SMOOTH",
"147 730 OFFCURVE",
"98 669 OFFCURVE",
"98 574 CURVE SMOOTH",
"98 510 LINE",
"20 490 LINE",
"20 446 LINE",
"98 446 LINE",
"98 82 LINE SMOOTH",
"98 38 OFFCURVE",
"94 19 OFFCURVE",
"82 7 CURVE",
"95 -4 OFFCURVE",
"108 -8 OFFCURVE",
"125 -8 CURVE SMOOTH"
);
}
);
width = 324;
}
);
note = f;
unicode = 0066;
},
{
glyphname = g;
lastChange = "2018-02-27 12:36:13 +0000";
layers = (
{
anchors = (
{
name = bottom;
position = "{294, -160}";
},
{
name = top;
position = "{294, 510}";
}
);
layerId = "0B1DFD06-3317-40CA-B510-4969A0718C16";
paths = (
{
closed = 1;
nodes = (
"424 -168 OFFCURVE",
"516 -77 OFFCURVE",
"516 62 CURVE SMOOTH",
"516 345 LINE SMOOTH",
"516 453 OFFCURVE",
"426 522 OFFCURVE",
"302 522 CURVE SMOOTH",
"144 522 OFFCURVE",
"46 410 OFFCURVE",
"46 255 CURVE SMOOTH",
"46 106 OFFCURVE",
"136 29 OFFCURVE",
"256 29 CURVE SMOOTH",
"332 29 OFFCURVE",
"398 60 OFFCURVE",
"434 109 CURVE",
"434 64 LINE SMOOTH",
"434 -32 OFFCURVE",
"372 -100 OFFCURVE",
"278 -100 CURVE SMOOTH",
"208 -100 OFFCURVE",
"128 -62 OFFCURVE",
"97 -18 CURVE",
"73 -26 OFFCURVE",
"64 -44 OFFCURVE",
"64 -62 CURVE SMOOTH",
"64 -129 OFFCURVE",
"189 -168 OFFCURVE",
"282 -168 CURVE SMOOTH"
);
},
{
closed = 1;
nodes = (
"183 99 OFFCURVE",
"130 141 OFFCURVE",
"130 255 CURVE SMOOTH",
"130 376 OFFCURVE",
"190 451 OFFCURVE",
"297 451 CURVE SMOOTH",
"379 451 OFFCURVE",
"436 407 OFFCURVE",
"436 328 CURVE SMOOTH",
"436 275 LINE SMOOTH",
"436 178 OFFCURVE",
"370 99 OFFCURVE",
"262 99 CURVE SMOOTH"
);
}
);
width = 588;
}
);
note = g;
unicode = 0067;
},
{
glyphname = h;
lastChange = "2018-02-27 12:36:23 +0000";
layers = (
{
anchors = (
{
name = bottom;
position = "{290, 0}";
},
{
name = center;
position = "{290, 400}";
},
{
name = top;
position = "{110, 720}";
}
);
layerId = "0B1DFD06-3317-40CA-B510-4969A0718C16";
paths = (
{
closed = 1;
nodes = (
"496 -8 OFFCURVE",
"509 -4 OFFCURVE",
"522 7 CURVE",
"510 19 OFFCURVE",
"506 38 OFFCURVE",
"506 82 CURVE SMOOTH",
"506 312 LINE SMOOTH",
"506 451 OFFCURVE",
"427 522 OFFCURVE",
"318 522 CURVE SMOOTH",
"235 522 OFFCURVE",
"188 481 OFFCURVE",
"158 428 CURVE",
"158 648 LINE SMOOTH",
"158 693 OFFCURVE",
"128 720 OFFCURVE",
"76 720 CURVE",
"76 0 LINE",
"158 0 LINE",
"158 199 LINE SMOOTH",
"158 381 OFFCURVE",
"211 447 OFFCURVE",
"300 447 CURVE SMOOTH",
"378 447 OFFCURVE",
"424 397 OFFCURVE",
"424 316 CURVE SMOOTH",
"424 66 LINE SMOOTH",
"424 14 OFFCURVE",
"439 -8 OFFCURVE",
"479 -8 CURVE SMOOTH"
);
}
);
width = 580;
}
);
note = h;
unicode = 0068;
},
{
glyphname = i;
lastChange = "2018-02-27 10:24:39 +0000";
layers = (
{
anchors = (
{
name = bottom;
position = "{119, 0}";
}
);
layerId = "0B1DFD06-3317-40CA-B510-4969A0718C16";
paths = (
{
closed = 1;
nodes = (
"150 -8 OFFCURVE",
"163 -4 OFFCURVE",
"176 7 CURVE",
"164 19 OFFCURVE",
"160 38 OFFCURVE",
"160 82 CURVE SMOOTH",
"160 446 LINE SMOOTH",
"160 491 OFFCURVE",
"130 518 OFFCURVE",
"78 518 CURVE",
"78 66 LINE SMOOTH",
"78 14 OFFCURVE",
"93 -8 OFFCURVE",
"133 -8 CURVE SMOOTH"
);
},
{
closed = 1;
nodes = (
"152 588 OFFCURVE",
"180 616 OFFCURVE",
"180 649 CURVE SMOOTH",
"180 682 OFFCURVE",
"152 710 OFFCURVE",
"119 710 CURVE SMOOTH",
"86 710 OFFCURVE",
"58 682 OFFCURVE",
"58 649 CURVE SMOOTH",
"58 616 OFFCURVE",
"86 588 OFFCURVE",
"119 588 CURVE SMOOTH"
);
}
);
width = 238;
}
);
note = i;
unicode = 0069;
},
{
glyphname = j;
lastChange = "2018-02-27 10:24:41 +0000";
layers = (
{
layerId = "0B1DFD06-3317-40CA-B510-4969A0718C16";
paths = (
{
closed = 1;
nodes = (
"111 -166 OFFCURVE",
"160 -105 OFFCURVE",
"160 -10 CURVE SMOOTH",
"160 446 LINE SMOOTH",
"160 491 OFFCURVE",
"130 518 OFFCURVE",
"78 518 CURVE",
"78 -10 LINE SMOOTH",
"78 -62 OFFCURVE",
"59 -91 OFFCURVE",
"17 -91 CURVE SMOOTH",
"3 -91 OFFCURVE",
"-17 -88 OFFCURVE",
"-35 -81 CURVE",
"-49 -86 OFFCURVE",
"-58 -100 OFFCURVE",
"-58 -116 CURVE SMOOTH",
"-58 -147 OFFCURVE",
"-23 -166 OFFCURVE",
"25 -166 CURVE SMOOTH"
);
},
{
closed = 1;
nodes = (
"152 588 OFFCURVE",
"180 616 OFFCURVE",
"180 649 CURVE SMOOTH",
"180 682 OFFCURVE",
"152 710 OFFCURVE",
"119 710 CURVE SMOOTH",
"86 710 OFFCURVE",
"58 682 OFFCURVE",
"58 649 CURVE SMOOTH",
"58 616 OFFCURVE",
"86 588 OFFCURVE",
"119 588 CURVE SMOOTH"
);
}
);
width = 242;
}
);
note = j;
unicode = 006A;
},
{
glyphname = k;
lastChange = "2018-02-27 10:24:45 +0000";
layers = (
{
anchors = (
{
name = bottom;
position = "{259, 0}";
},
{
name = top;
position = "{259, 800}";
}
);
layerId = "0B1DFD06-3317-40CA-B510-4969A0718C16";
paths = (
{
closed = 1;
nodes = (
"476 -6 OFFCURVE",
"493 -4 OFFCURVE",
"508 6 CURVE",
"501 11 OFFCURVE",
"491 20 OFFCURVE",
"485 28 CURVE SMOOTH",
"285 300 LINE",
"488 510 LINE",
"384 510 LINE",
"158 276 LINE",
"158 648 LINE SMOOTH",
"158 693 OFFCURVE",
"128 720 OFFCURVE",
"76 720 CURVE",
"76 0 LINE",
"158 0 LINE",
"158 170 LINE",
"231 247 LINE",
"388 31 LINE SMOOTH",
"405 7 OFFCURVE",
"432 -6 OFFCURVE",
"464 -6 CURVE SMOOTH"
);
}
);
width = 518;
}
);
note = k;
unicode = 006B;
},
{
glyphname = l;
lastChange = "2018-02-27 12:36:48 +0000";
layers = (
{
anchors = (
{
name = bottom;
position = "{119, 0}";
},
{
name = center;
position = "{119, 400}";
},
{
name = top;
position = "{119, 722}";
},
{
name = topright;
position = "{218, 720}";
}
);
layerId = "0B1DFD06-3317-40CA-B510-4969A0718C16";
paths = (
{
closed = 1;
nodes = (
"150 -8 OFFCURVE",
"163 -4 OFFCURVE",
"176 7 CURVE",
"164 19 OFFCURVE",
"160 38 OFFCURVE",
"160 82 CURVE SMOOTH",
"160 648 LINE SMOOTH",
"160 693 OFFCURVE",
"130 720 OFFCURVE",
"78 720 CURVE",
"78 66 LINE SMOOTH",
"78 14 OFFCURVE",
"93 -8 OFFCURVE",
"133 -8 CURVE SMOOTH"
);
}
);
width = 238;
}
);
note = l;
unicode = 006C;
},
{
glyphname = m;
lastChange = "2018-02-27 11:26:29 +0000";
layers = (
{
anchors = (
{
name = bottom;
position = "{434, 0}";
},
{
name = top;
position = "{434, 510}";
}
);
background = {
paths = (
{
closed = 1;
nodes = (
"158 0 LINE",
"158 227 LINE SMOOTH",
"158 389 OFFCURVE",
"205 447 OFFCURVE",
"284 447 CURVE SMOOTH",
"354 447 OFFCURVE",
"394 403 OFFCURVE",
"394 331 CURVE SMOOTH",
"394 0 LINE",
"476 0 LINE",
"476 330 LINE SMOOTH",
"476 457 OFFCURVE",
"404 522 OFFCURVE",
"304 522 CURVE SMOOTH",
"228 522 OFFCURVE",
"183 485 OFFCURVE",
"156 436 CURVE",
"156 446 LINE SMOOTH",
"156 491 OFFCURVE",
"128 518 OFFCURVE",
"76 518 CURVE",
"76 0 LINE"
);
},
{
closed = 1;
nodes = (
"783 -8 OFFCURVE",
"805 -5 OFFCURVE",
"830 3 CURVE",
"830 13 LINE",
"798 25 OFFCURVE",
"794 38 OFFCURVE",
"794 82 CURVE SMOOTH",
"794 319 LINE SMOOTH",
"794 454 OFFCURVE",
"718 522 OFFCURVE",
"612 522 CURVE SMOOTH",
"531 522 OFFCURVE",
"484 482 OFFCURVE",
"455 430 CURVE",
"455 227 LINE",
"476 227 LINE",
"476 389 OFFCURVE",
"523 447 OFFCURVE",
"602 447 CURVE SMOOTH",
"672 447 OFFCURVE",
"712 403 OFFCURVE",
"712 331 CURVE SMOOTH",
"712 66 LINE SMOOTH",
"712 14 OFFCURVE",
"727 -8 OFFCURVE",
"767 -8 CURVE SMOOTH"
);
}
);
};
layerId = "0B1DFD06-3317-40CA-B510-4969A0718C16";
paths = (
{
closed = 1;
nodes = (
"158 0 LINE",
"158 227 LINE SMOOTH",
"158 389 OFFCURVE",
"205 447 OFFCURVE",
"284 447 CURVE SMOOTH",
"354 447 OFFCURVE",
"394 403 OFFCURVE",
"394 331 CURVE SMOOTH",
"394 0 LINE",
"476 0 LINE",
"476 330 LINE SMOOTH",
"476 457 OFFCURVE",
"404 522 OFFCURVE",
"304 522 CURVE SMOOTH",
"228 522 OFFCURVE",
"185 485 OFFCURVE",
"158 436 CURVE",
"158 444 LINE SMOOTH",
"158 496 OFFCURVE",
"143 518 OFFCURVE",
"103 518 CURVE SMOOTH",
"86 518 OFFCURVE",
"73 514 OFFCURVE",
"60 503 CURVE",
"72 491 OFFCURVE",
"76 472 OFFCURVE",
"76 428 CURVE SMOOTH",
"76 0 LINE"
);
},
{
closed = 1;
nodes = (
"784 -8 OFFCURVE",
"797 -4 OFFCURVE",
"810 7 CURVE",
"798 19 OFFCURVE",
"794 38 OFFCURVE",
"794 82 CURVE SMOOTH",
"794 319 LINE SMOOTH",
"794 454 OFFCURVE",
"718 522 OFFCURVE",
"612 522 CURVE SMOOTH",
"531 522 OFFCURVE",
"484 482 OFFCURVE",
"455 430 CURVE",
"455 227 LINE",
"476 227 LINE",
"476 389 OFFCURVE",
"523 447 OFFCURVE",
"602 447 CURVE SMOOTH",
"672 447 OFFCURVE",
"712 403 OFFCURVE",
"712 331 CURVE SMOOTH",
"712 66 LINE SMOOTH",
"712 14 OFFCURVE",
"727 -8 OFFCURVE",
"767 -8 CURVE SMOOTH"
);
}
);
width = 868;
}
);
note = m;
unicode = 006D;
},
{
glyphname = n;
lastChange = "2018-02-27 10:24:55 +0000";
layers = (
{
anchors = (
{
name = bottom;
position = "{290, 0}";
},
{
name = top;
position = "{290, 510}";
}
);
layerId = "0B1DFD06-3317-40CA-B510-4969A0718C16";
paths = (
{
closed = 1;
nodes = (
"496 -8 OFFCURVE",
"509 -4 OFFCURVE",
"522 7 CURVE",
"510 19 OFFCURVE",
"506 38 OFFCURVE",
"506 82 CURVE SMOOTH",
"506 312 LINE SMOOTH",
"506 451 OFFCURVE",
"428 522 OFFCURVE",
"316 522 CURVE SMOOTH",
"236 522 OFFCURVE",
"186 481 OFFCURVE",
"156 428 CURVE",
"156 446 LINE SMOOTH",
"156 491 OFFCURVE",
"128 518 OFFCURVE",
"76 518 CURVE",
"76 0 LINE",
"158 0 LINE",
"158 199 LINE SMOOTH",
"158 381 OFFCURVE",
"211 447 OFFCURVE",
"300 447 CURVE SMOOTH",
"378 447 OFFCURVE",
"424 397 OFFCURVE",
"424 316 CURVE SMOOTH",
"424 66 LINE SMOOTH",
"424 14 OFFCURVE",
"439 -8 OFFCURVE",
"479 -8 CURVE SMOOTH"
);
}
);
width = 580;
}
);
note = n;
unicode = 006E;
},
{
glyphname = o;
lastChange = "2018-02-27 12:37:01 +0000";
layers = (
{
anchors = (
{
name = bottom;
position = "{301, 0}";
},
{
name = center;
position = "{301, 255}";
},
{
name = ogonek;
position = "{296, 10}";
},
{
name = top;
position = "{301, 510}";
},
{
name = topright;
position = "{582, 510}";
}
);
layerId = "0B1DFD06-3317-40CA-B510-4969A0718C16";
paths = (
{
closed = 1;
nodes = (
"465 -11 OFFCURVE",
"556 115 OFFCURVE",
"556 255 CURVE SMOOTH",
"556 395 OFFCURVE",
"465 521 OFFCURVE",
"301 521 CURVE SMOOTH",
"137 521 OFFCURVE",
"46 395 OFFCURVE",
"46 255 CURVE SMOOTH",
"46 115 OFFCURVE",
"137 -11 OFFCURVE",
"301 -11 CURVE SMOOTH"
);
},
{
closed = 1;
nodes = (
"184 61 OFFCURVE",
"130 157 OFFCURVE",
"130 255 CURVE SMOOTH",
"130 353 OFFCURVE",
"184 449 OFFCURVE",
"301 449 CURVE SMOOTH",
"418 449 OFFCURVE",
"472 353 OFFCURVE",
"472 255 CURVE SMOOTH",
"472 157 OFFCURVE",
"418 61 OFFCURVE",
"301 61 CURVE SMOOTH"
);
}
);
width = 602;
}
);
note = o;
unicode = 006F;
},
{
glyphname = p;
lastChange = "2018-02-27 10:25:01 +0000";
layers = (
{
anchors = (
{
name = bottom;
position = "{296, 0}";
},
{
name = top;
position = "{296, 510}";
}
);
layerId = "0B1DFD06-3317-40CA-B510-4969A0718C16";
paths = (
{
closed = 1;
nodes = (
"158 -160 LINE",
"158 40 LINE",
"190 11 OFFCURVE",
"251 -11 OFFCURVE",
"312 -11 CURVE SMOOTH",
"453 -11 OFFCURVE",
"546 104 OFFCURVE",
"546 271 CURVE SMOOTH",
"546 429 OFFCURVE",
"462 522 OFFCURVE",
"333 522 CURVE SMOOTH",
"257 522 OFFCURVE",
"191 490 OFFCURVE",
"154 434 CURVE",
"154 446 LINE SMOOTH",
"154 491 OFFCURVE",
"128 518 OFFCURVE",
"76 518 CURVE",
"76 -160 LINE"
);
},
{
closed = 1;
nodes = (
"212 60 OFFCURVE",
"156 111 OFFCURVE",
"156 204 CURVE SMOOTH",
"156 256 LINE SMOOTH",
"156 382 OFFCURVE",
"226 452 OFFCURVE",
"328 452 CURVE SMOOTH",
"418 452 OFFCURVE",
"462 398 OFFCURVE",
"462 276 CURVE SMOOTH",
"462 137 OFFCURVE",
"405 60 OFFCURVE",
"299 60 CURVE SMOOTH"
);
}
);
width = 592;
}
);
note = p;
unicode = 0070;
},
{
glyphname = q;
lastChange = "2018-02-27 10:25:03 +0000";
layers = (
{
anchors = (
{
name = bottom;
position = "{294, 0}";
},
{
name = top;
position = "{294, 510}";
}
);
layerId = "0B1DFD06-3317-40CA-B510-4969A0718C16";
paths = (
{
closed = 1;
nodes = (
"516 -160 LINE",
"516 330 LINE SMOOTH",
"516 447 OFFCURVE",
"426 522 OFFCURVE",
"302 522 CURVE SMOOTH",
"144 522 OFFCURVE",
"46 401 OFFCURVE",
"46 233 CURVE SMOOTH",
"46 72 OFFCURVE",
"136 -12 OFFCURVE",
"256 -12 CURVE SMOOTH",
"337 -12 OFFCURVE",
"401 26 OFFCURVE",
"434 75 CURVE",
"434 -160 LINE"
);
},
{
closed = 1;
nodes = (
"183 59 OFFCURVE",
"130 106 OFFCURVE",
"130 232 CURVE SMOOTH",
"130 367 OFFCURVE",
"190 451 OFFCURVE",
"297 451 CURVE SMOOTH",
"379 451 OFFCURVE",
"436 402 OFFCURVE",
"436 314 CURVE SMOOTH",
"436 255 LINE SMOOTH",
"436 147 OFFCURVE",
"370 59 OFFCURVE",
"262 59 CURVE SMOOTH"
);
}
);
width = 588;
}
);
note = q;
unicode = 0071;
},
{
glyphname = r;
lastChange = "2018-02-27 12:39:12 +0000";
layers = (
{
anchors = (
{
name = bottom;
position = "{115, 0}";
},
{
name = top;
position = "{179, 510}";
}
);
layerId = "0B1DFD06-3317-40CA-B510-4969A0718C16";
paths = (
{
closed = 1;
nodes = (
"158 0 LINE",
"158 148 LINE SMOOTH",
"158 354 OFFCURVE",
"218 430 OFFCURVE",
"308 430 CURVE SMOOTH",
"323 430 OFFCURVE",
"332 428 OFFCURVE",
"338 425 CURVE",
"350 434 OFFCURVE",
"358 447 OFFCURVE",
"358 469 CURVE SMOOTH",
"358 500 OFFCURVE",
"342 519 OFFCURVE",
"302 519 CURVE SMOOTH",
"241 519 OFFCURVE",
"185 473 OFFCURVE",
"156 405 CURVE",
"156 438 LINE SMOOTH",
"156 483 OFFCURVE",
"128 510 OFFCURVE",
"76 510 CURVE",
"76 0 LINE"
);
}
);
width = 358;
}
);
note = r;
unicode = 0072;
},
{
glyphname = s;
lastChange = "2018-02-27 10:25:09 +0000";
layers = (
{
anchors = (
{
name = bottom;
position = "{247, 0}";
},
{
name = top;
position = "{247, 510}";
}
);
layerId = "0B1DFD06-3317-40CA-B510-4969A0718C16";
paths = (
{
closed = 1;
nodes = (
"362 -10 OFFCURVE",
"454 35 OFFCURVE",
"454 147 CURVE SMOOTH",
"454 233 OFFCURVE",
"400 256 OFFCURVE",
"266 294 CURVE SMOOTH",
"162 323 OFFCURVE",
"126 334 OFFCURVE",
"126 379 CURVE SMOOTH",
"126 429 OFFCURVE",
"172 451 OFFCURVE",
"231 451 CURVE SMOOTH",
"299 451 OFFCURVE",
"373 421 OFFCURVE",
"402 379 CURVE",
"426 386 OFFCURVE",
"433 405 OFFCURVE",
"433 420 CURVE SMOOTH",
"433 483 OFFCURVE",
"317 521 OFFCURVE",
"228 521 CURVE SMOOTH",
"134 521 OFFCURVE",
"47 478 OFFCURVE",
"47 372 CURVE SMOOTH",
"47 284 OFFCURVE",
"107 263 OFFCURVE",
"237 229 CURVE SMOOTH",
"334 204 OFFCURVE",
"373 192 OFFCURVE",
"373 143 CURVE SMOOTH",
"373 87 OFFCURVE",
"322 57 OFFCURVE",
"259 57 CURVE SMOOTH",
"184 57 OFFCURVE",
"108 99 OFFCURVE",
"79 140 CURVE",
"55 132 OFFCURVE",
"46 114 OFFCURVE",
"46 96 CURVE SMOOTH",
"46 30 OFFCURVE",
"169 -10 OFFCURVE",
"263 -10 CURVE SMOOTH"
);
}
);
width = 494;
}
);
note = s;
unicode = 0073;
},
{
glyphname = t;
lastChange = "2018-02-27 12:32:28 +0000";
layers = (
{
anchors = (
{
name = bottom;
position = "{232, 0}";
},
{
name = center;
position = "{164, 255}";
},
{
name = top;
position = "{134, 654}";
},
{
name = topright;
position = "{308, 510}";
}
);
layerId = "0B1DFD06-3317-40CA-B510-4969A0718C16";
paths = (
{
closed = 1;
nodes = (
"281 -8 OFFCURVE",
"316 11 OFFCURVE",
"316 42 CURVE SMOOTH",
"316 58 OFFCURVE",
"307 72 OFFCURVE",
"293 77 CURVE",
"275 70 OFFCURVE",
"255 67 OFFCURVE",
"241 67 CURVE SMOOTH",
"199 67 OFFCURVE",
"180 96 OFFCURVE",
"180 148 CURVE SMOOTH",
"180 446 LINE",
"304 446 LINE",
"304 510 LINE",
"180 510 LINE",
"180 583 LINE SMOOTH",
"180 628 OFFCURVE",
"150 655 OFFCURVE",
"98 655 CURVE",
"98 510 LINE",
"20 490 LINE",
"20 446 LINE",
"98 446 LINE",
"98 148 LINE SMOOTH",
"98 53 OFFCURVE",
"147 -8 OFFCURVE",
"233 -8 CURVE SMOOTH"
);
}
);
width = 328;
}
);
note = t;
unicode = 0074;
},
{
glyphname = u;
lastChange = "2018-02-27 12:37:27 +0000";
layers = (
{
anchors = (
{
name = bottom;
position = "{287, 0}";
},
{
name = ogonek;
position = "{475, 10}";
},
{
name = top;
position = "{287, 510}";
},
{
name = topright;
position = "{554, 510}";
}
);
layerId = "0B1DFD06-3317-40CA-B510-4969A0718C16";
paths = (
{
closed = 1;
nodes = (
"339 -12 OFFCURVE",
"388 29 OFFCURVE",
"418 82 CURVE",
"418 14 OFFCURVE",
"431 -8 OFFCURVE",
"471 -8 CURVE SMOOTH",
"488 -8 OFFCURVE",
"501 -4 OFFCURVE",
"514 7 CURVE",
"502 19 OFFCURVE",
"498 38 OFFCURVE",
"498 82 CURVE SMOOTH",
"498 510 LINE",
"416 510 LINE",
"416 311 LINE SMOOTH",
"416 129 OFFCURVE",
"363 63 OFFCURVE",
"276 63 CURVE SMOOTH",
"200 63 OFFCURVE",
"154 113 OFFCURVE",
"154 194 CURVE SMOOTH",
"154 446 LINE SMOOTH",
"154 491 OFFCURVE",
"124 518 OFFCURVE",
"72 518 CURVE",
"72 198 LINE SMOOTH",
"72 59 OFFCURVE",
"151 -12 OFFCURVE",
"258 -12 CURVE SMOOTH"
);
}
);
width = 574;
}
);
note = u;
unicode = 0075;
},
{
glyphname = v;
lastChange = "2018-02-27 10:25:18 +0000";
layers = (
{
anchors = (
{
name = bottom;
position = "{257, 0}";
},
{
name = top;
position = "{257, 510}";
}
);
layerId = "0B1DFD06-3317-40CA-B510-4969A0718C16";
paths = (
{
closed = 1;
nodes = (
"298 0 LINE",
"483 478 LINE SMOOTH",
"488 492 OFFCURVE",
"496 504 OFFCURVE",
"504 511 CURVE",
"489 516 OFFCURVE",
"474 518 OFFCURVE",
"462 518 CURVE SMOOTH",
"429 518 OFFCURVE",
"405 502 OFFCURVE",
"394 473 CURVE SMOOTH",
"257 101 LINE",
"124 465 LINE SMOOTH",
"112 498 OFFCURVE",
"95 515 OFFCURVE",
"55 515 CURVE SMOOTH",
"44 515 OFFCURVE",
"30 513 OFFCURVE",
"18 510 CURVE",
"216 0 LINE"
);
}
);
width = 514;
}
);
note = v;
unicode = 0076;
},
{
glyphname = w;
lastChange = "2018-02-27 10:25:21 +0000";
layers = (
{
anchors = (
{
name = bottom;
position = "{398, 0}";
},
{
name = top;
position = "{398, 510}";
}
);
layerId = "0B1DFD06-3317-40CA-B510-4969A0718C16";
paths = (
{
closed = 1;
nodes = (
"280 0 LINE",
"397 397 LINE",
"399 397 LINE",
"516 0 LINE",
"600 0 LINE",
"756 478 LINE SMOOTH",
"760 490 OFFCURVE",
"768 504 OFFCURVE",
"776 511 CURVE",
"761 516 OFFCURVE",
"746 518 OFFCURVE",
"735 518 CURVE SMOOTH",
"702 518 OFFCURVE",
"678 502 OFFCURVE",
"668 467 CURVE SMOOTH",
"559 100 LINE",
"435 510 LINE",
"361 510 LINE",
"237 100 LINE",
"129 467 LINE",
"119 501 OFFCURVE",
"99 515 OFFCURVE",
"66 515 CURVE SMOOTH",
"54 515 OFFCURVE",
"41 513 OFFCURVE",
"30 510 CURVE",
"196 0 LINE"
);
}
);
width = 796;
}
);
note = w;
unicode = 0077;
},
{
glyphname = x;
lastChange = "2018-02-27 10:25:24 +0000";
layers = (
{
anchors = (
{
name = bottom;
position = "{255, 0}";
},
{
name = top;
position = "{255, 510}";
}
);
layerId = "0B1DFD06-3317-40CA-B510-4969A0718C16";
paths = (
{
closed = 1;
nodes = (
"457 -5 OFFCURVE",
"474 -3 OFFCURVE",
"488 6 CURVE",
"481 11 OFFCURVE",
"471 21 OFFCURVE",
"466 28 CURVE SMOOTH",
"300 259 LINE",
"479 510 LINE",
"386 510 LINE",
"254 321 LINE",
"140 486 LINE SMOOTH",
"124 509 OFFCURVE",
"101 518 OFFCURVE",
"74 518 CURVE SMOOTH",
"59 518 OFFCURVE",
"44 515 OFFCURVE",
"31 510 CURVE",
"209 260 LINE",
"24 0 LINE",
"117 0 LINE",
"255 199 LINE",
"373 30 LINE SMOOTH",
"389 7 OFFCURVE",
"416 -5 OFFCURVE",
"445 -5 CURVE SMOOTH"
);
}
);
width = 510;
}
);
note = x;
unicode = 0078;
},
{
glyphname = y;
lastChange = "2018-02-27 12:37:39 +0000";
layers = (
{
anchors = (
{
name = bottom;
position = "{139, -160}";
},
{
name = top;
position = "{257, 510}";
}
);
layerId = "0B1DFD06-3317-40CA-B510-4969A0718C16";
paths = (
{
closed = 1;
nodes = (
"230 -168 OFFCURVE",
"259 -120 OFFCURVE",
"285 -50 CURVE SMOOTH",
"496 510 LINE",
"406 510 LINE",
"264 104 LINE",
"125 465 LINE SMOOTH",
"112 500 OFFCURVE",
"93 515 OFFCURVE",
"56 515 CURVE SMOOTH",
"43 515 OFFCURVE",
"30 513 OFFCURVE",
"18 510 CURVE",
"224 5 LINE",
"213 -26 LINE SMOOTH",
"197 -73 OFFCURVE",
"178 -95 OFFCURVE",
"131 -95 CURVE SMOOTH",
"108 -95 OFFCURVE",
"91 -90 OFFCURVE",
"73 -83 CURVE",
"59 -88 OFFCURVE",
"50 -102 OFFCURVE",
"50 -118 CURVE SMOOTH",
"50 -149 OFFCURVE",
"82 -168 OFFCURVE",
"139 -168 CURVE SMOOTH"
);
}
);
width = 514;
}
);
note = y;
unicode = 0079;
},
{
glyphname = z;
lastChange = "2018-02-27 10:25:31 +0000";
layers = (
{
anchors = (
{
name = bottom;
position = "{252, 0}";
},
{
name = top;
position = "{252, 510}";
}
);
layerId = "0B1DFD06-3317-40CA-B510-4969A0718C16";
paths = (
{
closed = 1;
nodes = (
"393 0 LINE SMOOTH",
"438 0 OFFCURVE",
"457 13 OFFCURVE",
"457 47 CURVE SMOOTH",
"457 63 OFFCURVE",
"453 73 OFFCURVE",
"444 85 CURVE",
"434 74 OFFCURVE",
"417 71 OFFCURVE",
"379 71 CURVE SMOOTH",
"145 71 LINE",
"441 443 LINE",
"441 510 LINE",
"62 510 LINE",
"62 465 OFFCURVE",
"85 439 OFFCURVE",
"124 439 CURVE SMOOTH",
"345 439 LINE",
"48 67 LINE",
"48 0 LINE"
);
}
);
width = 503;
}
);
note = z;
unicode = 007A;
},
{
glyphname = AE;
lastChange = "2018-02-27 10:20:05 +0000";
layers = (
{
layerId = "0B1DFD06-3317-40CA-B510-4969A0718C16";
paths = (
{
closed = 1;
nodes = (
"100 -8 OFFCURVE",
"118 10 OFFCURVE",
"131 44 CURVE SMOOTH",
"188 190 LINE",
"403 190 LINE",
"403 0 LINE",
"798 0 LINE SMOOTH",
"850 0 OFFCURVE",
"872 14 OFFCURVE",
"872 53 CURVE SMOOTH",
"872 73 OFFCURVE",
"868 84 OFFCURVE",
"857 99 CURVE",
"846 86 OFFCURVE",
"826 82 OFFCURVE",
"782 82 CURVE SMOOTH",
"490 82 LINE",
"490 316 LINE",
"796 316 LINE",
"796 398 LINE",
"490 398 LINE",
"490 618 LINE",
"854 618 LINE",
"854 700 LINE",
"302 700 LINE",
"20 -3 LINE",
"33 -6 OFFCURVE",
"47 -8 OFFCURVE",
"59 -8 CURVE SMOOTH"
);
},
{
closed = 1;
nodes = (
"357 618 LINE",
"403 618 LINE",
"403 269 LINE",
"220 269 LINE"
);
}
);
width = 912;
}
);
leftMetricsKey = A;
note = AE;
rightMetricsKey = E;
unicode = 00C6;
},
{
glyphname = Eth;
lastChange = "2018-02-27 08:55:52 +0000";
layers = (
{
components = (
{
name = D;
}
);
layerId = "0B1DFD06-3317-40CA-B510-4969A0718C16";
paths = (
{
closed = 1;
nodes = (
"350 320 LINE",
"350 380 LINE",
"0 380 LINE",
"0 320 LINE"
);
}
);
width = 691;
}
);
note = Eth;
unicode = 00D0;
},
{
glyphname = Eacute;
lastChange = "2018-02-27 12:29:42 +0000";
layers = (
{
background = {
paths = (
{
closed = 1;
nodes = (
"554 0 LINE",
"571 179 LINE",
"544 179 LINE",
"538 124 OFFCURVE",
"520 40 OFFCURVE",
"456 40 CURVE SMOOTH",
"201 40 LINE",
"201 659 LINE",
"441 659 LINE SMOOTH",
"516 659 OFFCURVE",
"525 567 OFFCURVE",
"528 527 CURVE",
"555 527 LINE",
"555 700 LINE",
"16 700 LINE",
"16 673 LINE",
"44 673 LINE SMOOTH",
"83 673 OFFCURVE",
"103 662 OFFCURVE",
"103 637 CURVE SMOOTH",
"103 62 LINE SMOOTH",
"103 37 OFFCURVE",
"83 26 OFFCURVE",
"44 26 CURVE SMOOTH",
"16 26 LINE",
"16 0 LINE"
);
},
{
closed = 1;
nodes = (
"455 251 LINE",
"455 485 LINE",
"431 485 LINE",
"427 436 OFFCURVE",
"424 388 OFFCURVE",
"379 388 CURVE SMOOTH",
"162 388 LINE",
"162 348 LINE",
"379 348 LINE SMOOTH",
"424 348 OFFCURVE",
"427 300 OFFCURVE",
"431 251 CURVE"
);
},
{
closed = 1;
nodes = (
"398 865 LINE SMOOTH",
"420 877 OFFCURVE",
"432 890 OFFCURVE",
"432 907 CURVE SMOOTH",
"432 922 OFFCURVE",
"420 937 OFFCURVE",
"398 937 CURVE SMOOTH",
"377 937 OFFCURVE",
"362 921 OFFCURVE",
"354 914 CURVE SMOOTH",
"239 807 LINE",
"256 782 LINE"
);
}
);
};
components = (
{
name = E;
},
{
name = acutecomb;
transform = "{1, 0, 0, 1, 197, 190}";
}
);
layerId = "0B1DFD06-3317-40CA-B510-4969A0718C16";
width = 592;
}
);
note = Eacute;
unicode = 00C9;
},
{
glyphname = Ebreve;
lastChange = "2018-02-27 12:29:42 +0000";
layers = (
{
background = {
paths = (
{
closed = 1;
nodes = (
"554 0 LINE",
"571 179 LINE",
"544 179 LINE",
"538 124 OFFCURVE",
"520 40 OFFCURVE",
"456 40 CURVE SMOOTH",
"201 40 LINE",
"201 659 LINE",
"441 659 LINE SMOOTH",
"516 659 OFFCURVE",
"525 567 OFFCURVE",
"528 527 CURVE",
"555 527 LINE",
"555 700 LINE",
"16 700 LINE",
"16 673 LINE",
"44 673 LINE SMOOTH",
"83 673 OFFCURVE",
"103 662 OFFCURVE",
"103 637 CURVE SMOOTH",
"103 62 LINE SMOOTH",
"103 37 OFFCURVE",
"83 26 OFFCURVE",
"44 26 CURVE SMOOTH",
"16 26 LINE",
"16 0 LINE"
);
},
{
closed = 1;
nodes = (
"455 251 LINE",
"455 485 LINE",
"431 485 LINE",
"427 436 OFFCURVE",
"424 388 OFFCURVE",
"379 388 CURVE SMOOTH",
"162 388 LINE",
"162 348 LINE",
"379 348 LINE SMOOTH",
"424 348 OFFCURVE",
"427 300 OFFCURVE",
"431 251 CURVE"
);
},
{
closed = 1;
nodes = (
"432 776 OFFCURVE",
"474 832 OFFCURVE",
"478 907 CURVE",
"445 907 LINE",
"439 848 OFFCURVE",
"397 822 OFFCURVE",
"333 822 CURVE SMOOTH",
"269 822 OFFCURVE",
"226 848 OFFCURVE",
"219 907 CURVE",
"186 907 LINE",
"190 829 OFFCURVE",
"232 776 OFFCURVE",
"333 776 CURVE SMOOTH"
);
}
);
};
components = (
{
name = E;
},
{
name = brevecomb;
transform = "{1, 0, 0, 1, 119, 190}";
}
);
layerId = "0B1DFD06-3317-40CA-B510-4969A0718C16";
width = 592;
}
);
note = Ebreve;
unicode = 0114;
},
{
glyphname = Ecaron;
lastChange = "2018-02-27 12:29:42 +0000";
layers = (
{
background = {
paths = (
{
closed = 1;
nodes = (
"554 0 LINE",
"571 179 LINE",
"544 179 LINE",
"538 124 OFFCURVE",
"520 40 OFFCURVE",
"456 40 CURVE SMOOTH",
"201 40 LINE",
"201 659 LINE",
"441 659 LINE SMOOTH",
"516 659 OFFCURVE",
"525 567 OFFCURVE",
"528 527 CURVE",
"555 527 LINE",
"555 700 LINE",
"16 700 LINE",
"16 673 LINE",
"44 673 LINE SMOOTH",
"83 673 OFFCURVE",
"103 662 OFFCURVE",
"103 637 CURVE SMOOTH",
"103 62 LINE SMOOTH",
"103 37 OFFCURVE",
"83 26 OFFCURVE",
"44 26 CURVE SMOOTH",
"16 26 LINE",
"16 0 LINE"
);
},
{
closed = 1;
nodes = (
"455 251 LINE",
"455 485 LINE",
"431 485 LINE",
"427 436 OFFCURVE",
"424 388 OFFCURVE",
"379 388 CURVE SMOOTH",
"162 388 LINE",
"162 348 LINE",
"379 348 LINE SMOOTH",
"424 348 OFFCURVE",
"427 300 OFFCURVE",
"431 251 CURVE"
);
},
{
closed = 1;
nodes = (
"357 782 LINE",
"481 911 LINE",
"462 932 LINE",
"354 847 LINE",
"346 840 OFFCURVE",
"337 836 OFFCURVE",
"331 836 CURVE SMOOTH",
"325 836 OFFCURVE",
"317 840 OFFCURVE",
"307 847 CURVE",
"199 932 LINE",
"180 911 LINE",
"304 782 LINE"
);
}
);
};
components = (
{
name = E;
},
{
name = caroncomb;
transform = "{1, 0, 0, 1, 116, 190}";
}
);
layerId = "0B1DFD06-3317-40CA-B510-4969A0718C16";
width = 592;
}
);
note = Ecaron;
unicode = 011A;
},
{
glyphname = Ecircumflex;
lastChange = "2018-02-27 12:29:42 +0000";
layers = (
{
background = {
paths = (
{
closed = 1;
nodes = (
"554 0 LINE",
"571 179 LINE",
"544 179 LINE",
"538 124 OFFCURVE",
"520 40 OFFCURVE",
"456 40 CURVE SMOOTH",
"201 40 LINE",
"201 659 LINE",
"441 659 LINE SMOOTH",
"516 659 OFFCURVE",
"525 567 OFFCURVE",
"528 527 CURVE",
"555 527 LINE",
"555 700 LINE",
"16 700 LINE",
"16 673 LINE",
"44 673 LINE SMOOTH",
"83 673 OFFCURVE",
"103 662 OFFCURVE",
"103 637 CURVE SMOOTH",
"103 62 LINE SMOOTH",
"103 37 OFFCURVE",
"83 26 OFFCURVE",
"44 26 CURVE SMOOTH",
"16 26 LINE",
"16 0 LINE"
);
},
{
closed = 1;
nodes = (
"455 251 LINE",
"455 485 LINE",
"431 485 LINE",
"427 436 OFFCURVE",
"424 388 OFFCURVE",
"379 388 CURVE SMOOTH",
"162 388 LINE",
"162 348 LINE",
"379 348 LINE SMOOTH",
"424 348 OFFCURVE",
"427 300 OFFCURVE",
"431 251 CURVE"
);
},
{
closed = 1;
nodes = (
"304 868 LINE SMOOTH",
"312 874 OFFCURVE",
"322 879 OFFCURVE",
"328 879 CURVE SMOOTH",
"334 879 OFFCURVE",
"342 874 OFFCURVE",
"351 868 CURVE",
"459 782 LINE",
"478 803 LINE",
"354 932 LINE",
"301 932 LINE",
"177 803 LINE",
"196 782 LINE"
);
}
);
};
components = (
{
name = E;
},
{
name = circumflexcomb;
transform = "{1, 0, 0, 1, 116, 190}";
}
);
layerId = "0B1DFD06-3317-40CA-B510-4969A0718C16";
width = 592;
}
);
note = Ecircumflex;
unicode = 00CA;
},
{
glyphname = Ecircumflexacute;
lastChange = "2018-02-27 12:29:42 +0000";
layers = (
{
background = {
paths = (
{
closed = 1;
nodes = (
"554 0 LINE",
"571 179 LINE",
"544 179 LINE",
"538 124 OFFCURVE",
"520 40 OFFCURVE",
"456 40 CURVE SMOOTH",
"201 40 LINE",
"201 659 LINE",
"441 659 LINE SMOOTH",
"516 659 OFFCURVE",
"525 567 OFFCURVE",
"528 527 CURVE",
"555 527 LINE",
"555 700 LINE",
"16 700 LINE",
"16 673 LINE",
"44 673 LINE SMOOTH",
"83 673 OFFCURVE",
"103 662 OFFCURVE",
"103 637 CURVE SMOOTH",
"103 62 LINE SMOOTH",
"103 37 OFFCURVE",
"83 26 OFFCURVE",
"44 26 CURVE SMOOTH",
"16 26 LINE",
"16 0 LINE"
);
},
{
closed = 1;
nodes = (
"455 251 LINE",
"455 485 LINE",
"431 485 LINE",
"427 436 OFFCURVE",
"424 388 OFFCURVE",
"379 388 CURVE SMOOTH",
"162 388 LINE",
"162 348 LINE",
"379 348 LINE SMOOTH",
"424 348 OFFCURVE",
"427 300 OFFCURVE",
"431 251 CURVE"
);
},
{
closed = 1;
nodes = (
"290 862 LINE SMOOTH",
"300 870 OFFCURVE",
"310 878 OFFCURVE",
"318 878 CURVE SMOOTH",
"324 878 OFFCURVE",
"332 873 OFFCURVE",
"341 867 CURVE",
"447 781 LINE",
"466 803 LINE",
"344 932 LINE",
"293 932 LINE",
"171 803 LINE",
"189 781 LINE"
);
},
{
closed = 1;
nodes = (
"555 960 LINE SMOOTH",
"578 972 OFFCURVE",
"591 988 OFFCURVE",
"591 1003 CURVE SMOOTH",
"591 1017 OFFCURVE",
"580 1034 OFFCURVE",
"557 1034 CURVE SMOOTH",
"538 1034 OFFCURVE",
"521 1018 OFFCURVE",
"511 1008 CURVE SMOOTH",
"415 915 LINE",
"433 893 LINE"
);
}
);
};
components = (
{
name = E;
},
{
name = circumflexcomb;
transform = "{1, 0, 0, 1, 116, 190}";
},
{
name = acutecomb;
transform = "{1, 0, 0, 1, 197, 391}";
}
);
layerId = "0B1DFD06-3317-40CA-B510-4969A0718C16";
width = 592;
}
);
note = Ecircumflexacute;
unicode = 1EBE;
},
{
glyphname = Ecircumflexdotbelow;
lastChange = "2018-02-27 12:29:42 +0000";
layers = (
{
background = {
paths = (
{
closed = 1;
nodes = (
"554 0 LINE",
"571 179 LINE",
"544 179 LINE",
"538 124 OFFCURVE",
"520 40 OFFCURVE",
"456 40 CURVE SMOOTH",
"201 40 LINE",
"201 659 LINE",
"441 659 LINE SMOOTH",
"516 659 OFFCURVE",
"525 567 OFFCURVE",
"528 527 CURVE",
"555 527 LINE",
"555 700 LINE",
"16 700 LINE",
"16 673 LINE",
"44 673 LINE SMOOTH",
"83 673 OFFCURVE",
"103 662 OFFCURVE",
"103 637 CURVE SMOOTH",
"103 62 LINE SMOOTH",
"103 37 OFFCURVE",
"83 26 OFFCURVE",
"44 26 CURVE SMOOTH",
"16 26 LINE",
"16 0 LINE"
);
},
{
closed = 1;
nodes = (
"350 -159 OFFCURVE",
"368 -140 OFFCURVE",
"368 -112 CURVE SMOOTH",
"368 -84 OFFCURVE",
"350 -64 OFFCURVE",
"322 -64 CURVE SMOOTH",
"294 -64 OFFCURVE",
"275 -84 OFFCURVE",
"275 -112 CURVE SMOOTH",
"275 -140 OFFCURVE",
"294 -159 OFFCURVE",
"322 -159 CURVE SMOOTH"
);
},
{
closed = 1;
nodes = (
"455 251 LINE",
"455 485 LINE",
"431 485 LINE",
"427 436 OFFCURVE",
"424 388 OFFCURVE",
"379 388 CURVE SMOOTH",
"162 388 LINE",
"162 348 LINE",
"379 348 LINE SMOOTH",
"424 348 OFFCURVE",
"427 300 OFFCURVE",
"431 251 CURVE"
);
},
{
closed = 1;
nodes = (
"294 868 LINE SMOOTH",
"302 874 OFFCURVE",
"312 879 OFFCURVE",
"318 879 CURVE SMOOTH",
"324 879 OFFCURVE",
"332 874 OFFCURVE",
"341 868 CURVE",
"449 782 LINE",
"468 803 LINE",
"344 932 LINE",
"291 932 LINE",
"167 803 LINE",
"186 782 LINE"
);
}
);
};
components = (
{
name = E;
},
{
name = dotbelowcomb;
transform = "{1, 0, 0, 1, 219, 0}";
},
{
name = circumflexcomb;
transform = "{1, 0, 0, 1, 116, 190}";
}
);
layerId = "0B1DFD06-3317-40CA-B510-4969A0718C16";
width = 592;
}
);
note = Ecircumflexdotbelow;
unicode = 1EC6;
},
{
glyphname = Ecircumflexgrave;
lastChange = "2018-02-27 12:29:42 +0000";
layers = (
{
background = {
paths = (
{
closed = 1;
nodes = (
"554 0 LINE",
"571 179 LINE",
"544 179 LINE",
"538 124 OFFCURVE",
"520 40 OFFCURVE",
"456 40 CURVE SMOOTH",
"201 40 LINE",
"201 659 LINE",
"441 659 LINE SMOOTH",
"516 659 OFFCURVE",
"525 567 OFFCURVE",
"528 527 CURVE",
"555 527 LINE",
"555 700 LINE",
"16 700 LINE",
"16 673 LINE",
"44 673 LINE SMOOTH",
"83 673 OFFCURVE",
"103 662 OFFCURVE",
"103 637 CURVE SMOOTH",
"103 62 LINE SMOOTH",
"103 37 OFFCURVE",
"83 26 OFFCURVE",
"44 26 CURVE SMOOTH",
"16 26 LINE",
"16 0 LINE"
);
},
{
closed = 1;
nodes = (
"455 251 LINE",
"455 485 LINE",
"431 485 LINE",
"427 436 OFFCURVE",
"424 388 OFFCURVE",
"379 388 CURVE SMOOTH",
"162 388 LINE",
"162 348 LINE",
"379 348 LINE SMOOTH",
"424 348 OFFCURVE",
"427 300 OFFCURVE",
"431 251 CURVE"
);
},
{
closed = 1;
nodes = (
"227 915 LINE",
"132 1008 LINE SMOOTH",
"122 1018 OFFCURVE",
"105 1034 OFFCURVE",
"85 1034 CURVE SMOOTH",
"63 1034 OFFCURVE",
"52 1017 OFFCURVE",
"52 1003 CURVE SMOOTH",
"52 988 OFFCURVE",
"65 972 OFFCURVE",
"88 960 CURVE SMOOTH",
"210 893 LINE"
);
},
{
closed = 1;
nodes = (
"290 862 LINE SMOOTH",
"300 870 OFFCURVE",
"310 878 OFFCURVE",
"318 878 CURVE SMOOTH",
"324 878 OFFCURVE",
"332 873 OFFCURVE",
"341 867 CURVE",
"447 781 LINE",
"466 803 LINE",
"344 932 LINE",
"293 932 LINE",
"171 803 LINE",
"189 781 LINE"
);
}
);
};
components = (
{
name = E;
},
{
name = circumflexcomb;
transform = "{1, 0, 0, 1, 116, 190}";
},
{
name = gravecomb;
transform = "{1, 0, 0, 1, 145, 391}";
}
);
layerId = "0B1DFD06-3317-40CA-B510-4969A0718C16";
width = 592;
}
);
note = Ecircumflexgrave;
unicode = 1EC0;
},
{
glyphname = Ecircumflexhookabove;
lastChange = "2018-02-27 12:29:42 +0000";
layers = (
{
background = {
paths = (
{
closed = 1;
nodes = (
"554 0 LINE",
"571 179 LINE",
"544 179 LINE",
"538 124 OFFCURVE",
"520 40 OFFCURVE",
"456 40 CURVE SMOOTH",
"201 40 LINE",
"201 659 LINE",
"441 659 LINE SMOOTH",
"516 659 OFFCURVE",
"525 567 OFFCURVE",
"528 527 CURVE",
"555 527 LINE",
"555 700 LINE",
"16 700 LINE",
"16 673 LINE",
"44 673 LINE SMOOTH",
"83 673 OFFCURVE",
"103 662 OFFCURVE",
"103 637 CURVE SMOOTH",
"103 62 LINE SMOOTH",
"103 37 OFFCURVE",
"83 26 OFFCURVE",
"44 26 CURVE SMOOTH",
"16 26 LINE",
"16 0 LINE"
);
},
{
closed = 1;
nodes = (
"455 251 LINE",
"455 485 LINE",
"431 485 LINE",
"427 436 OFFCURVE",
"424 388 OFFCURVE",
"379 388 CURVE SMOOTH",
"162 388 LINE",
"162 348 LINE",
"379 348 LINE SMOOTH",
"424 348 OFFCURVE",
"427 300 OFFCURVE",
"431 251 CURVE"
);
},
{
closed = 1;
nodes = (
"286 858 LINE",
"297 868 OFFCURVE",
"309 878 OFFCURVE",
"318 878 CURVE SMOOTH",
"324 878 OFFCURVE",
"332 873 OFFCURVE",
"341 867 CURVE",
"447 781 LINE",
"466 803 LINE",
"344 932 LINE",
"293 932 LINE",
"171 803 LINE",
"189 781 LINE"
);
},
{
closed = 1;
nodes = (
"493 898 LINE",
"474 905 OFFCURVE",
"464 912 OFFCURVE",
"464 926 CURVE SMOOTH",
"464 954 OFFCURVE",
"544 965 OFFCURVE",
"544 1010 CURVE SMOOTH",
"544 1047 OFFCURVE",
"502 1063 OFFCURVE",
"460 1063 CURVE SMOOTH",
"429 1063 OFFCURVE",
"384 1053 OFFCURVE",
"384 1022 CURVE SMOOTH",
"384 1010 OFFCURVE",
"395 1001 OFFCURVE",
"405 1001 CURVE SMOOTH",
"434 1001 OFFCURVE",
"421 1040 OFFCURVE",
"464 1040 CURVE SMOOTH",
"483 1040 OFFCURVE",
"494 1028 OFFCURVE",
"494 1013 CURVE SMOOTH",
"494 973 OFFCURVE",
"421 965 OFFCURVE",
"421 925 CURVE SMOOTH",
"421 901 OFFCURVE",
"437 880 OFFCURVE",
"484 880 CURVE"
);
}
);
};
components = (
{
name = E;
},
{
name = circumflexcomb;
transform = "{1, 0, 0, 1, 116, 190}";
},
{
name = hookabovecomb;
transform = "{1, 0, 0, 1, 226, 391}";
}
);
layerId = "0B1DFD06-3317-40CA-B510-4969A0718C16";
width = 592;
}
);
note = Ecircumflexhookabove;
unicode = 1EC2;
},
{
glyphname = Ecircumflextilde;
lastChange = "2018-02-27 12:29:42 +0000";
layers = (
{
background = {
paths = (
{
closed = 1;
nodes = (
"554 0 LINE",
"571 179 LINE",
"544 179 LINE",
"538 124 OFFCURVE",
"520 40 OFFCURVE",
"456 40 CURVE SMOOTH",
"201 40 LINE",
"201 659 LINE",
"441 659 LINE SMOOTH",
"516 659 OFFCURVE",
"525 567 OFFCURVE",
"528 527 CURVE",
"555 527 LINE",
"555 700 LINE",
"16 700 LINE",
"16 673 LINE",
"44 673 LINE SMOOTH",
"83 673 OFFCURVE",
"103 662 OFFCURVE",
"103 637 CURVE SMOOTH",
"103 62 LINE SMOOTH",
"103 37 OFFCURVE",
"83 26 OFFCURVE",
"44 26 CURVE SMOOTH",
"16 26 LINE",
"16 0 LINE"
);
},
{
closed = 1;
nodes = (
"455 251 LINE",
"455 485 LINE",
"431 485 LINE",
"427 436 OFFCURVE",
"424 388 OFFCURVE",
"379 388 CURVE SMOOTH",
"162 388 LINE",
"162 348 LINE",
"379 348 LINE SMOOTH",
"424 348 OFFCURVE",
"427 300 OFFCURVE",
"431 251 CURVE"
);
},
{
closed = 1;
nodes = (
"290 862 LINE SMOOTH",
"300 870 OFFCURVE",
"310 878 OFFCURVE",
"318 878 CURVE SMOOTH",
"324 878 OFFCURVE",
"332 873 OFFCURVE",
"341 867 CURVE",
"447 781 LINE",
"466 803 LINE",
"344 932 LINE",
"293 932 LINE",
"171 803 LINE",
"189 781 LINE"
);
},
{
closed = 1;
nodes = (
"193 997 OFFCURVE",
"211 1018 OFFCURVE",
"242 1018 CURVE SMOOTH",
"291 1018 OFFCURVE",
"338 964 OFFCURVE",
"387 964 CURVE SMOOTH",
"440 964 OFFCURVE",
"469 1012 OFFCURVE",
"481 1063 CURVE",
"460 1075 LINE",
"447 1035 OFFCURVE",
"431 1012 OFFCURVE",
"398 1012 CURVE SMOOTH",
"351 1012 OFFCURVE",
"302 1065 OFFCURVE",
"253 1065 CURVE SMOOTH",
"202 1065 OFFCURVE",
"170 1021 OFFCURVE",
"160 970 CURVE",
"180 958 LINE"
);
}
);
};
components = (
{
name = E;
},
{
name = circumflexcomb;
transform = "{1, 0, 0, 1, 116, 190}";
},
{
name = tildecomb;
transform = "{1, 0, 0, 1, 100, 391}";
}
);
layerId = "0B1DFD06-3317-40CA-B510-4969A0718C16";
width = 592;
}
);
note = Ecircumflextilde;
unicode = 1EC4;
},
{
glyphname = Edieresis;
lastChange = "2018-02-27 12:29:42 +0000";
layers = (
{
background = {
paths = (
{
closed = 1;
nodes = (
"554 0 LINE",
"571 179 LINE",
"544 179 LINE",
"538 124 OFFCURVE",
"520 40 OFFCURVE",
"456 40 CURVE SMOOTH",
"201 40 LINE",
"201 659 LINE",
"441 659 LINE SMOOTH",
"516 659 OFFCURVE",
"525 567 OFFCURVE",
"528 527 CURVE",
"555 527 LINE",
"555 700 LINE",
"16 700 LINE",
"16 673 LINE",
"44 673 LINE SMOOTH",
"83 673 OFFCURVE",
"103 662 OFFCURVE",
"103 637 CURVE SMOOTH",
"103 62 LINE SMOOTH",
"103 37 OFFCURVE",
"83 26 OFFCURVE",
"44 26 CURVE SMOOTH",
"16 26 LINE",
"16 0 LINE"
);
},
{
closed = 1;
nodes = (
"455 251 LINE",
"455 485 LINE",
"431 485 LINE",
"427 436 OFFCURVE",
"424 388 OFFCURVE",
"379 388 CURVE SMOOTH",
"162 388 LINE",
"162 348 LINE",
"379 348 LINE SMOOTH",
"424 348 OFFCURVE",
"427 300 OFFCURVE",
"431 251 CURVE"
);
},
{
closed = 1;
nodes = (
"254 781 OFFCURVE",
"272 800 OFFCURVE",
"272 827 CURVE SMOOTH",
"272 855 OFFCURVE",
"254 875 OFFCURVE",
"225 875 CURVE SMOOTH",
"197 875 OFFCURVE",
"179 855 OFFCURVE",
"179 827 CURVE SMOOTH",
"179 800 OFFCURVE",
"197 781 OFFCURVE",
"225 781 CURVE SMOOTH"
);
},
{
closed = 1;
nodes = (
"470 781 OFFCURVE",
"488 800 OFFCURVE",
"488 827 CURVE SMOOTH",
"488 855 OFFCURVE",
"470 875 OFFCURVE",
"441 875 CURVE SMOOTH",
"412 875 OFFCURVE",
"394 855 OFFCURVE",
"394 827 CURVE SMOOTH",
"394 800 OFFCURVE",
"412 781 OFFCURVE",
"441 781 CURVE SMOOTH"
);
}
);
};
components = (
{
name = E;
},
{
name = dieresiscomb;
transform = "{1, 0, 0, 1, 122, 190}";
}
);
layerId = "0B1DFD06-3317-40CA-B510-4969A0718C16";
width = 592;
}
);
note = Edieresis;
unicode = 00CB;
},
{
glyphname = Edotaccent;
lastChange = "2018-02-27 12:29:42 +0000";
layers = (
{
background = {
paths = (
{
closed = 1;
nodes = (
"554 0 LINE",
"571 179 LINE",
"544 179 LINE",
"538 124 OFFCURVE",
"520 40 OFFCURVE",
"456 40 CURVE SMOOTH",
"201 40 LINE",
"201 659 LINE",
"441 659 LINE SMOOTH",
"516 659 OFFCURVE",
"525 567 OFFCURVE",
"528 527 CURVE",
"555 527 LINE",
"555 700 LINE",
"16 700 LINE",
"16 673 LINE",
"44 673 LINE SMOOTH",
"83 673 OFFCURVE",
"103 662 OFFCURVE",
"103 637 CURVE SMOOTH",
"103 62 LINE SMOOTH",
"103 37 OFFCURVE",
"83 26 OFFCURVE",
"44 26 CURVE SMOOTH",
"16 26 LINE",
"16 0 LINE"
);
},
{
closed = 1;
nodes = (
"455 251 LINE",
"455 485 LINE",
"431 485 LINE",
"427 436 OFFCURVE",
"424 388 OFFCURVE",
"379 388 CURVE SMOOTH",
"162 388 LINE",
"162 348 LINE",
"379 348 LINE SMOOTH",
"424 348 OFFCURVE",
"427 300 OFFCURVE",
"431 251 CURVE"
);
},
{
closed = 1;
nodes = (
"362 765 OFFCURVE",
"380 784 OFFCURVE",
"380 811 CURVE SMOOTH",
"380 839 OFFCURVE",
"362 858 OFFCURVE",
"334 858 CURVE SMOOTH",
"305 858 OFFCURVE",
"287 839 OFFCURVE",
"287 811 CURVE SMOOTH",
"287 784 OFFCURVE",
"305 765 OFFCURVE",
"334 765 CURVE SMOOTH"
);
}
);
};
components = (
{
name = E;
},
{
name = dotaccentcomb;
transform = "{1, 0, 0, 1, 219, 190}";
}
);
layerId = "0B1DFD06-3317-40CA-B510-4969A0718C16";
width = 592;
}
);
note = Edotaccent;
unicode = 0116;
},
{
glyphname = Edotbelow;
lastChange = "2018-02-27 12:29:42 +0000";
layers = (
{
background = {
paths = (
{
closed = 1;
nodes = (
"554 0 LINE",
"571 179 LINE",
"544 179 LINE",
"538 124 OFFCURVE",
"520 40 OFFCURVE",
"456 40 CURVE SMOOTH",
"201 40 LINE",
"201 659 LINE",
"441 659 LINE SMOOTH",
"516 659 OFFCURVE",
"525 567 OFFCURVE",
"528 527 CURVE",
"555 527 LINE",
"555 700 LINE",
"16 700 LINE",
"16 673 LINE",
"44 673 LINE SMOOTH",
"83 673 OFFCURVE",
"103 662 OFFCURVE",
"103 637 CURVE SMOOTH",
"103 62 LINE SMOOTH",
"103 37 OFFCURVE",
"83 26 OFFCURVE",
"44 26 CURVE SMOOTH",
"16 26 LINE",
"16 0 LINE"
);
},
{
closed = 1;
nodes = (
"343 -159 OFFCURVE",
"361 -140 OFFCURVE",
"361 -112 CURVE SMOOTH",
"361 -84 OFFCURVE",
"343 -64 OFFCURVE",
"315 -64 CURVE SMOOTH",
"287 -64 OFFCURVE",
"268 -84 OFFCURVE",
"268 -112 CURVE SMOOTH",
"268 -140 OFFCURVE",
"287 -159 OFFCURVE",
"315 -159 CURVE SMOOTH"
);
},
{
closed = 1;
nodes = (
"455 251 LINE",
"455 485 LINE",
"431 485 LINE",
"427 436 OFFCURVE",
"424 388 OFFCURVE",
"379 388 CURVE SMOOTH",
"162 388 LINE",
"162 348 LINE",
"379 348 LINE SMOOTH",
"424 348 OFFCURVE",
"427 300 OFFCURVE",
"431 251 CURVE"
);
}
);
};
components = (
{
name = E;
},
{
name = dotbelowcomb;
transform = "{1, 0, 0, 1, 219, 0}";
}
);
layerId = "0B1DFD06-3317-40CA-B510-4969A0718C16";
width = 592;
}
);
note = Edotbelow;
unicode = 1EB8;
},
{
glyphname = Egrave;
lastChange = "2018-02-27 12:29:42 +0000";
layers = (
{
background = {
paths = (
{
closed = 1;
nodes = (
"554 0 LINE",
"571 179 LINE",
"544 179 LINE",
"538 124 OFFCURVE",
"520 40 OFFCURVE",
"456 40 CURVE SMOOTH",
"201 40 LINE",
"201 659 LINE",
"441 659 LINE SMOOTH",
"516 659 OFFCURVE",
"525 567 OFFCURVE",
"528 527 CURVE",
"555 527 LINE",
"555 700 LINE",
"16 700 LINE",
"16 673 LINE",
"44 673 LINE SMOOTH",
"83 673 OFFCURVE",
"103 662 OFFCURVE",
"103 637 CURVE SMOOTH",
"103 62 LINE SMOOTH",
"103 37 OFFCURVE",
"83 26 OFFCURVE",
"44 26 CURVE SMOOTH",
"16 26 LINE",
"16 0 LINE"
);
},
{
closed = 1;
nodes = (
"455 251 LINE",
"455 485 LINE",
"431 485 LINE",
"427 436 OFFCURVE",
"424 388 OFFCURVE",
"379 388 CURVE SMOOTH",
"162 388 LINE",
"162 348 LINE",
"379 348 LINE SMOOTH",
"424 348 OFFCURVE",
"427 300 OFFCURVE",
"431 251 CURVE"
);
},
{
closed = 1;
nodes = (
"425 807 LINE",
"310 913 LINE",
"301 922 OFFCURVE",
"285 937 OFFCURVE",
"265 937 CURVE SMOOTH",
"245 937 OFFCURVE",
"233 924 OFFCURVE",
"233 908 CURVE SMOOTH",
"233 890 OFFCURVE",
"245 876 OFFCURVE",
"264 865 CURVE SMOOTH",
"407 782 LINE"
);
}
);
};
components = (
{
name = E;
},
{
name = gravecomb;
transform = "{1, 0, 0, 1, 145, 190}";
}
);
layerId = "0B1DFD06-3317-40CA-B510-4969A0718C16";
width = 592;
}
);
note = Egrave;
unicode = 00C8;
},
{
glyphname = Ehookabove;
lastChange = "2018-02-27 12:29:42 +0000";
layers = (
{
background = {
paths = (
{
closed = 1;
nodes = (
"554 0 LINE",
"571 179 LINE",
"544 179 LINE",
"538 124 OFFCURVE",
"520 40 OFFCURVE",
"456 40 CURVE SMOOTH",
"201 40 LINE",
"201 659 LINE",
"441 659 LINE SMOOTH",
"516 659 OFFCURVE",
"525 567 OFFCURVE",
"528 527 CURVE",
"555 527 LINE",
"555 700 LINE",
"16 700 LINE",
"16 673 LINE",
"44 673 LINE SMOOTH",
"83 673 OFFCURVE",
"103 662 OFFCURVE",
"103 637 CURVE SMOOTH",
"103 62 LINE SMOOTH",
"103 37 OFFCURVE",
"83 26 OFFCURVE",
"44 26 CURVE SMOOTH",
"16 26 LINE",
"16 0 LINE"
);
},
{
closed = 1;
nodes = (
"455 251 LINE",
"455 485 LINE",
"431 485 LINE",
"427 436 OFFCURVE",
"424 388 OFFCURVE",
"379 388 CURVE SMOOTH",
"162 388 LINE",
"162 348 LINE",
"379 348 LINE SMOOTH",
"424 348 OFFCURVE",
"427 300 OFFCURVE",
"431 251 CURVE"
);
},
{
closed = 1;
nodes = (
"367 798 LINE",
"348 805 OFFCURVE",
"336 811 OFFCURVE",
"336 828 CURVE SMOOTH",
"336 861 OFFCURVE",
"425 876 OFFCURVE",
"425 927 CURVE SMOOTH",
"425 969 OFFCURVE",
"389 991 OFFCURVE",
"336 991 CURVE SMOOTH",
"289 991 OFFCURVE",
"248 974 OFFCURVE",
"248 940 CURVE SMOOTH",
"248 923 OFFCURVE",
"256 915 OFFCURVE",
"271 915 CURVE SMOOTH",
"294 915 OFFCURVE",
"296 934 OFFCURVE",
"299 942 CURVE SMOOTH",
"304 956 OFFCURVE",
"321 962 OFFCURVE",
"337 962 CURVE SMOOTH",
"358 962 OFFCURVE",
"371 947 OFFCURVE",
"371 930 CURVE SMOOTH",
"371 885 OFFCURVE",
"289 874 OFFCURVE",
"289 828 CURVE SMOOTH",
"289 801 OFFCURVE",
"307 778 OFFCURVE",
"358 778 CURVE"
);
}
);
};
components = (
{
name = E;
},
{
name = hookabovecomb;
transform = "{1, 0, 0, 1, 226, 190}";
}
);
layerId = "0B1DFD06-3317-40CA-B510-4969A0718C16";
width = 592;
}
);
note = Ehookabove;
unicode = 1EBA;
},
{
glyphname = Emacron;
lastChange = "2018-02-27 12:29:42 +0000";
layers = (
{
background = {
paths = (
{
closed = 1;
nodes = (
"554 0 LINE",
"571 179 LINE",
"544 179 LINE",
"538 124 OFFCURVE",
"520 40 OFFCURVE",
"456 40 CURVE SMOOTH",
"201 40 LINE",
"201 659 LINE",
"441 659 LINE SMOOTH",
"516 659 OFFCURVE",
"525 567 OFFCURVE",
"528 527 CURVE",
"555 527 LINE",
"555 700 LINE",
"16 700 LINE",
"16 673 LINE",
"44 673 LINE SMOOTH",
"83 673 OFFCURVE",
"103 662 OFFCURVE",
"103 637 CURVE SMOOTH",
"103 62 LINE SMOOTH",
"103 37 OFFCURVE",
"83 26 OFFCURVE",
"44 26 CURVE SMOOTH",
"16 26 LINE",
"16 0 LINE"
);
},
{
closed = 1;
nodes = (
"455 251 LINE",
"455 485 LINE",
"431 485 LINE",
"427 436 OFFCURVE",
"424 388 OFFCURVE",
"379 388 CURVE SMOOTH",
"162 388 LINE",
"162 348 LINE",
"379 348 LINE SMOOTH",
"424 348 OFFCURVE",
"427 300 OFFCURVE",
"431 251 CURVE"
);
},
{
closed = 1;
nodes = (
"495 782 LINE",
"495 824 LINE",
"162 824 LINE",
"162 782 LINE"
);
}
);
};
components = (
{
name = E;
},
{
name = macroncomb;
transform = "{1, 0, 0, 1, 100, 190}";
}
);
layerId = "0B1DFD06-3317-40CA-B510-4969A0718C16";
width = 592;
}
);
note = Emacron;
unicode = 0112;
},
{
glyphname = Eogonek;
lastChange = "2018-02-27 12:38:09 +0000";
layers = (
{
background = {
paths = (
{
closed = 1;
nodes = (
"554 0 LINE",
"571 179 LINE",
"544 179 LINE",
"538 124 OFFCURVE",
"520 40 OFFCURVE",
"456 40 CURVE SMOOTH",
"201 40 LINE",
"201 659 LINE",
"441 659 LINE SMOOTH",
"516 659 OFFCURVE",
"525 567 OFFCURVE",
"528 527 CURVE",
"555 527 LINE",
"555 700 LINE",
"16 700 LINE",
"16 673 LINE",
"44 673 LINE SMOOTH",
"83 673 OFFCURVE",
"103 662 OFFCURVE",
"103 637 CURVE SMOOTH",
"103 62 LINE SMOOTH",
"103 37 OFFCURVE",
"83 26 OFFCURVE",
"44 26 CURVE SMOOTH",
"16 26 LINE",
"16 0 LINE"
);
},
{
closed = 1;
nodes = (
"496 -196 OFFCURVE",
"524 -189 OFFCURVE",
"549 -172 CURVE",
"543 -152 LINE",
"527 -158 OFFCURVE",
"510 -162 OFFCURVE",
"497 -162 CURVE SMOOTH",
"464 -162 OFFCURVE",
"437 -146 OFFCURVE",
"437 -106 CURVE SMOOTH",
"437 -66 OFFCURVE",
"464 -26 OFFCURVE",
"510 4 CURVE",
"469 4 LINE",
"416 -22 OFFCURVE",
"376 -64 OFFCURVE",
"376 -114 CURVE SMOOTH",
"376 -147 OFFCURVE",
"395 -196 OFFCURVE",
"470 -196 CURVE SMOOTH"
);
},
{
closed = 1;
nodes = (
"455 251 LINE",
"455 485 LINE",
"431 485 LINE",
"427 436 OFFCURVE",
"424 388 OFFCURVE",
"379 388 CURVE SMOOTH",
"162 388 LINE",
"162 348 LINE",
"379 348 LINE SMOOTH",
"424 348 OFFCURVE",
"427 300 OFFCURVE",
"431 251 CURVE"
);
}
);
};
components = (
{
name = E;
},
{
name = ogonekcomb;
transform = "{1, 0, 0, 1, 377, 23}";
}
);
layerId = "0B1DFD06-3317-40CA-B510-4969A0718C16";
width = 592;
}
);
note = Eogonek;
unicode = 0118;
},
{
glyphname = Etilde;
lastChange = "2018-02-27 12:29:42 +0000";
layers = (
{
background = {
paths = (
{
closed = 1;
nodes = (
"554 0 LINE",
"571 179 LINE",
"544 179 LINE",
"538 124 OFFCURVE",
"520 40 OFFCURVE",
"456 40 CURVE SMOOTH",
"201 40 LINE",
"201 659 LINE",
"441 659 LINE SMOOTH",
"516 659 OFFCURVE",
"525 567 OFFCURVE",
"528 527 CURVE",
"555 527 LINE",
"555 700 LINE",
"16 700 LINE",
"16 673 LINE",
"44 673 LINE SMOOTH",
"83 673 OFFCURVE",
"103 662 OFFCURVE",
"103 637 CURVE SMOOTH",
"103 62 LINE SMOOTH",
"103 37 OFFCURVE",
"83 26 OFFCURVE",
"44 26 CURVE SMOOTH",
"16 26 LINE",
"16 0 LINE"
);
},
{
closed = 1;
nodes = (
"455 251 LINE",
"455 485 LINE",
"431 485 LINE",
"427 436 OFFCURVE",
"424 388 OFFCURVE",
"379 388 CURVE SMOOTH",
"162 388 LINE",
"162 348 LINE",
"379 348 LINE SMOOTH",
"424 348 OFFCURVE",
"427 300 OFFCURVE",
"431 251 CURVE"
);
},
{
closed = 1;
nodes = (
"190 817 OFFCURVE",
"208 838 OFFCURVE",
"241 838 CURVE SMOOTH",
"292 838 OFFCURVE",
"341 784 OFFCURVE",
"392 784 CURVE SMOOTH",
"450 784 OFFCURVE",
"480 832 OFFCURVE",
"492 884 CURVE",
"471 895 LINE",
"455 855 OFFCURVE",
"439 833 OFFCURVE",
"405 833 CURVE SMOOTH",
"356 833 OFFCURVE",
"304 886 OFFCURVE",
"253 886 CURVE SMOOTH",
"199 886 OFFCURVE",
"166 842 OFFCURVE",
"154 790 CURVE",
"176 779 LINE"
);
}
);
};
components = (
{
name = E;
},
{
name = tildecomb;
transform = "{1, 0, 0, 1, 100, 190}";
}
);
layerId = "0B1DFD06-3317-40CA-B510-4969A0718C16";
width = 592;
}
);
note = Etilde;
unicode = 1EBC;
},
{
glyphname = Hbar;
lastChange = "2018-02-27 08:31:55 +0000";
layers = (
{
components = (
{
name = H;
}
);
layerId = "0B1DFD06-3317-40CA-B510-4969A0718C16";
paths = (
{
closed = 1;
nodes = (
"703 504 LINE",
"703 544 LINE",
"13 544 LINE",
"13 504 LINE"
);
}
);
width = 716;
}
);
note = Hbar;
unicode = 0126;
},
{
glyphname = Lslash;
lastChange = "2018-02-27 08:55:52 +0000";
layers = (
{
components = (
{
name = L;
}
);
layerId = "0B1DFD06-3317-40CA-B510-4969A0718C16";
paths = (
{
closed = 1;
nodes = (
"350 440 LINE",
"350 500 LINE",
"0 380 LINE",
"0 320 LINE"
);
}
);
width = 566;
}
);
note = Lslash;
unicode = 0141;
},
{
glyphname = Nacute;
lastChange = "2018-02-27 12:29:42 +0000";
layers = (
{
background = {
paths = (
{
closed = 1;
nodes = (
"247 0 LINE",
"247 26 LINE",
"217 26 LINE SMOOTH",
"179 26 OFFCURVE",
"159 37 OFFCURVE",
"159 62 CURVE SMOOTH",
"159 642 LINE",
"587 0 LINE",
"645 0 LINE",
"645 637 LINE SMOOTH",
"645 662 OFFCURVE",
"665 673 OFFCURVE",
"703 673 CURVE SMOOTH",
"733 673 LINE",
"733 700 LINE",
"508 700 LINE",
"508 673 LINE",
"537 673 LINE SMOOTH",
"576 673 OFFCURVE",
"595 662 OFFCURVE",
"595 637 CURVE SMOOTH",
"595 126 LINE",
"217 700 LINE",
"22 700 LINE",
"22 673 LINE",
"51 673 LINE SMOOTH",
"90 673 OFFCURVE",
"109 662 OFFCURVE",
"109 637 CURVE SMOOTH",
"109 62 LINE SMOOTH",
"109 37 OFFCURVE",
"90 26 OFFCURVE",
"51 26 CURVE SMOOTH",
"22 26 LINE",
"22 0 LINE"
);
},
{
closed = 1;
nodes = (
"458 865 LINE SMOOTH",
"480 877 OFFCURVE",
"492 890 OFFCURVE",
"492 907 CURVE SMOOTH",
"492 922 OFFCURVE",
"480 937 OFFCURVE",
"458 937 CURVE SMOOTH",
"437 937 OFFCURVE",
"422 921 OFFCURVE",
"414 914 CURVE SMOOTH",
"299 807 LINE",
"316 782 LINE"
);
}
);
};
components = (
{
name = N;
},
{
name = acutecomb;
transform = "{1, 0, 0, 1, 266, 190}";
}
);
layerId = "0B1DFD06-3317-40CA-B510-4969A0718C16";
width = 730;
}
);
note = Nacute;
unicode = 0143;
},
{
glyphname = Ncaron;
lastChange = "2018-02-27 12:29:42 +0000";
layers = (
{
background = {
paths = (
{
closed = 1;
nodes = (
"247 0 LINE",
"247 26 LINE",
"217 26 LINE SMOOTH",
"179 26 OFFCURVE",
"159 37 OFFCURVE",
"159 62 CURVE SMOOTH",
"159 642 LINE",
"587 0 LINE",
"645 0 LINE",
"645 637 LINE SMOOTH",
"645 662 OFFCURVE",
"665 673 OFFCURVE",
"703 673 CURVE SMOOTH",
"733 673 LINE",
"733 700 LINE",
"508 700 LINE",
"508 673 LINE",
"537 673 LINE SMOOTH",
"576 673 OFFCURVE",
"595 662 OFFCURVE",
"595 637 CURVE SMOOTH",
"595 126 LINE",
"217 700 LINE",
"22 700 LINE",
"22 673 LINE",
"51 673 LINE SMOOTH",
"90 673 OFFCURVE",
"109 662 OFFCURVE",
"109 637 CURVE SMOOTH",
"109 62 LINE SMOOTH",
"109 37 OFFCURVE",
"90 26 OFFCURVE",
"51 26 CURVE SMOOTH",
"22 26 LINE",
"22 0 LINE"
);
},
{
closed = 1;
nodes = (
"403 782 LINE",
"527 911 LINE",
"508 932 LINE",
"400 847 LINE",
"392 840 OFFCURVE",
"383 836 OFFCURVE",
"377 836 CURVE SMOOTH",
"371 836 OFFCURVE",
"363 840 OFFCURVE",
"353 847 CURVE",
"245 932 LINE",
"226 911 LINE",
"350 782 LINE"
);
}
);
};
components = (
{
name = N;
},
{
name = caroncomb;
transform = "{1, 0, 0, 1, 185, 190}";
}
);
layerId = "0B1DFD06-3317-40CA-B510-4969A0718C16";
width = 730;
}
);
note = Ncaron;
unicode = 0147;
},
{
glyphname = Ncommaaccent;
lastChange = "2018-02-27 12:29:42 +0000";
layers = (
{
background = {
paths = (
{
closed = 1;
nodes = (
"247 0 LINE",
"247 26 LINE",
"217 26 LINE SMOOTH",
"179 26 OFFCURVE",
"159 37 OFFCURVE",
"159 62 CURVE SMOOTH",
"159 642 LINE",
"587 0 LINE",
"645 0 LINE",
"645 637 LINE SMOOTH",
"645 662 OFFCURVE",
"665 673 OFFCURVE",
"703 673 CURVE SMOOTH",
"733 673 LINE",
"733 700 LINE",
"508 700 LINE",
"508 673 LINE",
"537 673 LINE SMOOTH",
"576 673 OFFCURVE",
"595 662 OFFCURVE",
"595 637 CURVE SMOOTH",
"595 126 LINE",
"217 700 LINE",
"22 700 LINE",
"22 673 LINE",
"51 673 LINE SMOOTH",
"90 673 OFFCURVE",
"109 662 OFFCURVE",
"109 637 CURVE SMOOTH",
"109 62 LINE SMOOTH",
"109 37 OFFCURVE",
"90 26 OFFCURVE",
"51 26 CURVE SMOOTH",
"22 26 LINE",
"22 0 LINE"
);
},
{
closed = 1;
nodes = (
"369 -258 OFFCURVE",
"413 -198 OFFCURVE",
"413 -135 CURVE SMOOTH",
"413 -87 OFFCURVE",
"389 -67 OFFCURVE",
"360 -67 CURVE SMOOTH",
"331 -67 OFFCURVE",
"314 -87 OFFCURVE",
"314 -111 CURVE SMOOTH",
"314 -145 OFFCURVE",
"349 -152 OFFCURVE",
"349 -187 CURVE SMOOTH",
"349 -223 OFFCURVE",
"323 -256 OFFCURVE",
"296 -282 CURVE",
"313 -299 LINE"
);
}
);
};
components = (
{
name = N;
},
{
name = commaaccentcomb;
transform = "{1, 0, 0, 1, 276, 0}";
}
);
layerId = "0B1DFD06-3317-40CA-B510-4969A0718C16";
width = 730;
}
);
note = Ncommaaccent;
unicode = 0145;
},
{
glyphname = Ndotaccent;
lastChange = "2018-02-27 12:29:42 +0000";
layers = (
{
background = {
paths = (
{
closed = 1;
nodes = (
"247 0 LINE",
"247 26 LINE",
"217 26 LINE SMOOTH",
"179 26 OFFCURVE",
"159 37 OFFCURVE",
"159 62 CURVE SMOOTH",
"159 642 LINE",
"587 0 LINE",
"645 0 LINE",
"645 637 LINE SMOOTH",
"645 662 OFFCURVE",
"665 673 OFFCURVE",
"703 673 CURVE SMOOTH",
"733 673 LINE",
"733 700 LINE",
"508 700 LINE",
"508 673 LINE",
"537 673 LINE SMOOTH",
"576 673 OFFCURVE",
"595 662 OFFCURVE",
"595 637 CURVE SMOOTH",
"595 126 LINE",
"217 700 LINE",
"22 700 LINE",
"22 673 LINE",
"51 673 LINE SMOOTH",
"90 673 OFFCURVE",
"109 662 OFFCURVE",
"109 637 CURVE SMOOTH",
"109 62 LINE SMOOTH",
"109 37 OFFCURVE",
"90 26 OFFCURVE",
"51 26 CURVE SMOOTH",
"22 26 LINE",
"22 0 LINE"
);
},
{
closed = 1;
nodes = (
"405 765 OFFCURVE",
"423 784 OFFCURVE",
"423 811 CURVE SMOOTH",
"423 839 OFFCURVE",
"405 858 OFFCURVE",
"377 858 CURVE SMOOTH",
"348 858 OFFCURVE",
"330 839 OFFCURVE",
"330 811 CURVE SMOOTH",
"330 784 OFFCURVE",
"348 765 OFFCURVE",
"377 765 CURVE SMOOTH"
);
}
);
};
components = (
{
name = N;
},
{
name = dotaccentcomb;
transform = "{1, 0, 0, 1, 288, 190}";
}
);
layerId = "0B1DFD06-3317-40CA-B510-4969A0718C16";
width = 730;
}
);
note = Ndotaccent;
unicode = 1E44;
},
{
glyphname = Ndotbelow;
lastChange = "2018-02-27 12:29:42 +0000";
layers = (
{
background = {
paths = (
{
closed = 1;
nodes = (
"247 0 LINE",
"247 26 LINE",
"217 26 LINE SMOOTH",
"179 26 OFFCURVE",
"159 37 OFFCURVE",
"159 62 CURVE SMOOTH",
"159 642 LINE",
"587 0 LINE",
"645 0 LINE",
"645 637 LINE SMOOTH",
"645 662 OFFCURVE",
"665 673 OFFCURVE",
"703 673 CURVE SMOOTH",
"733 673 LINE",
"733 700 LINE",
"508 700 LINE",
"508 673 LINE",
"537 673 LINE SMOOTH",
"576 673 OFFCURVE",
"595 662 OFFCURVE",
"595 637 CURVE SMOOTH",
"595 126 LINE",
"217 700 LINE",
"22 700 LINE",
"22 673 LINE",
"51 673 LINE SMOOTH",
"90 673 OFFCURVE",
"109 662 OFFCURVE",
"109 637 CURVE SMOOTH",
"109 62 LINE SMOOTH",
"109 37 OFFCURVE",
"90 26 OFFCURVE",
"51 26 CURVE SMOOTH",
"22 26 LINE",
"22 0 LINE"
);
},
{
closed = 1;
nodes = (
"415 -159 OFFCURVE",
"433 -140 OFFCURVE",
"433 -112 CURVE SMOOTH",
"433 -84 OFFCURVE",
"415 -64 OFFCURVE",
"387 -64 CURVE SMOOTH",
"359 -64 OFFCURVE",
"340 -84 OFFCURVE",
"340 -112 CURVE SMOOTH",
"340 -140 OFFCURVE",
"359 -159 OFFCURVE",
"387 -159 CURVE SMOOTH"
);
}
);
};
components = (
{
name = N;
},
{
name = dotbelowcomb;
transform = "{1, 0, 0, 1, 288, 0}";
}
);
layerId = "0B1DFD06-3317-40CA-B510-4969A0718C16";
width = 730;
}
);
note = uni1E46;
unicode = 1E46;
},
{
color = 0;
glyphname = Eng;
lastChange = "2018-02-27 08:35:32 +0000";
layers = (
{
background = {
paths = (
{
closed = 1;
nodes = (
"592 -259 OFFCURVE",
"645 -182 OFFCURVE",
"645 -36 CURVE SMOOTH",
"645 637 LINE SMOOTH",
"645 662 OFFCURVE",
"665 673 OFFCURVE",
"703 673 CURVE SMOOTH",
"733 673 LINE",
"733 700 LINE",
"508 700 LINE",
"508 673 LINE",
"537 673 LINE SMOOTH",
"576 673 OFFCURVE",
"595 662 OFFCURVE",
"595 637 CURVE SMOOTH",
"595 125 LINE",
"219 700 LINE",
"22 700 LINE",
"22 673 LINE",
"51 673 LINE SMOOTH",
"90 673 OFFCURVE",
"109 662 OFFCURVE",
"109 637 CURVE SMOOTH",
"109 62 LINE SMOOTH",
"109 37 OFFCURVE",
"93 26 OFFCURVE",
"51 26 CURVE SMOOTH",
"22 26 LINE",
"22 0 LINE",
"247 0 LINE",
"247 26 LINE",
"217 26 LINE SMOOTH",
"179 26 OFFCURVE",
"159 37 OFFCURVE",
"159 62 CURVE SMOOTH",
"159 647 LINE",
"586 0 LINE",
"586 -76 LINE SMOOTH",
"586 -173 OFFCURVE",
"510 -238 OFFCURVE",
"423 -243 CURVE",
"427 -268 LINE"
);
}
);
};
components = (
{
name = N;
}
);
layerId = "0B1DFD06-3317-40CA-B510-4969A0718C16";
paths = (
{
closed = 1;
nodes = (
"596 -262 OFFCURVE",
"647 -201 OFFCURVE",
"647 -106 CURVE SMOOTH",
"647 27 LINE",
"562 27 LINE",
"562 -106 LINE SMOOTH",
"562 -158 OFFCURVE",
"542 -187 OFFCURVE",
"503 -187 CURVE SMOOTH",
"486 -187 OFFCURVE",
"467 -184 OFFCURVE",
"449 -177 CURVE",
"435 -182 OFFCURVE",
"426 -196 OFFCURVE",
"426 -213 CURVE SMOOTH",
"426 -243 OFFCURVE",
"460 -262 OFFCURVE",
"513 -262 CURVE SMOOTH"
);
}
);
width = 730;
}
);
note = Eng;
unicode = 014A;
},
{
glyphname = Nlinebelow;
lastChange = "2018-02-27 12:29:42 +0000";
layers = (
{
background = {
paths = (
{
closed = 1;
nodes = (
"247 0 LINE",
"247 26 LINE",
"217 26 LINE SMOOTH",
"179 26 OFFCURVE",
"159 37 OFFCURVE",
"159 62 CURVE SMOOTH",
"159 642 LINE",
"587 0 LINE",
"645 0 LINE",
"645 637 LINE SMOOTH",
"645 662 OFFCURVE",
"665 673 OFFCURVE",
"703 673 CURVE SMOOTH",
"733 673 LINE",
"733 700 LINE",
"508 700 LINE",
"508 673 LINE",
"537 673 LINE SMOOTH",
"576 673 OFFCURVE",
"595 662 OFFCURVE",
"595 637 CURVE SMOOTH",
"595 126 LINE",
"217 700 LINE",
"22 700 LINE",
"22 673 LINE",
"51 673 LINE SMOOTH",
"90 673 OFFCURVE",
"109 662 OFFCURVE",
"109 637 CURVE SMOOTH",
"109 62 LINE SMOOTH",
"109 37 OFFCURVE",
"90 26 OFFCURVE",
"51 26 CURVE SMOOTH",
"22 26 LINE",
"22 0 LINE"
);
},
{
closed = 1;
nodes = (
"542 -110 LINE",
"542 -72 LINE",
"210 -72 LINE",
"210 -110 LINE"
);
}
);
};
components = (
{
name = N;
},
{
name = macronbelowcomb;
transform = "{1, 0, 0, 1, 169, 0}";
}
);
layerId = "0B1DFD06-3317-40CA-B510-4969A0718C16";
width = 730;
}
);
note = Nlinebelow;
unicode = 1E48;
},
{
glyphname = Ntilde;
lastChange = "2018-02-27 12:29:42 +0000";
layers = (
{
background = {
paths = (
{
closed = 1;
nodes = (
"247 0 LINE",
"247 26 LINE",
"217 26 LINE SMOOTH",
"179 26 OFFCURVE",
"159 37 OFFCURVE",
"159 62 CURVE SMOOTH",
"159 642 LINE",
"587 0 LINE",
"645 0 LINE",
"645 637 LINE SMOOTH",
"645 662 OFFCURVE",
"665 673 OFFCURVE",
"703 673 CURVE SMOOTH",
"733 673 LINE",
"733 700 LINE",
"508 700 LINE",
"508 673 LINE",
"537 673 LINE SMOOTH",
"576 673 OFFCURVE",
"595 662 OFFCURVE",
"595 637 CURVE SMOOTH",
"595 126 LINE",
"217 700 LINE",
"22 700 LINE",
"22 673 LINE",
"51 673 LINE SMOOTH",
"90 673 OFFCURVE",
"109 662 OFFCURVE",
"109 637 CURVE SMOOTH",
"109 62 LINE SMOOTH",
"109 37 OFFCURVE",
"90 26 OFFCURVE",
"51 26 CURVE SMOOTH",
"22 26 LINE",
"22 0 LINE"
);
},
{
closed = 1;
nodes = (
"254 818 OFFCURVE",
"272 839 OFFCURVE",
"305 839 CURVE SMOOTH",
"356 839 OFFCURVE",
"405 785 OFFCURVE",
"456 785 CURVE SMOOTH",
"514 785 OFFCURVE",
"544 833 OFFCURVE",
"556 885 CURVE",
"535 896 LINE",
"519 856 OFFCURVE",
"503 834 OFFCURVE",
"469 834 CURVE SMOOTH",
"420 834 OFFCURVE",
"368 887 OFFCURVE",
"317 887 CURVE SMOOTH",
"263 887 OFFCURVE",
"230 843 OFFCURVE",
"218 791 CURVE",
"240 780 LINE"
);
}
);
};
components = (
{
name = N;
},
{
name = tildecomb;
transform = "{1, 0, 0, 1, 169, 190}";
}
);
layerId = "0B1DFD06-3317-40CA-B510-4969A0718C16";
width = 730;
}
);
note = Ntilde;
unicode = 00D1;
},
{
glyphname = Oacute;
lastChange = "2018-02-27 12:29:42 +0000";
layers = (
{
background = {
paths = (
{
closed = 1;
nodes = (
"601 -10 OFFCURVE",
"719 124 OFFCURVE",
"719 350 CURVE SMOOTH",
"719 574 OFFCURVE",
"601 710 OFFCURVE",
"378 710 CURVE SMOOTH",
"154 710 OFFCURVE",
"36 574 OFFCURVE",
"36 350 CURVE SMOOTH",
"36 124 OFFCURVE",
"154 -10 OFFCURVE",
"378 -10 CURVE SMOOTH"
);
},
{
closed = 1;
nodes = (
"215 32 OFFCURVE",
"135 158 OFFCURVE",
"135 350 CURVE SMOOTH",
"135 541 OFFCURVE",
"215 668 OFFCURVE",
"377 668 CURVE SMOOTH",
"541 668 OFFCURVE",
"620 541 OFFCURVE",
"620 350 CURVE SMOOTH",
"620 158 OFFCURVE",
"541 32 OFFCURVE",
"377 32 CURVE SMOOTH"
);
},
{
closed = 1;
nodes = (
"440 865 LINE SMOOTH",
"462 877 OFFCURVE",
"474 890 OFFCURVE",
"474 907 CURVE SMOOTH",
"474 922 OFFCURVE",
"462 937 OFFCURVE",
"440 937 CURVE SMOOTH",
"419 937 OFFCURVE",
"404 921 OFFCURVE",
"396 914 CURVE SMOOTH",
"281 807 LINE",
"298 782 LINE"
);
}
);
};
components = (
{
name = O;
},
{
name = acutecomb;
transform = "{1, 0, 0, 1, 284, 190}";
}
);
layerId = "0B1DFD06-3317-40CA-B510-4969A0718C16";
width = 765;
}
);
leftKerningGroup = O;
note = Oacute;
rightKerningGroup = O;
unicode = 00D3;
},
{
glyphname = Obreve;
lastChange = "2018-02-27 12:29:42 +0000";
layers = (
{
background = {
paths = (
{
closed = 1;
nodes = (
"601 -10 OFFCURVE",
"719 124 OFFCURVE",
"719 350 CURVE SMOOTH",
"719 574 OFFCURVE",
"601 710 OFFCURVE",
"378 710 CURVE SMOOTH",
"154 710 OFFCURVE",
"36 574 OFFCURVE",
"36 350 CURVE SMOOTH",
"36 124 OFFCURVE",
"154 -10 OFFCURVE",
"378 -10 CURVE SMOOTH"
);
},
{
closed = 1;
nodes = (
"215 32 OFFCURVE",
"135 158 OFFCURVE",
"135 350 CURVE SMOOTH",
"135 541 OFFCURVE",
"215 668 OFFCURVE",
"377 668 CURVE SMOOTH",
"541 668 OFFCURVE",
"620 541 OFFCURVE",
"620 350 CURVE SMOOTH",
"620 158 OFFCURVE",
"541 32 OFFCURVE",
"377 32 CURVE SMOOTH"
);
},
{
closed = 1;
nodes = (
"477 774 OFFCURVE",
"519 830 OFFCURVE",
"523 905 CURVE",
"490 905 LINE",
"484 846 OFFCURVE",
"442 820 OFFCURVE",
"378 820 CURVE SMOOTH",
"314 820 OFFCURVE",
"271 846 OFFCURVE",
"264 905 CURVE",
"231 905 LINE",
"235 827 OFFCURVE",
"277 774 OFFCURVE",
"378 774 CURVE SMOOTH"
);
}
);
};
components = (
{
name = O;
},
{
name = brevecomb;
transform = "{1, 0, 0, 1, 206, 190}";
}
);
layerId = "0B1DFD06-3317-40CA-B510-4969A0718C16";
width = 765;
}
);
leftKerningGroup = O;
note = Obreve;
rightKerningGroup = O;
unicode = 014E;
},
{
glyphname = Ocaron;
lastChange = "2018-02-27 12:29:42 +0000";
layers = (
{
background = {
paths = (
{
closed = 1;
nodes = (
"601 -10 OFFCURVE",
"719 124 OFFCURVE",
"719 350 CURVE SMOOTH",
"719 574 OFFCURVE",
"601 710 OFFCURVE",
"378 710 CURVE SMOOTH",
"154 710 OFFCURVE",
"36 574 OFFCURVE",
"36 350 CURVE SMOOTH",
"36 124 OFFCURVE",
"154 -10 OFFCURVE",
"378 -10 CURVE SMOOTH"
);
},
{
closed = 1;
nodes = (
"215 32 OFFCURVE",
"135 158 OFFCURVE",
"135 350 CURVE SMOOTH",
"135 541 OFFCURVE",
"215 668 OFFCURVE",
"377 668 CURVE SMOOTH",
"541 668 OFFCURVE",
"620 541 OFFCURVE",
"620 350 CURVE SMOOTH",
"620 158 OFFCURVE",
"541 32 OFFCURVE",
"377 32 CURVE SMOOTH"
);
},
{
closed = 1;
nodes = (
"404 782 LINE",
"528 911 LINE",
"509 932 LINE",
"401 847 LINE",
"393 840 OFFCURVE",
"384 836 OFFCURVE",
"378 836 CURVE SMOOTH",
"372 836 OFFCURVE",
"364 840 OFFCURVE",
"354 847 CURVE",
"246 932 LINE",
"227 911 LINE",
"351 782 LINE"
);
}
);
};
components = (
{
name = O;
},
{
name = caroncomb;
transform = "{1, 0, 0, 1, 203, 190}";
}
);
layerId = "0B1DFD06-3317-40CA-B510-4969A0718C16";
width = 765;
}
);
leftKerningGroup = O;
note = Ocaron;
rightKerningGroup = O;
unicode = 01D1;
},
{
glyphname = Ocircumflex;
lastChange = "2018-02-27 12:29:42 +0000";
layers = (
{
background = {
paths = (
{
closed = 1;
nodes = (
"601 -10 OFFCURVE",
"719 124 OFFCURVE",
"719 350 CURVE SMOOTH",
"719 574 OFFCURVE",
"601 710 OFFCURVE",
"378 710 CURVE SMOOTH",
"154 710 OFFCURVE",
"36 574 OFFCURVE",
"36 350 CURVE SMOOTH",
"36 124 OFFCURVE",
"154 -10 OFFCURVE",
"378 -10 CURVE SMOOTH"
);
},
{
closed = 1;
nodes = (
"215 32 OFFCURVE",
"135 158 OFFCURVE",
"135 350 CURVE SMOOTH",
"135 541 OFFCURVE",
"215 668 OFFCURVE",
"377 668 CURVE SMOOTH",
"541 668 OFFCURVE",
"620 541 OFFCURVE",
"620 350 CURVE SMOOTH",
"620 158 OFFCURVE",
"541 32 OFFCURVE",
"377 32 CURVE SMOOTH"
);
},
{
closed = 1;
nodes = (
"354 868 LINE SMOOTH",
"362 874 OFFCURVE",
"372 879 OFFCURVE",
"378 879 CURVE SMOOTH",
"384 879 OFFCURVE",
"392 874 OFFCURVE",
"401 868 CURVE",
"509 782 LINE",
"528 803 LINE",
"404 932 LINE",
"351 932 LINE",
"227 803 LINE",
"246 782 LINE"
);
}
);
};
components = (
{
name = O;
},
{
name = circumflexcomb;
transform = "{1, 0, 0, 1, 203, 190}";
}
);
layerId = "0B1DFD06-3317-40CA-B510-4969A0718C16";
width = 765;
}
);
leftKerningGroup = O;
note = Ocircumflex;
rightKerningGroup = O;
unicode = 00D4;
},
{
glyphname = Ocircumflexacute;
lastChange = "2018-02-27 12:29:42 +0000";
layers = (
{
background = {
paths = (
{
closed = 1;
nodes = (
"601 -10 OFFCURVE",
"719 124 OFFCURVE",
"719 350 CURVE SMOOTH",
"719 574 OFFCURVE",
"601 710 OFFCURVE",
"378 710 CURVE SMOOTH",
"154 710 OFFCURVE",
"36 574 OFFCURVE",
"36 350 CURVE SMOOTH",
"36 124 OFFCURVE",
"154 -10 OFFCURVE",
"378 -10 CURVE SMOOTH"
);
},
{
closed = 1;
nodes = (
"215 32 OFFCURVE",
"135 158 OFFCURVE",
"135 350 CURVE SMOOTH",
"135 541 OFFCURVE",
"215 668 OFFCURVE",
"377 668 CURVE SMOOTH",
"541 668 OFFCURVE",
"620 541 OFFCURVE",
"620 350 CURVE SMOOTH",
"620 158 OFFCURVE",
"541 32 OFFCURVE",
"377 32 CURVE SMOOTH"
);
},
{
closed = 1;
nodes = (
"348 861 LINE SMOOTH",
"358 869 OFFCURVE",
"368 877 OFFCURVE",
"376 877 CURVE SMOOTH",
"382 877 OFFCURVE",
"390 872 OFFCURVE",
"399 866 CURVE",
"505 780 LINE",
"524 802 LINE",
"402 931 LINE",
"351 931 LINE",
"229 802 LINE",
"247 780 LINE"
);
},
{
closed = 1;
nodes = (
"613 959 LINE SMOOTH",
"636 971 OFFCURVE",
"649 987 OFFCURVE",
"649 1002 CURVE SMOOTH",
"649 1016 OFFCURVE",
"638 1033 OFFCURVE",
"615 1033 CURVE SMOOTH",
"596 1033 OFFCURVE",
"579 1017 OFFCURVE",
"569 1007 CURVE SMOOTH",
"473 914 LINE",
"491 892 LINE"
);
}
);
};
components = (
{
name = O;
},
{
name = circumflexcomb;
transform = "{1, 0, 0, 1, 203, 190}";
},
{
name = acutecomb;
transform = "{1, 0, 0, 1, 284, 391}";
}
);
layerId = "0B1DFD06-3317-40CA-B510-4969A0718C16";
width = 765;
}
);
leftKerningGroup = O;
note = Ocircumflexacute;
rightKerningGroup = O;
unicode = 1ED0;
},
{
glyphname = Ocircumflexdotbelow;
lastChange = "2018-02-27 12:29:42 +0000";
layers = (
{
background = {
paths = (
{
closed = 1;
nodes = (
"36 124 OFFCURVE",
"154 -10 OFFCURVE",
"378 -10 CURVE SMOOTH",
"601 -10 OFFCURVE",
"719 124 OFFCURVE",
"719 350 CURVE SMOOTH",
"719 574 OFFCURVE",
"601 710 OFFCURVE",
"378 710 CURVE SMOOTH",
"154 710 OFFCURVE",
"36 574 OFFCURVE",
"36 350 CURVE SMOOTH"
);
},
{
closed = 1;
nodes = (
"135 541 OFFCURVE",
"215 668 OFFCURVE",
"377 668 CURVE SMOOTH",
"541 668 OFFCURVE",
"620 541 OFFCURVE",
"620 350 CURVE SMOOTH",
"620 158 OFFCURVE",
"541 32 OFFCURVE",
"377 32 CURVE SMOOTH",
"215 32 OFFCURVE",
"135 158 OFFCURVE",
"135 350 CURVE SMOOTH"
);
},
{
closed = 1;
nodes = (
"245 782 LINE",
"353 868 LINE SMOOTH",
"361 874 OFFCURVE",
"371 879 OFFCURVE",
"377 879 CURVE SMOOTH",
"383 879 OFFCURVE",
"391 874 OFFCURVE",
"400 868 CURVE",
"508 782 LINE",
"527 803 LINE",
"403 932 LINE",
"350 932 LINE",
"226 803 LINE"
);
},
{
closed = 1;
nodes = (
"330 -140 OFFCURVE",
"349 -159 OFFCURVE",
"377 -159 CURVE SMOOTH",
"405 -159 OFFCURVE",
"423 -140 OFFCURVE",
"423 -112 CURVE SMOOTH",
"423 -84 OFFCURVE",
"405 -64 OFFCURVE",
"377 -64 CURVE SMOOTH",
"349 -64 OFFCURVE",
"330 -84 OFFCURVE",
"330 -112 CURVE SMOOTH"
);
}
);
};
components = (
{
name = O;
},
{
name = dotbelowcomb;
transform = "{1, 0, 0, 1, 306, 0}";
},
{
name = circumflexcomb;
transform = "{1, 0, 0, 1, 203, 190}";
}
);
layerId = "0B1DFD06-3317-40CA-B510-4969A0718C16";
width = 765;
}
);
leftKerningGroup = O;
note = Ocircumflexdotbelow;
rightKerningGroup = O;
unicode = 1ED8;
},
{
glyphname = Ocircumflexgrave;
lastChange = "2018-02-27 12:29:42 +0000";
layers = (
{
background = {
paths = (
{
closed = 1;
nodes = (
"601 -10 OFFCURVE",
"719 124 OFFCURVE",
"719 350 CURVE SMOOTH",
"719 574 OFFCURVE",
"601 710 OFFCURVE",
"378 710 CURVE SMOOTH",
"154 710 OFFCURVE",
"36 574 OFFCURVE",
"36 350 CURVE SMOOTH",
"36 124 OFFCURVE",
"154 -10 OFFCURVE",
"378 -10 CURVE SMOOTH"
);
},
{
closed = 1;
nodes = (
"215 32 OFFCURVE",
"135 158 OFFCURVE",
"135 350 CURVE SMOOTH",
"135 541 OFFCURVE",
"215 668 OFFCURVE",
"377 668 CURVE SMOOTH",
"541 668 OFFCURVE",
"620 541 OFFCURVE",
"620 350 CURVE SMOOTH",
"620 158 OFFCURVE",
"541 32 OFFCURVE",
"377 32 CURVE SMOOTH"
);
},
{
closed = 1;
nodes = (
"285 914 LINE",
"190 1007 LINE SMOOTH",
"180 1017 OFFCURVE",
"163 1033 OFFCURVE",
"143 1033 CURVE SMOOTH",
"121 1033 OFFCURVE",
"110 1016 OFFCURVE",
"110 1002 CURVE SMOOTH",
"110 987 OFFCURVE",
"123 971 OFFCURVE",
"146 959 CURVE SMOOTH",
"268 892 LINE"
);
},
{
closed = 1;
nodes = (
"348 861 LINE SMOOTH",
"358 869 OFFCURVE",
"368 877 OFFCURVE",
"376 877 CURVE SMOOTH",
"382 877 OFFCURVE",
"390 872 OFFCURVE",
"399 866 CURVE",
"505 780 LINE",
"524 802 LINE",
"402 931 LINE",
"351 931 LINE",
"229 802 LINE",
"247 780 LINE"
);
}
);
};
components = (
{
name = O;
},
{
name = circumflexcomb;
transform = "{1, 0, 0, 1, 203, 190}";
},
{
name = gravecomb;
transform = "{1, 0, 0, 1, 232, 391}";
}
);
layerId = "0B1DFD06-3317-40CA-B510-4969A0718C16";
width = 765;
}
);
leftKerningGroup = O;
note = Ocircumflexgrave;
rightKerningGroup = O;
unicode = 1ED2;
},
{
glyphname = Ocircumflexhookabove;
lastChange = "2018-02-27 12:29:42 +0000";
layers = (
{
background = {
paths = (
{
closed = 1;
nodes = (
"601 -10 OFFCURVE",
"719 124 OFFCURVE",
"719 350 CURVE SMOOTH",
"719 574 OFFCURVE",
"601 710 OFFCURVE",
"378 710 CURVE SMOOTH",
"154 710 OFFCURVE",
"36 574 OFFCURVE",
"36 350 CURVE SMOOTH",
"36 124 OFFCURVE",
"154 -10 OFFCURVE",
"378 -10 CURVE SMOOTH"
);
},
{
closed = 1;
nodes = (
"215 32 OFFCURVE",
"135 158 OFFCURVE",
"135 350 CURVE SMOOTH",
"135 541 OFFCURVE",
"215 668 OFFCURVE",
"377 668 CURVE SMOOTH",
"541 668 OFFCURVE",
"620 541 OFFCURVE",
"620 350 CURVE SMOOTH",
"620 158 OFFCURVE",
"541 32 OFFCURVE",
"377 32 CURVE SMOOTH"
);
},
{
closed = 1;
nodes = (
"344 858 LINE",
"355 868 OFFCURVE",
"367 878 OFFCURVE",
"376 878 CURVE SMOOTH",
"382 878 OFFCURVE",
"390 873 OFFCURVE",
"399 867 CURVE",
"505 781 LINE",
"524 803 LINE",
"402 932 LINE",
"351 932 LINE",
"229 803 LINE",
"247 781 LINE"
);
},
{
closed = 1;
nodes = (
"551 898 LINE",
"532 905 OFFCURVE",
"522 912 OFFCURVE",
"522 926 CURVE SMOOTH",
"522 954 OFFCURVE",
"602 965 OFFCURVE",
"602 1010 CURVE SMOOTH",
"602 1047 OFFCURVE",
"560 1063 OFFCURVE",
"518 1063 CURVE SMOOTH",
"487 1063 OFFCURVE",
"442 1053 OFFCURVE",
"442 1022 CURVE SMOOTH",
"442 1010 OFFCURVE",
"453 1001 OFFCURVE",
"463 1001 CURVE SMOOTH",
"492 1001 OFFCURVE",
"479 1040 OFFCURVE",
"522 1040 CURVE SMOOTH",
"541 1040 OFFCURVE",
"552 1028 OFFCURVE",
"552 1013 CURVE SMOOTH",
"552 973 OFFCURVE",
"479 965 OFFCURVE",
"479 925 CURVE SMOOTH",
"479 901 OFFCURVE",
"495 880 OFFCURVE",
"542 880 CURVE"
);
}
);
};
components = (
{
name = O;
},
{
name = circumflexcomb;
transform = "{1, 0, 0, 1, 203, 190}";
},
{
name = hookabovecomb;
transform = "{1, 0, 0, 1, 313, 391}";
}
);
layerId = "0B1DFD06-3317-40CA-B510-4969A0718C16";
width = 765;
}
);
leftKerningGroup = O;
note = Ocircumflexhookabove;
rightKerningGroup = O;
unicode = 1ED4;
},
{
glyphname = Ocircumflextilde;
lastChange = "2018-02-27 12:29:42 +0000";
layers = (
{
background = {
paths = (
{
closed = 1;
nodes = (
"601 -10 OFFCURVE",
"719 124 OFFCURVE",
"719 350 CURVE SMOOTH",
"719 574 OFFCURVE",
"601 710 OFFCURVE",
"378 710 CURVE SMOOTH",
"154 710 OFFCURVE",
"36 574 OFFCURVE",
"36 350 CURVE SMOOTH",
"36 124 OFFCURVE",
"154 -10 OFFCURVE",
"378 -10 CURVE SMOOTH"
);
},
{
closed = 1;
nodes = (
"215 32 OFFCURVE",
"135 158 OFFCURVE",
"135 350 CURVE SMOOTH",
"135 541 OFFCURVE",
"215 668 OFFCURVE",
"377 668 CURVE SMOOTH",
"541 668 OFFCURVE",
"620 541 OFFCURVE",
"620 350 CURVE SMOOTH",
"620 158 OFFCURVE",
"541 32 OFFCURVE",
"377 32 CURVE SMOOTH"
);
},
{
closed = 1;
nodes = (
"348 862 LINE SMOOTH",
"358 870 OFFCURVE",
"368 878 OFFCURVE",
"376 878 CURVE SMOOTH",
"382 878 OFFCURVE",
"390 873 OFFCURVE",
"399 867 CURVE",
"505 781 LINE",
"524 803 LINE",
"402 932 LINE",
"351 932 LINE",
"229 803 LINE",
"247 781 LINE"
);
},
{
closed = 1;
nodes = (
"251 997 OFFCURVE",
"269 1018 OFFCURVE",
"300 1018 CURVE SMOOTH",
"349 1018 OFFCURVE",
"396 964 OFFCURVE",
"445 964 CURVE SMOOTH",
"498 964 OFFCURVE",
"527 1012 OFFCURVE",
"539 1063 CURVE",
"518 1075 LINE",
"505 1035 OFFCURVE",
"489 1012 OFFCURVE",
"456 1012 CURVE SMOOTH",
"409 1012 OFFCURVE",
"360 1065 OFFCURVE",
"311 1065 CURVE SMOOTH",
"260 1065 OFFCURVE",
"228 1021 OFFCURVE",
"218 970 CURVE",
"238 958 LINE"
);
}
);
};
components = (
{
name = O;
},
{
name = circumflexcomb;
transform = "{1, 0, 0, 1, 203, 190}";
},
{
name = tildecomb;
transform = "{1, 0, 0, 1, 187, 391}";
}
);
layerId = "0B1DFD06-3317-40CA-B510-4969A0718C16";
width = 765;
}
);
leftKerningGroup = O;
note = Ocircumflextilde;
rightKerningGroup = O;
unicode = 1ED6;
},
{
glyphname = Odieresis;
lastChange = "2018-02-27 12:29:42 +0000";
layers = (
{
background = {
paths = (
{
closed = 1;
nodes = (
"601 -10 OFFCURVE",
"719 124 OFFCURVE",
"719 350 CURVE SMOOTH",
"719 574 OFFCURVE",
"601 710 OFFCURVE",
"378 710 CURVE SMOOTH",
"154 710 OFFCURVE",
"36 574 OFFCURVE",
"36 350 CURVE SMOOTH",
"36 124 OFFCURVE",
"154 -10 OFFCURVE",
"378 -10 CURVE SMOOTH"
);
},
{
closed = 1;
nodes = (
"215 32 OFFCURVE",
"135 158 OFFCURVE",
"135 350 CURVE SMOOTH",
"135 541 OFFCURVE",
"215 668 OFFCURVE",
"377 668 CURVE SMOOTH",
"541 668 OFFCURVE",
"620 541 OFFCURVE",
"620 350 CURVE SMOOTH",
"620 158 OFFCURVE",
"541 32 OFFCURVE",
"377 32 CURVE SMOOTH"
);
},
{
closed = 1;
nodes = (
"298 781 OFFCURVE",
"316 800 OFFCURVE",
"316 827 CURVE SMOOTH",
"316 855 OFFCURVE",
"298 875 OFFCURVE",
"269 875 CURVE SMOOTH",
"241 875 OFFCURVE",
"223 855 OFFCURVE",
"223 827 CURVE SMOOTH",
"223 800 OFFCURVE",
"241 781 OFFCURVE",
"269 781 CURVE SMOOTH"
);
},
{
closed = 1;
nodes = (
"514 781 OFFCURVE",
"532 800 OFFCURVE",
"532 827 CURVE SMOOTH",
"532 855 OFFCURVE",
"514 875 OFFCURVE",
"485 875 CURVE SMOOTH",
"456 875 OFFCURVE",
"438 855 OFFCURVE",
"438 827 CURVE SMOOTH",
"438 800 OFFCURVE",
"456 781 OFFCURVE",
"485 781 CURVE SMOOTH"
);
}
);
};
components = (
{
name = O;
},
{
name = dieresiscomb;
transform = "{1, 0, 0, 1, 209, 190}";
}
);
layerId = "0B1DFD06-3317-40CA-B510-4969A0718C16";
width = 765;
}
);
leftKerningGroup = O;
note = Odieresis;
rightKerningGroup = O;
unicode = 00D6;
},
{
glyphname = Odotbelow;
lastChange = "2018-02-27 12:29:42 +0000";
layers = (
{
background = {
paths = (
{
closed = 1;
nodes = (
"36 124 OFFCURVE",
"154 -10 OFFCURVE",
"378 -10 CURVE SMOOTH",
"601 -10 OFFCURVE",
"719 124 OFFCURVE",
"719 350 CURVE SMOOTH",
"719 574 OFFCURVE",
"601 710 OFFCURVE",
"378 710 CURVE SMOOTH",
"154 710 OFFCURVE",
"36 574 OFFCURVE",
"36 350 CURVE SMOOTH"
);
},
{
closed = 1;
nodes = (
"135 541 OFFCURVE",
"215 668 OFFCURVE",
"377 668 CURVE SMOOTH",
"541 668 OFFCURVE",
"620 541 OFFCURVE",
"620 350 CURVE SMOOTH",
"620 158 OFFCURVE",
"541 32 OFFCURVE",
"377 32 CURVE SMOOTH",
"215 32 OFFCURVE",
"135 158 OFFCURVE",
"135 350 CURVE SMOOTH"
);
},
{
closed = 1;
nodes = (
"330 -140 OFFCURVE",
"349 -159 OFFCURVE",
"377 -159 CURVE SMOOTH",
"405 -159 OFFCURVE",
"423 -140 OFFCURVE",
"423 -112 CURVE SMOOTH",
"423 -84 OFFCURVE",
"405 -64 OFFCURVE",
"377 -64 CURVE SMOOTH",
"349 -64 OFFCURVE",
"330 -84 OFFCURVE",
"330 -112 CURVE SMOOTH"
);
}
);
};
components = (
{
name = O;
},
{
name = dotbelowcomb;
transform = "{1, 0, 0, 1, 306, 0}";
}
);
layerId = "0B1DFD06-3317-40CA-B510-4969A0718C16";
width = 765;
}
);
leftKerningGroup = O;
note = Odotbelow;
rightKerningGroup = O;
unicode = 1ECC;
},
{
glyphname = Ograve;
lastChange = "2018-02-27 12:29:42 +0000";
layers = (
{
background = {
paths = (
{
closed = 1;
nodes = (
"601 -10 OFFCURVE",
"719 124 OFFCURVE",
"719 350 CURVE SMOOTH",
"719 574 OFFCURVE",
"601 710 OFFCURVE",
"378 710 CURVE SMOOTH",
"154 710 OFFCURVE",
"36 574 OFFCURVE",
"36 350 CURVE SMOOTH",
"36 124 OFFCURVE",
"154 -10 OFFCURVE",
"378 -10 CURVE SMOOTH"
);
},
{
closed = 1;
nodes = (
"215 32 OFFCURVE",
"135 158 OFFCURVE",
"135 350 CURVE SMOOTH",
"135 541 OFFCURVE",
"215 668 OFFCURVE",
"377 668 CURVE SMOOTH",
"541 668 OFFCURVE",
"620 541 OFFCURVE",
"620 350 CURVE SMOOTH",
"620 158 OFFCURVE",
"541 32 OFFCURVE",
"377 32 CURVE SMOOTH"
);
},
{
closed = 1;
nodes = (
"459 807 LINE",
"344 913 LINE",
"335 922 OFFCURVE",
"319 937 OFFCURVE",
"299 937 CURVE SMOOTH",
"279 937 OFFCURVE",
"267 924 OFFCURVE",
"267 908 CURVE SMOOTH",
"267 890 OFFCURVE",
"279 876 OFFCURVE",
"298 865 CURVE SMOOTH",
"441 782 LINE"
);
}
);
};
components = (
{
name = O;
},
{
name = gravecomb;
transform = "{1, 0, 0, 1, 232, 190}";
}
);
layerId = "0B1DFD06-3317-40CA-B510-4969A0718C16";
width = 765;
}
);
leftKerningGroup = O;
note = Ograve;
rightKerningGroup = O;
unicode = 00D2;
},
{
glyphname = Ohookabove;
lastChange = "2018-02-27 12:29:42 +0000";
layers = (
{
background = {
paths = (
{
closed = 1;
nodes = (
"601 -10 OFFCURVE",
"719 124 OFFCURVE",
"719 350 CURVE SMOOTH",
"719 574 OFFCURVE",
"601 710 OFFCURVE",
"378 710 CURVE SMOOTH",
"154 710 OFFCURVE",
"36 574 OFFCURVE",
"36 350 CURVE SMOOTH",
"36 124 OFFCURVE",
"154 -10 OFFCURVE",
"378 -10 CURVE SMOOTH"
);
},
{
closed = 1;
nodes = (
"215 32 OFFCURVE",
"135 158 OFFCURVE",
"135 350 CURVE SMOOTH",
"135 541 OFFCURVE",
"215 668 OFFCURVE",
"377 668 CURVE SMOOTH",
"541 668 OFFCURVE",
"620 541 OFFCURVE",
"620 350 CURVE SMOOTH",
"620 158 OFFCURVE",
"541 32 OFFCURVE",
"377 32 CURVE SMOOTH"
);
},
{
closed = 1;
nodes = (
"407 798 LINE",
"388 805 OFFCURVE",
"376 811 OFFCURVE",
"376 828 CURVE SMOOTH",
"376 861 OFFCURVE",
"465 876 OFFCURVE",
"465 927 CURVE SMOOTH",
"465 969 OFFCURVE",
"429 991 OFFCURVE",
"376 991 CURVE SMOOTH",
"329 991 OFFCURVE",
"288 974 OFFCURVE",
"288 940 CURVE SMOOTH",
"288 923 OFFCURVE",
"296 915 OFFCURVE",
"311 915 CURVE SMOOTH",
"334 915 OFFCURVE",
"336 934 OFFCURVE",
"339 942 CURVE SMOOTH",
"344 956 OFFCURVE",
"361 962 OFFCURVE",
"377 962 CURVE SMOOTH",
"398 962 OFFCURVE",
"411 947 OFFCURVE",
"411 930 CURVE SMOOTH",
"411 885 OFFCURVE",
"329 874 OFFCURVE",
"329 828 CURVE SMOOTH",
"329 801 OFFCURVE",
"347 778 OFFCURVE",
"398 778 CURVE"
);
}
);
};
components = (
{
name = O;
},
{
name = hookabovecomb;
transform = "{1, 0, 0, 1, 313, 190}";
}
);
layerId = "0B1DFD06-3317-40CA-B510-4969A0718C16";
width = 765;
}
);
leftKerningGroup = O;
note = Ohookabove;
rightKerningGroup = O;
unicode = 1ECE;
},
{
glyphname = Ohornacute;
lastChange = "2018-02-27 12:29:42 +0000";
layers = (
{
background = {
paths = (
{
closed = 1;
nodes = (
"602 -10 OFFCURVE",
"720 124 OFFCURVE",
"720 350 CURVE SMOOTH",
"720 574 OFFCURVE",
"602 710 OFFCURVE",
"379 710 CURVE SMOOTH",
"155 710 OFFCURVE",
"37 574 OFFCURVE",
"37 350 CURVE SMOOTH",
"37 124 OFFCURVE",
"155 -10 OFFCURVE",
"379 -10 CURVE SMOOTH"
);
},
{
closed = 1;
nodes = (
"216 32 OFFCURVE",
"136 158 OFFCURVE",
"136 350 CURVE SMOOTH",
"136 541 OFFCURVE",
"216 668 OFFCURVE",
"378 668 CURVE SMOOTH",
"542 668 OFFCURVE",
"621 541 OFFCURVE",
"621 350 CURVE SMOOTH",
"621 158 OFFCURVE",
"542 32 OFFCURVE",
"378 32 CURVE SMOOTH"
);
},
{
closed = 1;
nodes = (
"424 864 LINE SMOOTH",
"446 876 OFFCURVE",
"458 889 OFFCURVE",
"458 906 CURVE SMOOTH",
"458 921 OFFCURVE",
"446 936 OFFCURVE",
"424 936 CURVE SMOOTH",
"403 936 OFFCURVE",
"388 920 OFFCURVE",
"380 913 CURVE SMOOTH",
"265 806 LINE",
"282 781 LINE"
);
},
{
closed = 1;
nodes = (
"691 567 OFFCURVE",
"756 632 OFFCURVE",
"756 705 CURVE SMOOTH",
"756 752 OFFCURVE",
"729 772 OFFCURVE",
"701 772 CURVE SMOOTH",
"672 772 OFFCURVE",
"656 752 OFFCURVE",
"656 729 CURVE SMOOTH",
"656 695 OFFCURVE",
"689 688 OFFCURVE",
"689 653 CURVE SMOOTH",
"689 617 OFFCURVE",
"658 588 OFFCURVE",
"623 568 CURVE",
"623 543 LINE"
);
}
);
};
components = (
{
name = Ohorn;
},
{
name = acutecomb;
transform = "{1, 0, 0, 1, 284, 190}";
}
);
layerId = "0B1DFD06-3317-40CA-B510-4969A0718C16";
width = 765;
}
);
leftKerningGroup = O;
note = Ohornacute;
rightKerningGroup = O;
unicode = 1EDA;
},
{
glyphname = Ohorndotbelow;
lastChange = "2018-02-27 12:29:42 +0000";
layers = (
{
background = {
paths = (
{
closed = 1;
nodes = (
"602 -10 OFFCURVE",
"720 124 OFFCURVE",
"720 350 CURVE SMOOTH",
"720 574 OFFCURVE",
"602 710 OFFCURVE",
"379 710 CURVE SMOOTH",
"155 710 OFFCURVE",
"37 574 OFFCURVE",
"37 350 CURVE SMOOTH",
"37 124 OFFCURVE",
"155 -10 OFFCURVE",
"379 -10 CURVE SMOOTH"
);
},
{
closed = 1;
nodes = (
"216 32 OFFCURVE",
"136 158 OFFCURVE",
"136 350 CURVE SMOOTH",
"136 541 OFFCURVE",
"216 668 OFFCURVE",
"378 668 CURVE SMOOTH",
"542 668 OFFCURVE",
"621 541 OFFCURVE",
"621 350 CURVE SMOOTH",
"621 158 OFFCURVE",
"542 32 OFFCURVE",
"378 32 CURVE SMOOTH"
);
},
{
closed = 1;
nodes = (
"691 567 OFFCURVE",
"756 632 OFFCURVE",
"756 705 CURVE SMOOTH",
"756 752 OFFCURVE",
"729 772 OFFCURVE",
"701 772 CURVE SMOOTH",
"672 772 OFFCURVE",
"656 752 OFFCURVE",
"656 729 CURVE SMOOTH",
"656 695 OFFCURVE",
"689 688 OFFCURVE",
"689 653 CURVE SMOOTH",
"689 617 OFFCURVE",
"658 588 OFFCURVE",
"623 568 CURVE",
"623 543 LINE"
);
},
{
closed = 1;
nodes = (
"395 -159 OFFCURVE",
"413 -140 OFFCURVE",
"413 -112 CURVE SMOOTH",
"413 -84 OFFCURVE",
"395 -64 OFFCURVE",
"367 -64 CURVE SMOOTH",
"339 -64 OFFCURVE",
"320 -84 OFFCURVE",
"320 -112 CURVE SMOOTH",
"320 -140 OFFCURVE",
"339 -159 OFFCURVE",
"367 -159 CURVE SMOOTH"
);
}
);
};
components = (
{
name = Ohorn;
},
{
name = dotbelowcomb;
transform = "{1, 0, 0, 1, 306, 0}";
}
);
layerId = "0B1DFD06-3317-40CA-B510-4969A0718C16";
width = 765;
}
);
leftKerningGroup = O;
note = Ohorndotbelow;
rightKerningGroup = O;
unicode = 1EE2;
},
{
glyphname = Ohorngrave;
lastChange = "2018-02-27 12:29:42 +0000";
layers = (
{
background = {
paths = (
{
closed = 1;
nodes = (
"602 -10 OFFCURVE",
"720 124 OFFCURVE",
"720 350 CURVE SMOOTH",
"720 574 OFFCURVE",
"602 710 OFFCURVE",
"379 710 CURVE SMOOTH",
"155 710 OFFCURVE",
"37 574 OFFCURVE",
"37 350 CURVE SMOOTH",
"37 124 OFFCURVE",
"155 -10 OFFCURVE",
"379 -10 CURVE SMOOTH"
);
},
{
closed = 1;
nodes = (
"216 32 OFFCURVE",
"136 158 OFFCURVE",
"136 350 CURVE SMOOTH",
"136 541 OFFCURVE",
"216 668 OFFCURVE",
"378 668 CURVE SMOOTH",
"542 668 OFFCURVE",
"621 541 OFFCURVE",
"621 350 CURVE SMOOTH",
"621 158 OFFCURVE",
"542 32 OFFCURVE",
"378 32 CURVE SMOOTH"
);
},
{
closed = 1;
nodes = (
"464 816 LINE",
"349 922 LINE",
"340 931 OFFCURVE",
"324 946 OFFCURVE",
"304 946 CURVE SMOOTH",
"284 946 OFFCURVE",
"272 933 OFFCURVE",
"272 917 CURVE SMOOTH",
"272 899 OFFCURVE",
"284 885 OFFCURVE",
"303 874 CURVE SMOOTH",
"446 791 LINE"
);
},
{
closed = 1;
nodes = (
"691 567 OFFCURVE",
"756 632 OFFCURVE",
"756 705 CURVE SMOOTH",
"756 752 OFFCURVE",
"729 772 OFFCURVE",
"701 772 CURVE SMOOTH",
"672 772 OFFCURVE",
"656 752 OFFCURVE",
"656 729 CURVE SMOOTH",
"656 695 OFFCURVE",
"689 688 OFFCURVE",
"689 653 CURVE SMOOTH",
"689 617 OFFCURVE",
"658 588 OFFCURVE",
"623 568 CURVE",
"623 543 LINE"
);
}
);
};
components = (
{
name = Ohorn;
},
{
name = gravecomb;
transform = "{1, 0, 0, 1, 232, 190}";
}
);
layerId = "0B1DFD06-3317-40CA-B510-4969A0718C16";
width = 765;
}
);
leftKerningGroup = O;
note = Ohorngrave;
rightKerningGroup = O;
unicode = 1EDC;
},
{
glyphname = Ohornhookabove;
lastChange = "2018-02-27 12:29:42 +0000";
layers = (
{
background = {
paths = (
{
closed = 1;
nodes = (
"602 -10 OFFCURVE",
"720 124 OFFCURVE",
"720 350 CURVE SMOOTH",
"720 574 OFFCURVE",
"602 710 OFFCURVE",
"379 710 CURVE SMOOTH",
"155 710 OFFCURVE",
"37 574 OFFCURVE",
"37 350 CURVE SMOOTH",
"37 124 OFFCURVE",
"155 -10 OFFCURVE",
"379 -10 CURVE SMOOTH"
);
},
{
closed = 1;
nodes = (
"216 32 OFFCURVE",
"136 158 OFFCURVE",
"136 350 CURVE SMOOTH",
"136 541 OFFCURVE",
"216 668 OFFCURVE",
"378 668 CURVE SMOOTH",
"542 668 OFFCURVE",
"621 541 OFFCURVE",
"621 350 CURVE SMOOTH",
"621 158 OFFCURVE",
"542 32 OFFCURVE",
"378 32 CURVE SMOOTH"
);
},
{
closed = 1;
nodes = (
"412 809 LINE",
"393 816 OFFCURVE",
"381 822 OFFCURVE",
"381 839 CURVE SMOOTH",
"381 872 OFFCURVE",
"470 887 OFFCURVE",
"470 938 CURVE SMOOTH",
"470 980 OFFCURVE",
"434 1002 OFFCURVE",
"381 1002 CURVE SMOOTH",
"334 1002 OFFCURVE",
"293 985 OFFCURVE",
"293 951 CURVE SMOOTH",
"293 934 OFFCURVE",
"301 926 OFFCURVE",
"316 926 CURVE SMOOTH",
"339 926 OFFCURVE",
"341 945 OFFCURVE",
"344 953 CURVE SMOOTH",
"349 967 OFFCURVE",
"366 973 OFFCURVE",
"382 973 CURVE SMOOTH",
"403 973 OFFCURVE",
"416 958 OFFCURVE",
"416 941 CURVE SMOOTH",
"416 896 OFFCURVE",
"334 885 OFFCURVE",
"334 839 CURVE SMOOTH",
"334 812 OFFCURVE",
"352 789 OFFCURVE",
"403 789 CURVE"
);
},
{
closed = 1;
nodes = (
"691 567 OFFCURVE",
"756 632 OFFCURVE",
"756 705 CURVE SMOOTH",
"756 752 OFFCURVE",
"729 772 OFFCURVE",
"701 772 CURVE SMOOTH",
"672 772 OFFCURVE",
"656 752 OFFCURVE",
"656 729 CURVE SMOOTH",
"656 695 OFFCURVE",
"689 688 OFFCURVE",
"689 653 CURVE SMOOTH",
"689 617 OFFCURVE",
"658 588 OFFCURVE",
"623 568 CURVE",
"623 543 LINE"
);
}
);
};
components = (
{
name = Ohorn;
},
{
name = hookabovecomb;
transform = "{1, 0, 0, 1, 313, 190}";
}
);
layerId = "0B1DFD06-3317-40CA-B510-4969A0718C16";
width = 765;
}
);
leftKerningGroup = O;
note = Ohornhookabove;
rightKerningGroup = O;
unicode = 1EDE;
},
{
glyphname = Ohorntilde;
lastChange = "2018-02-27 12:29:42 +0000";
layers = (
{
background = {
paths = (
{
closed = 1;
nodes = (
"602 -10 OFFCURVE",
"720 124 OFFCURVE",
"720 350 CURVE SMOOTH",
"720 574 OFFCURVE",
"602 710 OFFCURVE",
"379 710 CURVE SMOOTH",
"155 710 OFFCURVE",
"37 574 OFFCURVE",
"37 350 CURVE SMOOTH",
"37 124 OFFCURVE",
"155 -10 OFFCURVE",
"379 -10 CURVE SMOOTH"
);
},
{
closed = 1;
nodes = (
"216 32 OFFCURVE",
"136 158 OFFCURVE",
"136 350 CURVE SMOOTH",
"136 541 OFFCURVE",
"216 668 OFFCURVE",
"378 668 CURVE SMOOTH",
"542 668 OFFCURVE",
"621 541 OFFCURVE",
"621 350 CURVE SMOOTH",
"621 158 OFFCURVE",
"542 32 OFFCURVE",
"378 32 CURVE SMOOTH"
);
},
{
closed = 1;
nodes = (
"234 828 OFFCURVE",
"252 849 OFFCURVE",
"285 849 CURVE SMOOTH",
"336 849 OFFCURVE",
"385 795 OFFCURVE",
"436 795 CURVE SMOOTH",
"494 795 OFFCURVE",
"524 843 OFFCURVE",
"536 895 CURVE",
"515 906 LINE",
"499 866 OFFCURVE",
"483 844 OFFCURVE",
"449 844 CURVE SMOOTH",
"400 844 OFFCURVE",
"348 897 OFFCURVE",
"297 897 CURVE SMOOTH",
"243 897 OFFCURVE",
"210 853 OFFCURVE",
"198 801 CURVE",
"220 790 LINE"
);
},
{
closed = 1;
nodes = (
"691 567 OFFCURVE",
"756 632 OFFCURVE",
"756 705 CURVE SMOOTH",
"756 752 OFFCURVE",
"729 772 OFFCURVE",
"701 772 CURVE SMOOTH",
"672 772 OFFCURVE",
"656 752 OFFCURVE",
"656 729 CURVE SMOOTH",
"656 695 OFFCURVE",
"689 688 OFFCURVE",
"689 653 CURVE SMOOTH",
"689 617 OFFCURVE",
"658 588 OFFCURVE",
"623 568 CURVE",
"623 543 LINE"
);
}
);
};
components = (
{
name = Ohorn;
},
{
name = tildecomb;
transform = "{1, 0, 0, 1, 187, 190}";
}
);
layerId = "0B1DFD06-3317-40CA-B510-4969A0718C16";
width = 765;
}
);
leftKerningGroup = O;
note = Ohorntilde;
rightKerningGroup = O;
unicode = 1EE0;
},
{
glyphname = Ohungarumlaut;
lastChange = "2018-02-27 12:29:42 +0000";
layers = (
{
background = {
paths = (
{
closed = 1;
nodes = (
"601 -10 OFFCURVE",
"719 124 OFFCURVE",
"719 350 CURVE SMOOTH",
"719 574 OFFCURVE",
"601 710 OFFCURVE",
"378 710 CURVE SMOOTH",
"154 710 OFFCURVE",
"36 574 OFFCURVE",
"36 350 CURVE SMOOTH",
"36 124 OFFCURVE",
"154 -10 OFFCURVE",
"378 -10 CURVE SMOOTH"
);
},
{
closed = 1;
nodes = (
"215 32 OFFCURVE",
"135 158 OFFCURVE",
"135 350 CURVE SMOOTH",
"135 541 OFFCURVE",
"215 668 OFFCURVE",
"377 668 CURVE SMOOTH",
"541 668 OFFCURVE",
"620 541 OFFCURVE",
"620 350 CURVE SMOOTH",
"620 158 OFFCURVE",
"541 32 OFFCURVE",
"377 32 CURVE SMOOTH"
);
},
{
closed = 1;
nodes = (
"395 864 LINE SMOOTH",
"417 877 OFFCURVE",
"429 891 OFFCURVE",
"429 908 CURVE SMOOTH",
"429 922 OFFCURVE",
"421 937 OFFCURVE",
"399 937 CURVE SMOOTH",
"378 937 OFFCURVE",
"357 919 OFFCURVE",
"350 913 CURVE",
"236 807 LINE",
"253 782 LINE"
);
},
{
closed = 1;
nodes = (
"556 864 LINE SMOOTH",
"577 877 OFFCURVE",
"589 891 OFFCURVE",
"589 908 CURVE SMOOTH",
"589 922 OFFCURVE",
"578 937 OFFCURVE",
"556 937 CURVE SMOOTH",
"534 937 OFFCURVE",
"517 919 OFFCURVE",
"510 913 CURVE",
"396 807 LINE",
"414 782 LINE"
);
}
);
};
components = (
{
name = O;
},
{
name = hungarumlautcomb;
transform = "{1, 0, 0, 1, 218, 190}";
}
);
layerId = "0B1DFD06-3317-40CA-B510-4969A0718C16";
width = 765;
}
);
leftKerningGroup = O;
note = Ohungarumlaut;
rightKerningGroup = O;
unicode = 0150;
},
{
glyphname = Omacron;
lastChange = "2018-02-27 12:29:42 +0000";
layers = (
{
background = {
paths = (
{
closed = 1;
nodes = (
"601 -10 OFFCURVE",
"719 124 OFFCURVE",
"719 350 CURVE SMOOTH",
"719 574 OFFCURVE",
"601 710 OFFCURVE",
"378 710 CURVE SMOOTH",
"154 710 OFFCURVE",
"36 574 OFFCURVE",
"36 350 CURVE SMOOTH",
"36 124 OFFCURVE",
"154 -10 OFFCURVE",
"378 -10 CURVE SMOOTH"
);
},
{
closed = 1;
nodes = (
"215 32 OFFCURVE",
"135 158 OFFCURVE",
"135 350 CURVE SMOOTH",
"135 541 OFFCURVE",
"215 668 OFFCURVE",
"377 668 CURVE SMOOTH",
"541 668 OFFCURVE",
"620 541 OFFCURVE",
"620 350 CURVE SMOOTH",
"620 158 OFFCURVE",
"541 32 OFFCURVE",
"377 32 CURVE SMOOTH"
);
},
{
closed = 1;
nodes = (
"543 793 LINE",
"543 835 LINE",
"210 835 LINE",
"210 793 LINE"
);
}
);
};
components = (
{
name = O;
},
{
name = macroncomb;
transform = "{1, 0, 0, 1, 187, 190}";
}
);
layerId = "0B1DFD06-3317-40CA-B510-4969A0718C16";
width = 765;
}
);
leftKerningGroup = O;
note = Omacron;
rightKerningGroup = O;
unicode = 014C;
},
{
glyphname = Oslash;
lastChange = "2018-02-27 10:20:05 +0000";
layers = (
{
components = (
{
name = O;
}
);
layerId = "0B1DFD06-3317-40CA-B510-4969A0718C16";
paths = (
{
closed = 1;
nodes = (
"205 -60 LINE",
"621 760 LINE",
"561 760 LINE",
"145 -60 LINE"
);
}
);
width = 765;
}
);
note = Oslash;
unicode = 00D8;
},
{
glyphname = OE;
lastChange = "2018-02-27 09:01:30 +0000";
layers = (
{
layerId = "0B1DFD06-3317-40CA-B510-4969A0718C16";
paths = (
{
closed = 1;
nodes = (
"572 -12 OFFCURVE",
"689 140 OFFCURVE",
"689 350 CURVE",
"689 560 OFFCURVE",
"572 712 OFFCURVE",
"382 712 CURVE SMOOTH",
"193 712 OFFCURVE",
"56 560 OFFCURVE",
"56 350 CURVE SMOOTH",
"56 140 OFFCURVE",
"193 -12 OFFCURVE",
"382 -12 CURVE SMOOTH"
);
},
{
closed = 1;
nodes = (
"246 70 OFFCURVE",
"147 188 OFFCURVE",
"147 350 CURVE SMOOTH",
"147 512 OFFCURVE",
"246 630 OFFCURVE",
"382 630 CURVE SMOOTH",
"519 630 OFFCURVE",
"618 512 OFFCURVE",
"618 350 CURVE SMOOTH",
"618 188 OFFCURVE",
"519 70 OFFCURVE",
"382 70 CURVE SMOOTH"
);
},
{
closed = 1;
nodes = (
"1013 0 LINE SMOOTH",
"1065 0 OFFCURVE",
"1087 14 OFFCURVE",
"1087 53 CURVE SMOOTH",
"1087 73 OFFCURVE",
"1083 84 OFFCURVE",
"1072 99 CURVE",
"1061 86 OFFCURVE",
"1041 82 OFFCURVE",
"997 82 CURVE SMOOTH",
"705 82 LINE",
"705 316 LINE",
"1011 316 LINE",
"1011 398 LINE",
"705 398 LINE",
"705 618 LINE",
"1069 618 LINE",
"1069 700 LINE",
"618 700 LINE",
"618 0 LINE"
);
}
);
width = 1127;
}
);
leftMetricsKey = O;
note = OE;
rightMetricsKey = E;
unicode = 0152;
},
{
glyphname = Thorn;
lastChange = "2018-02-27 10:20:05 +0000";
layers = (
{
layerId = "0B1DFD06-3317-40CA-B510-4969A0718C16";
paths = (
{
closed = 1;
nodes = (
"171 0 LINE",
"171 160 LINE",
"321 160 LINE SMOOTH",
"443 160 OFFCURVE",
"562 208 OFFCURVE",
"562 360 CURVE SMOOTH",
"562 512 OFFCURVE",
"443 560 OFFCURVE",
"321 560 CURVE SMOOTH",
"171 560 LINE",
"171 720 LINE",
"83 720 LINE",
"83 0 LINE"
);
},
{
closed = 1;
nodes = (
"171 478 LINE",
"318 478 LINE SMOOTH",
"411 478 OFFCURVE",
"472 448 OFFCURVE",
"472 360 CURVE SMOOTH",
"472 272 OFFCURVE",
"411 242 OFFCURVE",
"318 242 CURVE SMOOTH",
"171 242 LINE"
);
}
);
width = 604;
}
);
leftMetricsKey = P;
note = Thorn;
rightMetricsKey = P;
unicode = 00DE;
},
{
color = 0;
glyphname = Germandbls;
lastChange = "2018-02-27 09:18:53 +0000";
layers = (
{
layerId = "0B1DFD06-3317-40CA-B510-4969A0718C16";
paths = (
{
closed = 1;
nodes = (
"551 -10 OFFCURVE",
"619 83 OFFCURVE",
"619 198 CURVE SMOOTH",
"619 308 OFFCURVE",
"545 386 OFFCURVE",
"398 399 CURVE",
"566 537 LINE",
"526 642 OFFCURVE",
"464 710 OFFCURVE",
"319 710 CURVE SMOOTH",
"152 710 OFFCURVE",
"77 616 OFFCURVE",
"77 470 CURVE SMOOTH",
"77 0 LINE",
"166 0 LINE",
"166 485 LINE SMOOTH",
"166 592 OFFCURVE",
"221 628 OFFCURVE",
"312 628 CURVE SMOOTH",
"406 628 OFFCURVE",
"451 607 OFFCURVE",
"471 545 CURVE",
"289 395 LINE",
"289 321 LINE",
"351 321 LINE SMOOTH",
"465 321 OFFCURVE",
"528 291 OFFCURVE",
"528 209 CURVE SMOOTH",
"528 138 OFFCURVE",
"480 72 OFFCURVE",
"370 72 CURVE SMOOTH",
"327 72 OFFCURVE",
"266 83 OFFCURVE",
"245 131 CURVE",
"227 121 OFFCURVE",
"222 102 OFFCURVE",
"222 80 CURVE SMOOTH",
"222 16 OFFCURVE",
"302 -10 OFFCURVE",
"386 -10 CURVE SMOOTH"
);
}
);
width = 661;
}
);
note = uni1E9E;
rightMetricsKey = B;
unicode = 1E9E;
},
{
color = 0;
glyphname = Schwa;
lastChange = "2018-02-27 08:38:35 +0000";
layers = (
{
layerId = "0B1DFD06-3317-40CA-B510-4969A0718C16";
paths = (
{
closed = 1;
nodes = (
"549 -12 OFFCURVE",
"682 140 OFFCURVE",
"682 349 CURVE SMOOTH",
"682 560 OFFCURVE",
"543 712 OFFCURVE",
"350 712 CURVE SMOOTH",
"241 712 OFFCURVE",
"96 637 OFFCURVE",
"96 562 CURVE SMOOTH",
"96 537 OFFCURVE",
"105 520 OFFCURVE",
"141 508 CURVE",
"183 568 OFFCURVE",
"249 629 OFFCURVE",
"350 629 CURVE SMOOTH",
"490 629 OFFCURVE",
"591 527 OFFCURVE",
"591 387 CURVE",
"67 387 LINE",
"60 372 OFFCURVE",
"56 349 OFFCURVE",
"56 330 CURVE SMOOTH",
"56 132 OFFCURVE",
"186 -12 OFFCURVE",
"365 -12 CURVE SMOOTH"
);
},
{
closed = 1;
nodes = (
"239 72 OFFCURVE",
"154 166 OFFCURVE",
"147 313 CURVE",
"588 313 LINE",
"570 166 OFFCURVE",
"483 72 OFFCURVE",
"365 72 CURVE SMOOTH"
);
}
);
width = 738;
}
);
note = uni018F;
unicode = 018F;
},
{
glyphname = Tbar;
lastChange = "2018-02-27 08:54:47 +0000";
layers = (
{
components = (
{
name = T;
}
);
layerId = "0B1DFD06-3317-40CA-B510-4969A0718C16";
paths = (
{
closed = 1;
nodes = (
"473 304 LINE",
"473 344 LINE",
"93 344 LINE",
"93 304 LINE"
);
}
);
width = 566;
}
);
leftKerningGroup = T;
note = Tbar;
rightKerningGroup = T;
unicode = 0166;
},
{
glyphname = Uacute;
lastChange = "2018-02-27 12:29:49 +0000";
layers = (
{
background = {
paths = (
{
closed = 1;
nodes = (
"539 -10 OFFCURVE",
"636 51 OFFCURVE",
"636 204 CURVE SMOOTH",
"636 637 LINE SMOOTH",
"636 662 OFFCURVE",
"660 673 OFFCURVE",
"690 673 CURVE SMOOTH",
"713 673 LINE",
"713 700 LINE",
"510 700 LINE",
"510 673 LINE",
"532 673 LINE SMOOTH",
"564 673 OFFCURVE",
"586 662 OFFCURVE",
"586 637 CURVE SMOOTH",
"586 197 LINE SMOOTH",
"586 65 OFFCURVE",
"489 31 OFFCURVE",
"397 31 CURVE SMOOTH",
"290 31 OFFCURVE",
"203 63 OFFCURVE",
"203 197 CURVE SMOOTH",
"203 637 LINE SMOOTH",
"203 662 OFFCURVE",
"226 673 OFFCURVE",
"257 673 CURVE SMOOTH",
"280 673 LINE",
"280 700 LINE",
"28 700 LINE",
"28 673 LINE",
"51 673 LINE SMOOTH",
"82 673 OFFCURVE",
"105 662 OFFCURVE",
"105 637 CURVE SMOOTH",
"105 204 LINE SMOOTH",
"105 46 OFFCURVE",
"208 -10 OFFCURVE",
"375 -10 CURVE SMOOTH"
);
},
{
closed = 1;
nodes = (
"447 865 LINE SMOOTH",
"469 877 OFFCURVE",
"481 890 OFFCURVE",
"481 907 CURVE SMOOTH",
"481 922 OFFCURVE",
"469 937 OFFCURVE",
"447 937 CURVE SMOOTH",
"426 937 OFFCURVE",
"411 921 OFFCURVE",
"403 914 CURVE SMOOTH",
"288 807 LINE",
"305 782 LINE"
);
}
);
};
components = (
{
name = U;
},
{
name = acutecomb;
transform = "{1, 0, 0, 1, 255, 190}";
}
);
layerId = "0B1DFD06-3317-40CA-B510-4969A0718C16";
width = 707;
}
);
leftKerningGroup = U;
note = Uacute;
rightKerningGroup = U;
unicode = 00DA;
},
{
glyphname = Ubreve;
lastChange = "2018-02-27 12:29:49 +0000";
layers = (
{
background = {
paths = (
{
closed = 1;
nodes = (
"539 -10 OFFCURVE",
"636 51 OFFCURVE",
"636 204 CURVE SMOOTH",
"636 637 LINE SMOOTH",
"636 662 OFFCURVE",
"660 673 OFFCURVE",
"690 673 CURVE SMOOTH",
"713 673 LINE",
"713 700 LINE",
"510 700 LINE",
"510 673 LINE",
"532 673 LINE SMOOTH",
"564 673 OFFCURVE",
"586 662 OFFCURVE",
"586 637 CURVE SMOOTH",
"586 197 LINE SMOOTH",
"586 65 OFFCURVE",
"489 31 OFFCURVE",
"397 31 CURVE SMOOTH",
"290 31 OFFCURVE",
"203 63 OFFCURVE",
"203 197 CURVE SMOOTH",
"203 637 LINE SMOOTH",
"203 662 OFFCURVE",
"226 673 OFFCURVE",
"257 673 CURVE SMOOTH",
"280 673 LINE",
"280 700 LINE",
"28 700 LINE",
"28 673 LINE",
"51 673 LINE SMOOTH",
"82 673 OFFCURVE",
"105 662 OFFCURVE",
"105 637 CURVE SMOOTH",
"105 204 LINE SMOOTH",
"105 46 OFFCURVE",
"208 -10 OFFCURVE",
"375 -10 CURVE SMOOTH"
);
},
{
closed = 1;
nodes = (
"483 774 OFFCURVE",
"525 830 OFFCURVE",
"529 905 CURVE",
"496 905 LINE",
"490 846 OFFCURVE",
"448 820 OFFCURVE",
"384 820 CURVE SMOOTH",
"320 820 OFFCURVE",
"277 846 OFFCURVE",
"270 905 CURVE",
"237 905 LINE",
"241 827 OFFCURVE",
"283 774 OFFCURVE",
"384 774 CURVE SMOOTH"
);
}
);
};
components = (
{
name = U;
},
{
name = brevecomb;
transform = "{1, 0, 0, 1, 177, 190}";
}
);
layerId = "0B1DFD06-3317-40CA-B510-4969A0718C16";
width = 707;
}
);
leftKerningGroup = U;
note = Ubreve;
rightKerningGroup = U;
unicode = 016C;
},
{
glyphname = Ucaron;
lastChange = "2018-02-27 12:29:49 +0000";
layers = (
{
background = {
paths = (
{
closed = 1;
nodes = (
"539 -10 OFFCURVE",
"636 51 OFFCURVE",
"636 204 CURVE SMOOTH",
"636 637 LINE SMOOTH",
"636 662 OFFCURVE",
"660 673 OFFCURVE",
"690 673 CURVE SMOOTH",
"713 673 LINE",
"713 700 LINE",
"510 700 LINE",
"510 673 LINE",
"532 673 LINE SMOOTH",
"564 673 OFFCURVE",
"586 662 OFFCURVE",
"586 637 CURVE SMOOTH",
"586 197 LINE SMOOTH",
"586 65 OFFCURVE",
"489 31 OFFCURVE",
"397 31 CURVE SMOOTH",
"290 31 OFFCURVE",
"203 63 OFFCURVE",
"203 197 CURVE SMOOTH",
"203 637 LINE SMOOTH",
"203 662 OFFCURVE",
"226 673 OFFCURVE",
"257 673 CURVE SMOOTH",
"280 673 LINE",
"280 700 LINE",
"28 700 LINE",
"28 673 LINE",
"51 673 LINE SMOOTH",
"82 673 OFFCURVE",
"105 662 OFFCURVE",
"105 637 CURVE SMOOTH",
"105 204 LINE SMOOTH",
"105 46 OFFCURVE",
"208 -10 OFFCURVE",
"375 -10 CURVE SMOOTH"
);
},
{
closed = 1;
nodes = (
"397 782 LINE",
"521 911 LINE",
"502 932 LINE",
"394 847 LINE",
"386 840 OFFCURVE",
"377 836 OFFCURVE",
"371 836 CURVE SMOOTH",
"365 836 OFFCURVE",
"357 840 OFFCURVE",
"347 847 CURVE",
"239 932 LINE",
"220 911 LINE",
"344 782 LINE"
);
}
);
};
components = (
{
name = U;
},
{
name = caroncomb;
transform = "{1, 0, 0, 1, 174, 190}";
}
);
layerId = "0B1DFD06-3317-40CA-B510-4969A0718C16";
width = 707;
}
);
leftKerningGroup = U;
note = Ucaron;
rightKerningGroup = U;
unicode = 01D3;
},
{
glyphname = Ucircumflex;
lastChange = "2018-02-27 12:29:49 +0000";
layers = (
{
background = {
paths = (
{
closed = 1;
nodes = (
"539 -10 OFFCURVE",
"636 51 OFFCURVE",
"636 204 CURVE SMOOTH",
"636 637 LINE SMOOTH",
"636 662 OFFCURVE",
"660 673 OFFCURVE",
"690 673 CURVE SMOOTH",
"713 673 LINE",
"713 700 LINE",
"510 700 LINE",
"510 673 LINE",
"532 673 LINE SMOOTH",
"564 673 OFFCURVE",
"586 662 OFFCURVE",
"586 637 CURVE SMOOTH",
"586 197 LINE SMOOTH",
"586 65 OFFCURVE",
"489 31 OFFCURVE",
"397 31 CURVE SMOOTH",
"290 31 OFFCURVE",
"203 63 OFFCURVE",
"203 197 CURVE SMOOTH",
"203 637 LINE SMOOTH",
"203 662 OFFCURVE",
"226 673 OFFCURVE",
"257 673 CURVE SMOOTH",
"280 673 LINE",
"280 700 LINE",
"28 700 LINE",
"28 673 LINE",
"51 673 LINE SMOOTH",
"82 673 OFFCURVE",
"105 662 OFFCURVE",
"105 637 CURVE SMOOTH",
"105 204 LINE SMOOTH",
"105 46 OFFCURVE",
"208 -10 OFFCURVE",
"375 -10 CURVE SMOOTH"
);
},
{
closed = 1;
nodes = (
"360 868 LINE SMOOTH",
"368 874 OFFCURVE",
"378 879 OFFCURVE",
"384 879 CURVE SMOOTH",
"390 879 OFFCURVE",
"398 874 OFFCURVE",
"407 868 CURVE",
"515 782 LINE",
"534 803 LINE",
"410 932 LINE",
"357 932 LINE",
"233 803 LINE",
"252 782 LINE"
);
}
);
};
components = (
{
name = U;
},
{
name = circumflexcomb;
transform = "{1, 0, 0, 1, 174, 190}";
}
);
layerId = "0B1DFD06-3317-40CA-B510-4969A0718C16";
width = 707;
}
);
leftKerningGroup = U;
note = Ucircumflex;
rightKerningGroup = U;
unicode = 00DB;
},
{
glyphname = Udieresis;
lastChange = "2018-02-27 12:29:49 +0000";
layers = (
{
background = {
paths = (
{
closed = 1;
nodes = (
"539 -10 OFFCURVE",
"636 51 OFFCURVE",
"636 204 CURVE SMOOTH",
"636 637 LINE SMOOTH",
"636 662 OFFCURVE",
"660 673 OFFCURVE",
"690 673 CURVE SMOOTH",
"713 673 LINE",
"713 700 LINE",
"510 700 LINE",
"510 673 LINE",
"532 673 LINE SMOOTH",
"564 673 OFFCURVE",
"586 662 OFFCURVE",
"586 637 CURVE SMOOTH",
"586 197 LINE SMOOTH",
"586 65 OFFCURVE",
"489 31 OFFCURVE",
"397 31 CURVE SMOOTH",
"290 31 OFFCURVE",
"203 63 OFFCURVE",
"203 197 CURVE SMOOTH",
"203 637 LINE SMOOTH",
"203 662 OFFCURVE",
"226 673 OFFCURVE",
"257 673 CURVE SMOOTH",
"280 673 LINE",
"280 700 LINE",
"28 700 LINE",
"28 673 LINE",
"51 673 LINE SMOOTH",
"82 673 OFFCURVE",
"105 662 OFFCURVE",
"105 637 CURVE SMOOTH",
"105 204 LINE SMOOTH",
"105 46 OFFCURVE",
"208 -10 OFFCURVE",
"375 -10 CURVE SMOOTH"
);
},
{
closed = 1;
nodes = (
"304 781 OFFCURVE",
"322 800 OFFCURVE",
"322 827 CURVE SMOOTH",
"322 855 OFFCURVE",
"304 875 OFFCURVE",
"275 875 CURVE SMOOTH",
"247 875 OFFCURVE",
"229 855 OFFCURVE",
"229 827 CURVE SMOOTH",
"229 800 OFFCURVE",
"247 781 OFFCURVE",
"275 781 CURVE SMOOTH"
);
},
{
closed = 1;
nodes = (
"520 781 OFFCURVE",
"538 800 OFFCURVE",
"538 827 CURVE SMOOTH",
"538 855 OFFCURVE",
"520 875 OFFCURVE",
"491 875 CURVE SMOOTH",
"462 875 OFFCURVE",
"444 855 OFFCURVE",
"444 827 CURVE SMOOTH",
"444 800 OFFCURVE",
"462 781 OFFCURVE",
"491 781 CURVE SMOOTH"
);
}
);
};
components = (
{
name = U;
},
{
name = dieresiscomb;
transform = "{1, 0, 0, 1, 180, 190}";
}
);
layerId = "0B1DFD06-3317-40CA-B510-4969A0718C16";
width = 707;
}
);
leftKerningGroup = U;
note = Udieresis;
rightKerningGroup = U;
unicode = 00DC;
},
{
glyphname = Udieresisacute;
lastChange = "2018-02-27 12:29:49 +0000";
layers = (
{
background = {
paths = (
{
closed = 1;
nodes = (
"539 -10 OFFCURVE",
"636 51 OFFCURVE",
"636 204 CURVE SMOOTH",
"636 637 LINE SMOOTH",
"636 662 OFFCURVE",
"660 673 OFFCURVE",
"690 673 CURVE SMOOTH",
"713 673 LINE",
"713 700 LINE",
"510 700 LINE",
"510 673 LINE",
"532 673 LINE SMOOTH",
"564 673 OFFCURVE",
"586 662 OFFCURVE",
"586 637 CURVE SMOOTH",
"586 197 LINE SMOOTH",
"586 65 OFFCURVE",
"489 31 OFFCURVE",
"397 31 CURVE SMOOTH",
"290 31 OFFCURVE",
"203 63 OFFCURVE",
"203 197 CURVE SMOOTH",
"203 637 LINE SMOOTH",
"203 662 OFFCURVE",
"226 673 OFFCURVE",
"257 673 CURVE SMOOTH",
"280 673 LINE",
"280 700 LINE",
"28 700 LINE",
"28 673 LINE",
"51 673 LINE SMOOTH",
"82 673 OFFCURVE",
"105 662 OFFCURVE",
"105 637 CURVE SMOOTH",
"105 204 LINE SMOOTH",
"105 46 OFFCURVE",
"208 -10 OFFCURVE",
"375 -10 CURVE SMOOTH"
);
},
{
closed = 1;
nodes = (
"291 780 OFFCURVE",
"310 799 OFFCURVE",
"310 827 CURVE SMOOTH",
"310 855 OFFCURVE",
"291 875 OFFCURVE",
"262 875 CURVE SMOOTH",
"235 875 OFFCURVE",
"216 855 OFFCURVE",
"216 827 CURVE SMOOTH",
"216 799 OFFCURVE",
"235 780 OFFCURVE",
"262 780 CURVE SMOOTH"
);
},
{
closed = 1;
nodes = (
"507 780 OFFCURVE",
"526 799 OFFCURVE",
"526 827 CURVE SMOOTH",
"526 855 OFFCURVE",
"507 875 OFFCURVE",
"479 875 CURVE SMOOTH",
"451 875 OFFCURVE",
"432 855 OFFCURVE",
"432 827 CURVE SMOOTH",
"432 799 OFFCURVE",
"451 780 OFFCURVE",
"479 780 CURVE SMOOTH"
);
},
{
closed = 1;
nodes = (
"481 969 LINE SMOOTH",
"502 981 OFFCURVE",
"512 993 OFFCURVE",
"512 1009 CURVE SMOOTH",
"512 1024 OFFCURVE",
"503 1037 OFFCURVE",
"481 1037 CURVE SMOOTH",
"460 1037 OFFCURVE",
"442 1020 OFFCURVE",
"435 1013 CURVE SMOOTH",
"344 924 LINE",
"362 899 LINE"
);
}
);
};
components = (
{
name = U;
},
{
name = dieresiscomb;
transform = "{1, 0, 0, 1, 180, 190}";
},
{
name = acutecomb;
transform = "{1, 0, 0, 1, 255, 333}";
}
);
layerId = "0B1DFD06-3317-40CA-B510-4969A0718C16";
width = 707;
}
);
leftKerningGroup = U;
note = Udieresisacute;
rightKerningGroup = U;
unicode = 01D7;
},
{
glyphname = Udieresiscaron;
lastChange = "2018-02-27 12:29:49 +0000";
layers = (
{
background = {
paths = (
{
closed = 1;
nodes = (
"539 -10 OFFCURVE",
"636 51 OFFCURVE",
"636 204 CURVE SMOOTH",
"636 637 LINE SMOOTH",
"636 662 OFFCURVE",
"660 673 OFFCURVE",
"690 673 CURVE SMOOTH",
"713 673 LINE",
"713 700 LINE",
"510 700 LINE",
"510 673 LINE",
"532 673 LINE SMOOTH",
"564 673 OFFCURVE",
"586 662 OFFCURVE",
"586 637 CURVE SMOOTH",
"586 197 LINE SMOOTH",
"586 65 OFFCURVE",
"489 31 OFFCURVE",
"397 31 CURVE SMOOTH",
"290 31 OFFCURVE",
"203 63 OFFCURVE",
"203 197 CURVE SMOOTH",
"203 637 LINE SMOOTH",
"203 662 OFFCURVE",
"226 673 OFFCURVE",
"257 673 CURVE SMOOTH",
"280 673 LINE",
"280 700 LINE",
"28 700 LINE",
"28 673 LINE",
"51 673 LINE SMOOTH",
"82 673 OFFCURVE",
"105 662 OFFCURVE",
"105 637 CURVE SMOOTH",
"105 204 LINE SMOOTH",
"105 46 OFFCURVE",
"208 -10 OFFCURVE",
"375 -10 CURVE SMOOTH"
);
},
{
closed = 1;
nodes = (
"296 780 OFFCURVE",
"315 799 OFFCURVE",
"315 827 CURVE SMOOTH",
"315 855 OFFCURVE",
"296 875 OFFCURVE",
"267 875 CURVE SMOOTH",
"240 875 OFFCURVE",
"221 855 OFFCURVE",
"221 827 CURVE SMOOTH",
"221 799 OFFCURVE",
"240 780 OFFCURVE",
"267 780 CURVE SMOOTH"
);
},
{
closed = 1;
nodes = (
"512 780 OFFCURVE",
"531 799 OFFCURVE",
"531 827 CURVE SMOOTH",
"531 855 OFFCURVE",
"512 875 OFFCURVE",
"484 875 CURVE SMOOTH",
"456 875 OFFCURVE",
"437 855 OFFCURVE",
"437 827 CURVE SMOOTH",
"437 799 OFFCURVE",
"456 780 OFFCURVE",
"484 780 CURVE SMOOTH"
);
},
{
closed = 1;
nodes = (
"401 911 LINE",
"523 1035 LINE",
"505 1056 LINE",
"404 978 LINE",
"394 971 OFFCURVE",
"385 963 OFFCURVE",
"376 963 CURVE SMOOTH",
"369 963 OFFCURVE",
"357 971 OFFCURVE",
"347 978 CURVE",
"246 1056 LINE",
"228 1035 LINE",
"350 911 LINE"
);
}
);
};
components = (
{
name = U;
},
{
name = dieresiscomb;
transform = "{1, 0, 0, 1, 180, 190}";
},
{
name = caroncomb;
transform = "{1, 0, 0, 1, 174, 333}";
}
);
layerId = "0B1DFD06-3317-40CA-B510-4969A0718C16";
width = 707;
}
);
leftKerningGroup = U;
note = Udieresiscaron;
rightKerningGroup = U;
unicode = 01D9;
},
{
glyphname = Udieresisgrave;
lastChange = "2018-02-27 12:29:49 +0000";
layers = (
{
background = {
paths = (
{
closed = 1;
nodes = (
"539 -10 OFFCURVE",
"636 51 OFFCURVE",
"636 204 CURVE SMOOTH",
"636 637 LINE SMOOTH",
"636 662 OFFCURVE",
"660 673 OFFCURVE",
"690 673 CURVE SMOOTH",
"713 673 LINE",
"713 700 LINE",
"510 700 LINE",
"510 673 LINE",
"532 673 LINE SMOOTH",
"564 673 OFFCURVE",
"586 662 OFFCURVE",
"586 637 CURVE SMOOTH",
"586 197 LINE SMOOTH",
"586 65 OFFCURVE",
"489 31 OFFCURVE",
"397 31 CURVE SMOOTH",
"290 31 OFFCURVE",
"203 63 OFFCURVE",
"203 197 CURVE SMOOTH",
"203 637 LINE SMOOTH",
"203 662 OFFCURVE",
"226 673 OFFCURVE",
"257 673 CURVE SMOOTH",
"280 673 LINE",
"280 700 LINE",
"28 700 LINE",
"28 673 LINE",
"51 673 LINE SMOOTH",
"82 673 OFFCURVE",
"105 662 OFFCURVE",
"105 637 CURVE SMOOTH",
"105 204 LINE SMOOTH",
"105 46 OFFCURVE",
"208 -10 OFFCURVE",
"375 -10 CURVE SMOOTH"
);
},
{
closed = 1;
nodes = (
"296 780 OFFCURVE",
"315 799 OFFCURVE",
"315 827 CURVE SMOOTH",
"315 855 OFFCURVE",
"296 875 OFFCURVE",
"267 875 CURVE SMOOTH",
"240 875 OFFCURVE",
"221 855 OFFCURVE",
"221 827 CURVE SMOOTH",
"221 799 OFFCURVE",
"240 780 OFFCURVE",
"267 780 CURVE SMOOTH"
);
},
{
closed = 1;
nodes = (
"403 924 LINE",
"312 1013 LINE SMOOTH",
"305 1020 OFFCURVE",
"288 1036 OFFCURVE",
"267 1036 CURVE SMOOTH",
"245 1036 OFFCURVE",
"235 1024 OFFCURVE",
"235 1009 CURVE SMOOTH",
"235 993 OFFCURVE",
"245 981 OFFCURVE",
"266 969 CURVE SMOOTH",
"385 899 LINE"
);
},
{
closed = 1;
nodes = (
"512 780 OFFCURVE",
"531 799 OFFCURVE",
"531 827 CURVE SMOOTH",
"531 855 OFFCURVE",
"512 875 OFFCURVE",
"484 875 CURVE SMOOTH",
"456 875 OFFCURVE",
"437 855 OFFCURVE",
"437 827 CURVE SMOOTH",
"437 799 OFFCURVE",
"456 780 OFFCURVE",
"484 780 CURVE SMOOTH"
);
}
);
};
components = (
{
name = U;
},
{
name = dieresiscomb;
transform = "{1, 0, 0, 1, 180, 190}";
},
{
name = gravecomb;
transform = "{1, 0, 0, 1, 203, 333}";
}
);
layerId = "0B1DFD06-3317-40CA-B510-4969A0718C16";
width = 707;
}
);
leftKerningGroup = U;
note = Udieresisgrave;
rightKerningGroup = U;
unicode = 01DB;
},
{
glyphname = Udieresismacron;
lastChange = "2018-02-27 12:29:49 +0000";
layers = (
{
background = {
paths = (
{
closed = 1;
nodes = (
"539 -10 OFFCURVE",
"636 51 OFFCURVE",
"636 204 CURVE SMOOTH",
"636 637 LINE SMOOTH",
"636 662 OFFCURVE",
"660 673 OFFCURVE",
"690 673 CURVE SMOOTH",
"713 673 LINE",
"713 700 LINE",
"510 700 LINE",
"510 673 LINE",
"532 673 LINE SMOOTH",
"564 673 OFFCURVE",
"586 662 OFFCURVE",
"586 637 CURVE SMOOTH",
"586 197 LINE SMOOTH",
"586 65 OFFCURVE",
"489 31 OFFCURVE",
"397 31 CURVE SMOOTH",
"290 31 OFFCURVE",
"203 63 OFFCURVE",
"203 197 CURVE SMOOTH",
"203 637 LINE SMOOTH",
"203 662 OFFCURVE",
"226 673 OFFCURVE",
"257 673 CURVE SMOOTH",
"280 673 LINE",
"280 700 LINE",
"28 700 LINE",
"28 673 LINE",
"51 673 LINE SMOOTH",
"82 673 OFFCURVE",
"105 662 OFFCURVE",
"105 637 CURVE SMOOTH",
"105 204 LINE SMOOTH",
"105 46 OFFCURVE",
"208 -10 OFFCURVE",
"375 -10 CURVE SMOOTH"
);
},
{
closed = 1;
nodes = (
"291 781 OFFCURVE",
"309 800 OFFCURVE",
"309 827 CURVE SMOOTH",
"309 855 OFFCURVE",
"291 875 OFFCURVE",
"262 875 CURVE SMOOTH",
"234 875 OFFCURVE",
"216 855 OFFCURVE",
"216 827 CURVE SMOOTH",
"216 800 OFFCURVE",
"234 781 OFFCURVE",
"262 781 CURVE SMOOTH"
);
},
{
closed = 1;
nodes = (
"507 781 OFFCURVE",
"525 800 OFFCURVE",
"525 827 CURVE SMOOTH",
"525 855 OFFCURVE",
"507 875 OFFCURVE",
"478 875 CURVE SMOOTH",
"449 875 OFFCURVE",
"431 855 OFFCURVE",
"431 827 CURVE SMOOTH",
"431 800 OFFCURVE",
"449 781 OFFCURVE",
"478 781 CURVE SMOOTH"
);
},
{
closed = 1;
nodes = (
"537 928 LINE",
"537 970 LINE",
"204 970 LINE",
"204 928 LINE"
);
}
);
};
components = (
{
name = U;
},
{
name = dieresiscomb;
transform = "{1, 0, 0, 1, 180, 190}";
},
{
name = macroncomb;
transform = "{1, 0, 0, 1, 158, 333}";
}
);
layerId = "0B1DFD06-3317-40CA-B510-4969A0718C16";
width = 707;
}
);
leftKerningGroup = U;
note = Udieresismacron;
rightKerningGroup = U;
unicode = 01D5;
},
{
color = 0;
glyphname = "alpha-latin";
lastChange = "2018-02-27 11:34:11 +0000";
layers = (
{
layerId = "0B1DFD06-3317-40CA-B510-4969A0718C16";
paths = (
{
closed = 1;
nodes = (
"335 -11 OFFCURVE",
"401 21 OFFCURVE",
"438 77 CURVE",
"438 66 LINE SMOOTH",
"438 14 OFFCURVE",
"449 -8 OFFCURVE",
"489 -8 CURVE SMOOTH",
"506 -8 OFFCURVE",
"519 -4 OFFCURVE",
"532 7 CURVE",
"520 19 OFFCURVE",
"516 38 OFFCURVE",
"516 82 CURVE SMOOTH",
"516 306 LINE SMOOTH",
"516 438 OFFCURVE",
"424 522 OFFCURVE",
"280 522 CURVE SMOOTH",
"139 522 OFFCURVE",
"46 407 OFFCURVE",
"46 240 CURVE SMOOTH",
"46 82 OFFCURVE",
"130 -11 OFFCURVE",
"259 -11 CURVE SMOOTH"
);
},
{
closed = 1;
nodes = (
"174 59 OFFCURVE",
"130 113 OFFCURVE",
"130 235 CURVE SMOOTH",
"130 374 OFFCURVE",
"187 451 OFFCURVE",
"293 451 CURVE SMOOTH",
"380 451 OFFCURVE",
"436 400 OFFCURVE",
"436 307 CURVE SMOOTH",
"436 255 LINE SMOOTH",
"436 129 OFFCURVE",
"366 59 OFFCURVE",
"264 59 CURVE SMOOTH"
);
}
);
width = 558;
}
);
leftKerningGroup = a;
note = ascript;
rightKerningGroup = a;
unicode = 0251;
},
{
glyphname = ae;
lastChange = "2018-02-27 09:15:59 +0000";
layers = (
{
anchors = (
{
name = bottom;
position = "{456, 0}";
},
{
name = top;
position = "{456, 510}";
}
);
layerId = "0B1DFD06-3317-40CA-B510-4969A0718C16";
paths = (
{
closed = 1;
nodes = (
"730 -12 OFFCURVE",
"844 31 OFFCURVE",
"844 90 CURVE SMOOTH",
"844 112 OFFCURVE",
"837 129 OFFCURVE",
"811 138 CURVE",
"780 94 OFFCURVE",
"709 56 OFFCURVE",
"645 56 CURVE SMOOTH",
"549 56 OFFCURVE",
"478 124 OFFCURVE",
"478 227 CURVE",
"858 227 LINE",
"863 238 OFFCURVE",
"866 255 OFFCURVE",
"866 269 CURVE SMOOTH",
"866 400 OFFCURVE",
"791 521 OFFCURVE",
"634 521 CURVE SMOOTH",
"481 521 OFFCURVE",
"396 395 OFFCURVE",
"396 255 CURVE SMOOTH",
"396 79 OFFCURVE",
"494 -12 OFFCURVE",
"645 -12 CURVE SMOOTH"
);
},
{
closed = 1;
nodes = (
"170 59 OFFCURVE",
"120 84 OFFCURVE",
"120 142 CURVE SMOOTH",
"120 223 OFFCURVE",
"191 242 OFFCURVE",
"251 242 CURVE SMOOTH",
"310 242 OFFCURVE",
"388 215 OFFCURVE",
"388 175 CURVE SMOOTH",
"388 105 OFFCURVE",
"319 59 OFFCURVE",
"235 59 CURVE SMOOTH"
);
},
{
closed = 1;
nodes = (
"370 -10 OFFCURVE",
"468 74 OFFCURVE",
"468 206 CURVE SMOOTH",
"468 330 LINE SMOOTH",
"468 447 OFFCURVE",
"387 521 OFFCURVE",
"259 521 CURVE SMOOTH",
"166 521 OFFCURVE",
"56 478 OFFCURVE",
"56 419 CURVE SMOOTH",
"56 397 OFFCURVE",
"63 380 OFFCURVE",
"89 371 CURVE",
"120 415 OFFCURVE",
"183 451 OFFCURVE",
"255 451 CURVE SMOOTH",
"340 451 OFFCURVE",
"388 408 OFFCURVE",
"388 330 CURVE SMOOTH",
"388 255 LINE",
"362 283 OFFCURVE",
"311 305 OFFCURVE",
"251 305 CURVE SMOOTH",
"145 305 OFFCURVE",
"40 265 OFFCURVE",
"40 141 CURVE SMOOTH",
"40 40 OFFCURVE",
"124 -10 OFFCURVE",
"221 -10 CURVE SMOOTH"
);
},
{
closed = 1;
nodes = (
"492 380 OFFCURVE",
"543 452 OFFCURVE",
"634 452 CURVE SMOOTH",
"734 452 OFFCURVE",
"780 382 OFFCURVE",
"784 294 CURVE",
"480 294 LINE"
);
}
);
width = 912;
}
);
leftMetricsKey = a;
note = ae;
rightMetricsKey = e;
unicode = 00E6;
},
{
glyphname = eth;
lastChange = "2018-02-27 08:55:52 +0000";
layers = (
{
layerId = "0B1DFD06-3317-40CA-B510-4969A0718C16";
paths = (
{
closed = 1;
nodes = (
"417 -11 OFFCURVE",
"516 95 OFFCURVE",
"516 246 CURVE SMOOTH",
"516 331 LINE SMOOTH",
"516 552 OFFCURVE",
"442 711 OFFCURVE",
"233 711 CURVE SMOOTH",
"189 711 OFFCURVE",
"160 695 OFFCURVE",
"160 670 CURVE SMOOTH",
"160 656 OFFCURVE",
"168 644 OFFCURVE",
"179 640 CURVE",
"195 646 OFFCURVE",
"210 648 OFFCURVE",
"225 648 CURVE SMOOTH",
"397 648 OFFCURVE",
"427 524 OFFCURVE",
"434 449 CURVE",
"401 477 OFFCURVE",
"345 498 OFFCURVE",
"274 498 CURVE SMOOTH",
"141 498 OFFCURVE",
"46 391 OFFCURVE",
"46 222 CURVE SMOOTH",
"46 80 OFFCURVE",
"130 -11 OFFCURVE",
"262 -11 CURVE SMOOTH"
);
},
{
closed = 1;
nodes = (
"174 59 OFFCURVE",
"130 117 OFFCURVE",
"130 224 CURVE SMOOTH",
"130 355 OFFCURVE",
"189 428 OFFCURVE",
"287 428 CURVE SMOOTH",
"383 428 OFFCURVE",
"436 380 OFFCURVE",
"436 294 CURVE SMOOTH",
"436 244 LINE SMOOTH",
"436 125 OFFCURVE",
"371 59 OFFCURVE",
"254 59 CURVE SMOOTH"
);
},
{
closed = 1;
nodes = (
"544 615 LINE",
"544 665 LINE",
"312 585 LINE",
"312 535 LINE"
);
}
);
width = 588;
}
);
note = eth;
unicode = 00F0;
},
{
glyphname = dcroat;
lastChange = "2018-02-27 08:40:12 +0000";
layers = (
{
components = (
{
name = d;
}
);
layerId = "0B1DFD06-3317-40CA-B510-4969A0718C16";
paths = (
{
closed = 1;
nodes = (
"592 600 LINE",
"592 650 LINE",
"300 650 LINE",
"300 600 LINE"
);
}
);
width = 592;
}
);
note = dslash;
unicode = 0111;
},
{
color = 0;
glyphname = schwa;
lastChange = "2018-02-27 08:47:24 +0000";
layers = (
{
layerId = "0B1DFD06-3317-40CA-B510-4969A0718C16";
paths = (
{
closed = 1;
nodes = (
"431 -12 OFFCURVE",
"516 114 OFFCURVE",
"516 254 CURVE SMOOTH",
"516 430 OFFCURVE",
"418 521 OFFCURVE",
"267 521 CURVE SMOOTH",
"182 521 OFFCURVE",
"68 478 OFFCURVE",
"68 419 CURVE SMOOTH",
"68 397 OFFCURVE",
"75 380 OFFCURVE",
"101 371 CURVE",
"132 415 OFFCURVE",
"203 453 OFFCURVE",
"267 453 CURVE SMOOTH",
"363 453 OFFCURVE",
"434 385 OFFCURVE",
"434 282 CURVE",
"54 282 LINE",
"49 271 OFFCURVE",
"46 254 OFFCURVE",
"46 240 CURVE SMOOTH",
"46 109 OFFCURVE",
"121 -12 OFFCURVE",
"278 -12 CURVE SMOOTH"
);
},
{
closed = 1;
nodes = (
"178 57 OFFCURVE",
"132 127 OFFCURVE",
"128 215 CURVE",
"432 215 LINE",
"420 129 OFFCURVE",
"369 57 OFFCURVE",
"278 57 CURVE SMOOTH"
);
}
);
width = 562;
}
);
note = schwa;
unicode = 0259;
},
{
color = 0;
glyphname = hbar;
lastChange = "2018-02-27 08:48:13 +0000";
layers = (
{
components = (
{
name = h;
}
);
layerId = "0B1DFD06-3317-40CA-B510-4969A0718C16";
paths = (
{
closed = 1;
nodes = (
"280 589 LINE",
"280 649 LINE",
"0 649 LINE",
"0 589 LINE"
);
}
);
width = 580;
}
);
note = hbar;
rightKerningGroup = h;
unicode = 0127;
},
{
glyphname = idotless;
lastChange = "2018-02-27 12:38:38 +0000";
layers = (
{
anchors = (
{
name = bottom;
position = "{121, 0}";
},
{
name = ogonek;
position = "{119, 10}";
},
{
name = top;
position = "{121, 510}";
}
);
layerId = "0B1DFD06-3317-40CA-B510-4969A0718C16";
paths = (
{
closed = 1;
nodes = (
"153 -8 OFFCURVE",
"165 -4 OFFCURVE",
"178 7 CURVE",
"166 19 OFFCURVE",
"162 38 OFFCURVE",
"162 82 CURVE SMOOTH",
"162 446 LINE SMOOTH",
"162 491 OFFCURVE",
"132 518 OFFCURVE",
"80 518 CURVE",
"80 66 LINE SMOOTH",
"80 15 OFFCURVE",
"95 -8 OFFCURVE",
"133 -8 CURVE SMOOTH"
);
}
);
width = 242;
}
);
note = dotlessi;
unicode = 0131;
},
{
color = 0;
glyphname = jdotless;
lastChange = "2018-02-27 08:51:26 +0000";
layers = (
{
anchors = (
{
name = bottom;
position = "{119, 0}";
},
{
name = top;
position = "{119, 470}";
}
);
layerId = "0B1DFD06-3317-40CA-B510-4969A0718C16";
paths = (
{
closed = 1;
nodes = (
"109 -166 OFFCURVE",
"160 -105 OFFCURVE",
"160 -10 CURVE SMOOTH",
"160 446 LINE SMOOTH",
"160 491 OFFCURVE",
"130 518 OFFCURVE",
"78 518 CURVE",
"78 -10 LINE SMOOTH",
"78 -62 OFFCURVE",
"58 -91 OFFCURVE",
"19 -91 CURVE SMOOTH",
"2 -91 OFFCURVE",
"-17 -88 OFFCURVE",
"-35 -81 CURVE",
"-49 -86 OFFCURVE",
"-58 -100 OFFCURVE",
"-58 -117 CURVE SMOOTH",
"-58 -147 OFFCURVE",
"-24 -166 OFFCURVE",
"29 -166 CURVE SMOOTH"
);
}
);
width = 238;
}
);
leftKerningGroup = j;
note = dotlessj;
unicode = 0237;
},
{
color = 0;
glyphname = kgreenlandic;
lastChange = "2018-02-27 08:51:51 +0000";
layers = (
{
anchors = (
{
name = bottom;
position = "{259, 0}";
},
{
name = top;
position = "{259, 800}";
}
);
layerId = "0B1DFD06-3317-40CA-B510-4969A0718C16";
paths = (
{
closed = 1;
nodes = (
"476 -6 OFFCURVE",
"493 -4 OFFCURVE",
"508 6 CURVE",
"501 11 OFFCURVE",
"492 19 OFFCURVE",
"485 28 CURVE SMOOTH",
"285 300 LINE",
"488 510 LINE",
"384 510 LINE",
"158 276 LINE",
"158 446 LINE SMOOTH",
"158 491 OFFCURVE",
"128 518 OFFCURVE",
"76 518 CURVE",
"76 0 LINE",
"158 0 LINE",
"158 170 LINE",
"231 247 LINE",
"388 31 LINE SMOOTH",
"405 7 OFFCURVE",
"432 -6 OFFCURVE",
"462 -6 CURVE SMOOTH"
);
}
);
width = 518;
}
);
note = kgreenlandic;
rightKerningGroup = k;
unicode = 0138;
},
{
glyphname = lslash;
lastChange = "2018-02-27 08:55:52 +0000";
layers = (
{
components = (
{
name = l;
}
);
layerId = "0B1DFD06-3317-40CA-B510-4969A0718C16";
paths = (
{
closed = 1;
nodes = (
"234 398 LINE",
"234 448 LINE",
"4 368 LINE",
"4 318 LINE"
);
}
);
width = 238;
}
);
note = lslash;
unicode = 0142;
},
{
color = 0;
glyphname = eng;
lastChange = "2018-02-27 08:53:47 +0000";
layers = (
{
layerId = "0B1DFD06-3317-40CA-B510-4969A0718C16";
paths = (
{
closed = 1;
nodes = (
"455 -166 OFFCURVE",
"506 -105 OFFCURVE",
"506 -10 CURVE SMOOTH",
"506 312 LINE SMOOTH",
"506 451 OFFCURVE",
"428 522 OFFCURVE",
"316 522 CURVE SMOOTH",
"236 522 OFFCURVE",
"186 481 OFFCURVE",
"156 428 CURVE",
"156 446 LINE SMOOTH",
"156 491 OFFCURVE",
"128 518 OFFCURVE",
"76 518 CURVE",
"76 0 LINE",
"158 0 LINE",
"158 199 LINE SMOOTH",
"158 381 OFFCURVE",
"211 447 OFFCURVE",
"300 447 CURVE SMOOTH",
"378 447 OFFCURVE",
"424 397 OFFCURVE",
"424 316 CURVE SMOOTH",
"424 -10 LINE SMOOTH",
"424 -62 OFFCURVE",
"404 -91 OFFCURVE",
"365 -91 CURVE SMOOTH",
"348 -91 OFFCURVE",
"329 -88 OFFCURVE",
"311 -81 CURVE",
"297 -86 OFFCURVE",
"288 -100 OFFCURVE",
"288 -117 CURVE SMOOTH",
"288 -147 OFFCURVE",
"322 -166 OFFCURVE",
"375 -166 CURVE SMOOTH"
);
}
);
width = 580;
}
);
leftKerningGroup = m;
note = eng;
rightKerningGroup = m;
unicode = 014B;
},
{
glyphname = oslash;
lastChange = "2018-02-27 10:20:05 +0000";
layers = (
{
components = (
{
name = o;
}
);
layerId = "0B1DFD06-3317-40CA-B510-4969A0718C16";
paths = (
{
closed = 1;
nodes = (
"171 -60 LINE",
"491 570 LINE",
"445 570 LINE",
"125 -60 LINE"
);
}
);
width = 602;
}
);
note = oslash;
unicode = 00F8;
},
{
glyphname = oe;
lastChange = "2018-02-27 10:20:05 +0000";
layers = (
{
layerId = "0B1DFD06-3317-40CA-B510-4969A0718C16";
paths = (
{
closed = 1;
nodes = (
"465 -11 OFFCURVE",
"556 115 OFFCURVE",
"556 255 CURVE SMOOTH",
"556 395 OFFCURVE",
"465 521 OFFCURVE",
"301 521 CURVE SMOOTH",
"137 521 OFFCURVE",
"46 395 OFFCURVE",
"46 255 CURVE SMOOTH",
"46 115 OFFCURVE",
"137 -11 OFFCURVE",
"301 -11 CURVE SMOOTH"
);
},
{
closed = 1;
nodes = (
"184 61 OFFCURVE",
"130 157 OFFCURVE",
"130 255 CURVE SMOOTH",
"130 353 OFFCURVE",
"184 449 OFFCURVE",
"301 449 CURVE SMOOTH",
"418 449 OFFCURVE",
"472 353 OFFCURVE",
"472 255 CURVE SMOOTH",
"472 157 OFFCURVE",
"418 61 OFFCURVE",
"301 61 CURVE SMOOTH"
);
},
{
closed = 1;
nodes = (
"814 -12 OFFCURVE",
"928 31 OFFCURVE",
"928 90 CURVE SMOOTH",
"928 112 OFFCURVE",
"921 129 OFFCURVE",
"895 138 CURVE",
"864 94 OFFCURVE",
"793 56 OFFCURVE",
"729 56 CURVE SMOOTH",
"633 56 OFFCURVE",
"562 124 OFFCURVE",
"562 227 CURVE",
"942 227 LINE",
"947 238 OFFCURVE",
"950 255 OFFCURVE",
"950 269 CURVE SMOOTH",
"950 400 OFFCURVE",
"875 521 OFFCURVE",
"718 521 CURVE SMOOTH",
"565 521 OFFCURVE",
"480 395 OFFCURVE",
"480 255 CURVE SMOOTH",
"480 79 OFFCURVE",
"578 -12 OFFCURVE",
"729 -12 CURVE SMOOTH"
);
},
{
closed = 1;
nodes = (
"576 380 OFFCURVE",
"627 452 OFFCURVE",
"718 452 CURVE SMOOTH",
"818 452 OFFCURVE",
"864 382 OFFCURVE",
"868 294 CURVE",
"564 294 LINE"
);
}
);
width = 996;
}
);
leftMetricsKey = o;
note = oe;
rightMetricsKey = e;
unicode = 0153;
},
{
glyphname = thorn;
lastChange = "2018-02-27 09:18:30 +0000";
layers = (
{
layerId = "0B1DFD06-3317-40CA-B510-4969A0718C16";
paths = (
{
closed = 1;
nodes = (
"158 -160 LINE",
"158 40 LINE",
"191 11 OFFCURVE",
"247 -11 OFFCURVE",
"318 -11 CURVE SMOOTH",
"451 -11 OFFCURVE",
"546 101 OFFCURVE",
"546 278 CURVE SMOOTH",
"546 427 OFFCURVE",
"462 522 OFFCURVE",
"330 522 CURVE SMOOTH",
"257 522 OFFCURVE",
"191 488 OFFCURVE",
"156 434 CURVE",
"156 720 LINE",
"76 720 LINE",
"76 -160 LINE"
);
},
{
closed = 1;
nodes = (
"209 60 OFFCURVE",
"156 111 OFFCURVE",
"156 204 CURVE SMOOTH",
"156 256 LINE SMOOTH",
"156 382 OFFCURVE",
"221 452 OFFCURVE",
"338 452 CURVE SMOOTH",
"418 452 OFFCURVE",
"462 390 OFFCURVE",
"462 278 CURVE SMOOTH",
"462 138 OFFCURVE",
"403 60 OFFCURVE",
"305 60 CURVE SMOOTH"
);
}
);
width = 592;
}
);
leftMetricsKey = p;
note = thorn;
rightMetricsKey = p;
unicode = 00FE;
},
{
glyphname = germandbls;
lastChange = "2018-02-27 09:21:23 +0000";
layers = (
{
layerId = "0B1DFD06-3317-40CA-B510-4969A0718C16";
paths = (
{
closed = 1;
nodes = (
"551 -10 OFFCURVE",
"619 83 OFFCURVE",
"619 198 CURVE SMOOTH",
"619 291 OFFCURVE",
"558 352 OFFCURVE",
"448 368 CURVE",
"524 386 OFFCURVE",
"566 437 OFFCURVE",
"566 511 CURVE SMOOTH",
"566 633 OFFCURVE",
"470 710 OFFCURVE",
"319 710 CURVE SMOOTH",
"152 710 OFFCURVE",
"77 616 OFFCURVE",
"77 470 CURVE SMOOTH",
"77 0 LINE",
"166 0 LINE",
"166 485 LINE SMOOTH",
"166 592 OFFCURVE",
"221 628 OFFCURVE",
"312 628 CURVE SMOOTH",
"414 628 OFFCURVE",
"471 586 OFFCURVE",
"471 511 CURVE SMOOTH",
"471 440 OFFCURVE",
"429 400 OFFCURVE",
"353 400 CURVE SMOOTH",
"289 400 LINE",
"289 321 LINE",
"351 321 LINE SMOOTH",
"465 321 OFFCURVE",
"528 291 OFFCURVE",
"528 209 CURVE SMOOTH",
"528 138 OFFCURVE",
"480 72 OFFCURVE",
"370 72 CURVE SMOOTH",
"327 72 OFFCURVE",
"266 83 OFFCURVE",
"245 131 CURVE",
"227 121 OFFCURVE",
"222 102 OFFCURVE",
"222 80 CURVE SMOOTH",
"222 16 OFFCURVE",
"302 -10 OFFCURVE",
"386 -10 CURVE SMOOTH"
);
}
);
width = 661;
}
);
note = uni00DF;
unicode = 00DF;
},
{
glyphname = tbar;
lastChange = "2018-02-27 09:22:45 +0000";
layers = (
{
components = (
{
name = t;
}
);
layerId = "0B1DFD06-3317-40CA-B510-4969A0718C16";
paths = (
{
closed = 1;
nodes = (
"304 260 LINE",
"304 310 LINE",
"20 310 LINE",
"20 260 LINE"
);
}
);
width = 397;
}
);
leftKerningGroup = t;
note = tbar;
rightKerningGroup = t;
unicode = 0167;
},
{
glyphname = Delta;
lastChange = "2018-02-27 10:20:05 +0000";
layers = (
{
layerId = "0B1DFD06-3317-40CA-B510-4969A0718C16";
paths = (
{
closed = 1;
nodes = (
"499 0 LINE",
"254 503 LINE",
"6 0 LINE"
);
},
{
closed = 1;
nodes = (
"230 384 LINE",
"402 34 LINE",
"54 34 LINE"
);
}
);
width = 475;
}
);
note = Delta;
unicode = 0394;
},
{
glyphname = Omega;
lastChange = "2018-02-27 10:20:05 +0000";
layers = (
{
layerId = "0B1DFD06-3317-40CA-B510-4969A0718C16";
paths = (
{
closed = 1;
nodes = (
"403 -4 LINE",
"402 -1 LINE",
"403 -2 OFFCURVE",
"405 -2 OFFCURVE",
"405 -2 CURVE",
"389 36 LINE",
"382 56 LINE",
"375 50 LINE",
"369 54 OFFCURVE",
"359 56 OFFCURVE",
"350 62 CURVE SMOOTH",
"318 81 OFFCURVE",
"286 110 OFFCURVE",
"266 136 CURVE",
"247 160 OFFCURVE",
"233 182 OFFCURVE",
"225 198 CURVE",
"215 216 OFFCURVE",
"208 232 OFFCURVE",
"204 248 CURVE",
"185 301 OFFCURVE",
"178 353 OFFCURVE",
"183 406 CURVE SMOOTH",
"190 458 OFFCURVE",
"203 504 OFFCURVE",
"221 544 CURVE SMOOTH",
"244 585 OFFCURVE",
"268 615 OFFCURVE",
"294 636 CURVE SMOOTH",
"323 660 OFFCURVE",
"356 673 OFFCURVE",
"391 676 CURVE",
"404 679 OFFCURVE",
"417 679 OFFCURVE",
"432 678 CURVE SMOOTH",
"450 676 OFFCURVE",
"468 671 OFFCURVE",
"490 665 CURVE",
"515 658 OFFCURVE",
"543 643 OFFCURVE",
"570 622 CURVE SMOOTH",
"601 598 OFFCURVE",
"626 573 OFFCURVE",
"643 545 CURVE",
"651 532 OFFCURVE",
"658 522 OFFCURVE",
"665 508 CURVE SMOOTH",
"671 494 OFFCURVE",
"673 483 OFFCURVE",
"679 472 CURVE",
"751 311 OFFCURVE",
"621 74 OFFCURVE",
"601 9 CURVE",
"608 17 OFFCURVE",
"617 25 OFFCURVE",
"626 35 CURVE",
"630 -4 LINE",
"941 -1 LINE",
"960 24 OFFCURVE",
"868 115 OFFCURVE",
"855 129 CURVE",
"869 112 OFFCURVE",
"891 41 OFFCURVE",
"865 41 CURVE SMOOTH",
"836 41 OFFCURVE",
"723 17 OFFCURVE",
"694 17 CURVE SMOOTH",
"669 17 OFFCURVE",
"661 27 OFFCURVE",
"637 46 CURVE",
"665 80 OFFCURVE",
"694 121 OFFCURVE",
"709 155 CURVE SMOOTH",
"733 201 OFFCURVE",
"784 347 OFFCURVE",
"717 523 CURVE SMOOTH",
"703 564 OFFCURVE",
"684 600 OFFCURVE",
"659 631 CURVE SMOOTH",
"634 665 OFFCURVE",
"610 688 OFFCURVE",
"586 701 CURVE",
"559 714 OFFCURVE",
"530 723 OFFCURVE",
"500 728 CURVE SMOOTH",
"469 733 OFFCURVE",
"442 733 OFFCURVE",
"416 729 CURVE SMOOTH",
"357 721 OFFCURVE",
"308 695 OFFCURVE",
"272 651 CURVE",
"232 608 OFFCURVE",
"203 558 OFFCURVE",
"184 499 CURVE SMOOTH",
"163 441 OFFCURVE",
"155 391 OFFCURVE",
"152 342 CURVE SMOOTH",
"150 296 OFFCURVE",
"157 250 OFFCURVE",
"174 205 CURVE",
"182 180 OFFCURVE",
"194 157 OFFCURVE",
"207 139 CURVE",
"219 116 OFFCURVE",
"238 92 OFFCURVE",
"261 67 CURVE SMOOTH",
"280 46 OFFCURVE",
"304 30 OFFCURVE",
"332 16 CURVE",
"330 16 LINE SMOOTH",
"301 16 OFFCURVE",
"177 39 OFFCURVE",
"149 39 CURVE SMOOTH",
"122 39 OFFCURVE",
"111 110 OFFCURVE",
"117 126 CURVE",
"110 112 OFFCURVE",
"59 21 OFFCURVE",
"92 -4 CURVE"
);
},
{
closed = 1;
nodes = (
"119 127 OFFCURVE",
"119 127 OFFCURVE",
"119 127 CURVE SMOOTH",
"117 127 OFFCURVE",
"117 127 OFFCURVE",
"117 126 CURVE"
);
},
{
closed = 1;
nodes = (
"854 130 LINE",
"855 129 LINE"
);
}
);
width = 772;
}
);
note = Omega;
unicode = 03A9;
},
{
glyphname = mu;
lastChange = "2018-02-27 10:20:05 +0000";
layers = (
{
layerId = "0B1DFD06-3317-40CA-B510-4969A0718C16";
paths = (
{
closed = 1;
nodes = (
"35 -178 OFFCURVE",
"42 -177 OFFCURVE",
"50 -173 CURVE",
"63 -168 OFFCURVE",
"76 -157 OFFCURVE",
"80 -134 CURVE",
"83 -110 OFFCURVE",
"91 -64 OFFCURVE",
"96 -20 CURVE SMOOTH",
"107 57 LINE",
"138 -4 OFFCURVE",
"188 -9 OFFCURVE",
"215 -9 CURVE SMOOTH",
"293 -9 OFFCURVE",
"352 40 OFFCURVE",
"389 84 CURVE",
"379 2 LINE",
"387 4 OFFCURVE",
"396 7 OFFCURVE",
"404 11 CURVE SMOOTH",
"415 17 OFFCURVE",
"426 30 OFFCURVE",
"431 49 CURVE",
"439 110 LINE",
"488 439 LINE",
"478 438 OFFCURVE",
"468 437 OFFCURVE",
"460 433 CURVE SMOOTH",
"447 427 OFFCURVE",
"434 416 OFFCURVE",
"432 392 CURVE SMOOTH",
"413 265 LINE SMOOTH",
"409 236 OFFCURVE",
"405 206 OFFCURVE",
"398 173 CURVE",
"388 104 OFFCURVE",
"307 35 OFFCURVE",
"233 35 CURVE SMOOTH",
"136 35 OFFCURVE",
"116 110 OFFCURVE",
"127 191 CURVE SMOOTH",
"164 439 LINE",
"154 441 OFFCURVE",
"145 439 OFFCURVE",
"137 436 CURVE",
"123 431 OFFCURVE",
"109 418 OFFCURVE",
"106 392 CURVE SMOOTH",
"64 87 LINE SMOOTH",
"54 7 OFFCURVE",
"42 -81 OFFCURVE",
"27 -177 CURVE"
);
}
);
width = 522;
}
);
note = mu;
unicode = 03BC;
},
{
color = 0;
glyphname = pi;
lastChange = "2018-02-27 08:55:52 +0000";
layers = (
{
layerId = "0B1DFD06-3317-40CA-B510-4969A0718C16";
paths = (
{
closed = 1;
nodes = (
"577 -10 OFFCURVE",
"603 -4 OFFCURVE",
"633 13 CURVE",
"633 54 LINE",
"618 44 OFFCURVE",
"598 36 OFFCURVE",
"581 36 CURVE SMOOTH",
"555 36 OFFCURVE",
"528 49 OFFCURVE",
"528 100 CURVE SMOOTH",
"528 431 LINE",
"647 431 LINE",
"647 470 LINE",
"19 470 LINE",
"19 431 LINE",
"136 431 LINE",
"136 0 LINE",
"231 0 LINE",
"231 431 LINE",
"433 431 LINE",
"433 96 LINE SMOOTH",
"433 32 OFFCURVE",
"466 -10 OFFCURVE",
"540 -10 CURVE SMOOTH"
);
}
);
width = 664;
}
);
note = pi;
unicode = 03C0;
},
{
color = 3;
glyphname = "koKai-thai";
lastChange = "2018-02-27 04:51:41 +0000";
layers = (
{
background = {
paths = (
{
closed = 1;
nodes = (
"483 433 LINE",
"380 506 OFFCURVE",
"311 562 OFFCURVE",
"215 562 CURVE SMOOTH",
"121 562 OFFCURVE",
"57 486 OFFCURVE",
"54 482 CURVE SMOOTH",
"37 460 LINE",
"50 458 OFFCURVE",
"63 456 OFFCURVE",
"74 451 CURVE",
"94 441 OFFCURVE",
"117 424 OFFCURVE",
"136 383 CURVE",
"126 327 OFFCURVE",
"123 209 OFFCURVE",
"123 121 CURVE SMOOTH",
"123 69 OFFCURVE",
"124 28 OFFCURVE",
"125 16 CURVE",
"125 12 OFFCURVE",
"126 9 OFFCURVE",
"128 6 CURVE",
"131 0 OFFCURVE",
"138 -3 OFFCURVE",
"145 -3 CURVE SMOOTH",
"152 -3 OFFCURVE",
"157 0 OFFCURVE",
"159 3 CURVE",
"160 5 OFFCURVE",
"160 8 OFFCURVE",
"160 11 CURVE",
"158 45 OFFCURVE",
"156 100 OFFCURVE",
"156 158 CURVE SMOOTH",
"156 254 OFFCURVE",
"161 359 OFFCURVE",
"174 388 CURVE",
"192 436 OFFCURVE",
"232 450 OFFCURVE",
"251 462 CURVE",
"240 469 OFFCURVE",
"229 472 OFFCURVE",
"218 472 CURVE SMOOTH",
"197 472 OFFCURVE",
"174 461 OFFCURVE",
"149 421 CURVE",
"141 441 OFFCURVE",
"128 457 OFFCURVE",
"96 472 CURVE",
"118 492 OFFCURVE",
"165 527 OFFCURVE",
"223 527 CURVE SMOOTH",
"295 527 OFFCURVE",
"390 458 OFFCURVE",
"447 418 CURVE",
"441 413 OFFCURVE",
"436 405 OFFCURVE",
"433 395 CURVE",
"430 382 OFFCURVE",
"427 237 OFFCURVE",
"427 114 CURVE SMOOTH",
"427 59 OFFCURVE",
"424 6 OFFCURVE",
"422 -10 CURVE",
"430 2 OFFCURVE",
"439 16 OFFCURVE",
"445 32 CURVE",
"456 56 OFFCURVE",
"466 87 OFFCURVE",
"464 114 CURVE",
"469 244 OFFCURVE",
"469 368 OFFCURVE",
"472 382 CURVE",
"474 393 OFFCURVE",
"482 401 OFFCURVE",
"489 406 CURVE",
"494 411 OFFCURVE",
"499 412 OFFCURVE",
"507 413 CURVE"
);
}
);
};
layerId = "0B1DFD06-3317-40CA-B510-4969A0718C16";
paths = (
{
closed = 1;
nodes = (
"460 -6 OFFCURVE",
"490 21 OFFCURVE",
"490 66 CURVE SMOOTH",
"490 349 LINE SMOOTH",
"490 389 OFFCURVE",
"492 404 OFFCURVE",
"502 430 CURVE",
"502 436 LINE",
"484 440 OFFCURVE",
"474 444 OFFCURVE",
"444 462 CURVE SMOOTH",
"316 540 LINE SMOOTH",
"291 555 OFFCURVE",
"263 562 OFFCURVE",
"234 562 CURVE SMOOTH",
"144 562 OFFCURVE",
"67 495 OFFCURVE",
"18 404 CURVE",
"18 399 LINE",
"62 386 OFFCURVE",
"104 358 OFFCURVE",
"125 321 CURVE",
"173 352 LINE",
"155 390 OFFCURVE",
"117 418 OFFCURVE",
"68 427 CURVE",
"93 395 LINE",
"119 455 OFFCURVE",
"170 494 OFFCURVE",
"227 494 CURVE SMOOTH",
"253 494 OFFCURVE",
"277 486 OFFCURVE",
"302 470 CURVE SMOOTH",
"372 425 LINE SMOOTH",
"405 404 OFFCURVE",
"422 398 OFFCURVE",
"446 396 CURVE",
"432 417 LINE",
"412 398 OFFCURVE",
"408 377 OFFCURVE",
"408 345 CURVE SMOOTH",
"408 -6 LINE"
);
},
{
closed = 1;
nodes = (
"176 0 LINE",
"176 235 LINE SMOOTH",
"176 321 OFFCURVE",
"199 357 OFFCURVE",
"264 375 CURVE",
"264 381 LINE",
"248 390 OFFCURVE",
"230 396 OFFCURVE",
"205 396 CURVE SMOOTH",
"138 396 OFFCURVE",
"94 352 OFFCURVE",
"94 235 CURVE SMOOTH",
"94 0 LINE"
);
}
);
width = 574;
}
);
note = uni0E01;
rightMetricsKey = "koKai-thai";
unicode = 0E01;
},
{
color = 3;
glyphname = "thoThung-thai";
lastChange = "2018-02-27 04:58:46 +0000";
layers = (
{
layerId = "0B1DFD06-3317-40CA-B510-4969A0718C16";
paths = (
{
closed = 1;
nodes = (
"464 -6 OFFCURVE",
"494 21 OFFCURVE",
"494 66 CURVE SMOOTH",
"494 349 LINE SMOOTH",
"494 389 OFFCURVE",
"496 404 OFFCURVE",
"506 430 CURVE",
"506 436 LINE",
"488 440 OFFCURVE",
"478 444 OFFCURVE",
"448 462 CURVE SMOOTH",
"320 540 LINE SMOOTH",
"295 555 OFFCURVE",
"267 562 OFFCURVE",
"238 562 CURVE SMOOTH",
"148 562 OFFCURVE",
"63 495 OFFCURVE",
"14 404 CURVE",
"14 399 LINE",
"58 386 OFFCURVE",
"100 358 OFFCURVE",
"121 321 CURVE",
"169 352 LINE",
"151 390 OFFCURVE",
"113 418 OFFCURVE",
"64 427 CURVE",
"89 395 LINE",
"115 455 OFFCURVE",
"174 494 OFFCURVE",
"231 494 CURVE SMOOTH",
"257 494 OFFCURVE",
"281 486 OFFCURVE",
"306 470 CURVE SMOOTH",
"376 425 LINE SMOOTH",
"409 404 OFFCURVE",
"426 398 OFFCURVE",
"450 396 CURVE",
"436 417 LINE",
"416 398 OFFCURVE",
"412 377 OFFCURVE",
"412 345 CURVE SMOOTH",
"412 -6 LINE"
);
},
{
closed = 1;
nodes = (
"165 40 OFFCURVE",
"148 58 OFFCURVE",
"148 84 CURVE SMOOTH",
"148 110 OFFCURVE",
"165 128 OFFCURVE",
"188 128 CURVE SMOOTH",
"211 128 OFFCURVE",
"228 110 OFFCURVE",
"228 84 CURVE SMOOTH",
"228 58 OFFCURVE",
"211 40 OFFCURVE",
"188 40 CURVE SMOOTH"
);
},
{
closed = 1;
nodes = (
"241 -8 OFFCURVE",
"282 31 OFFCURVE",
"282 86 CURVE SMOOTH",
"282 136 OFFCURVE",
"248 172 OFFCURVE",
"198 172 CURVE SMOOTH",
"166 172 OFFCURVE",
"146 157 OFFCURVE",
"137 137 CURVE",
"162 137 LINE",
"170 161 OFFCURVE",
"172 176 OFFCURVE",
"172 197 CURVE SMOOTH",
"172 235 LINE SMOOTH",
"172 321 OFFCURVE",
"195 357 OFFCURVE",
"260 375 CURVE",
"260 381 LINE",
"244 390 OFFCURVE",
"226 396 OFFCURVE",
"201 396 CURVE SMOOTH",
"134 396 OFFCURVE",
"90 352 OFFCURVE",
"90 235 CURVE SMOOTH",
"90 92 LINE SMOOTH",
"90 31 OFFCURVE",
"127 -8 OFFCURVE",
"184 -8 CURVE SMOOTH"
);
}
);
width = 578;
},
{
associatedMasterId = "0B1DFD06-3317-40CA-B510-4969A0718C16";
layerId = "F81B52C2-EDA8-4B4C-9459-E2BF1E5A8A40";
name = "Feb 5 18, 16:01";
paths = (
{
closed = 1;
nodes = (
"366 378 OFFCURVE",
"362 385 OFFCURVE",
"365 395 CURVE",
"367 405 OFFCURVE",
"369 412 OFFCURVE",
"390 422 CURVE",
"391 422 OFFCURVE",
"377 436 OFFCURVE",
"365 449 CURVE",
"356 455 OFFCURVE",
"347 465 OFFCURVE",
"338 474 CURVE",
"294 516 OFFCURVE",
"244 562 OFFCURVE",
"182 562 CURVE SMOOTH",
"126 562 OFFCURVE",
"74 528 OFFCURVE",
"40 507 CURVE",
"23 498 OFFCURVE",
"5 486 OFFCURVE",
"-8 474 CURVE SMOOTH",
"-16 467 OFFCURVE",
"-23 462 OFFCURVE",
"-31 455 CURVE",
"5 462 OFFCURVE",
"106 407 OFFCURVE",
"103 394 CURVE",
"93 384 OFFCURVE",
"85 372 OFFCURVE",
"78 356 CURVE SMOOTH",
"64 324 OFFCURVE",
"55 300 OFFCURVE",
"51 262 CURVE SMOOTH",
"46 217 OFFCURVE",
"57 162 OFFCURVE",
"60 123 CURVE SMOOTH",
"62 100 OFFCURVE",
"66 80 OFFCURVE",
"69 67 CURVE SMOOTH",
"81 13 OFFCURVE",
"94 7 OFFCURVE",
"100 2 CURVE SMOOTH",
"105 -2 OFFCURVE",
"113 -4 OFFCURVE",
"121 -3 CURVE SMOOTH",
"178 4 OFFCURVE",
"198 35 OFFCURVE",
"202 68 CURVE SMOOTH",
"207 111 OFFCURVE",
"191 139 OFFCURVE",
"179 147 CURVE",
"156 163 OFFCURVE",
"124 161 OFFCURVE",
"98 140 CURVE",
"93 174 OFFCURVE",
"88 217 OFFCURVE",
"91 255 CURVE",
"92 297 OFFCURVE",
"100 319 OFFCURVE",
"112 343 CURVE",
"124 370 OFFCURVE",
"139 388 OFFCURVE",
"160 395 CURVE",
"136 418 OFFCURVE",
"72 466 OFFCURVE",
"45 466 CURVE",
"59 474 LINE SMOOTH",
"102 498 OFFCURVE",
"145 522 OFFCURVE",
"192 524 CURVE SMOOTH",
"235 526 OFFCURVE",
"275 487 OFFCURVE",
"313 450 CURVE",
"315 447 OFFCURVE",
"320 444 OFFCURVE",
"322 441 CURVE",
"338 427 LINE",
"332 411 OFFCURVE",
"329 397 OFFCURVE",
"324 383 CURVE",
"322 364 OFFCURVE",
"337 225 OFFCURVE",
"335 120 CURVE SMOOTH",
"334 56 OFFCURVE",
"326 3 OFFCURVE",
"314 -11 CURVE",
"324 -2 OFFCURVE",
"335 10 OFFCURVE",
"344 23 CURVE SMOOTH",
"359 45 OFFCURVE",
"373 74 OFFCURVE",
"375 111 CURVE",
"374 180 OFFCURVE",
"359 353 OFFCURVE",
"363 368 CURVE SMOOTH"
);
},
{
closed = 1;
nodes = (
"164 113 OFFCURVE",
"166 111 OFFCURVE",
"166 107 CURVE SMOOTH",
"166 102 OFFCURVE",
"169 90 OFFCURVE",
"167 80 CURVE",
"160 62 OFFCURVE",
"148 35 OFFCURVE",
"114 42 CURVE",
"107 52 OFFCURVE",
"101 73 OFFCURVE",
"101 98 CURVE",
"106 114 OFFCURVE",
"144 129 OFFCURVE",
"161 118 CURVE"
);
}
);
visible = 1;
width = 459;
}
);
note = uni0E16;
rightMetricsKey = "koKai-thai";
unicode = 0E16;
},
{
color = 3;
glyphname = "phoSamphao-thai";
lastChange = "2018-02-27 04:58:46 +0000";
layers = (
{
layerId = "0B1DFD06-3317-40CA-B510-4969A0718C16";
paths = (
{
closed = 1;
nodes = (
"482 -6 OFFCURVE",
"512 21 OFFCURVE",
"512 66 CURVE SMOOTH",
"512 349 LINE SMOOTH",
"512 389 OFFCURVE",
"514 404 OFFCURVE",
"524 430 CURVE",
"524 436 LINE",
"506 440 OFFCURVE",
"496 444 OFFCURVE",
"466 462 CURVE SMOOTH",
"338 540 LINE SMOOTH",
"313 555 OFFCURVE",
"285 562 OFFCURVE",
"256 562 CURVE SMOOTH",
"166 562 OFFCURVE",
"81 495 OFFCURVE",
"32 404 CURVE",
"32 399 LINE",
"84 389 OFFCURVE",
"130 358 OFFCURVE",
"155 321 CURVE",
"203 352 LINE",
"180 390 OFFCURVE",
"134 418 OFFCURVE",
"82 427 CURVE",
"107 395 LINE",
"133 455 OFFCURVE",
"192 494 OFFCURVE",
"249 494 CURVE SMOOTH",
"275 494 OFFCURVE",
"299 486 OFFCURVE",
"324 470 CURVE SMOOTH",
"394 425 LINE SMOOTH",
"427 404 OFFCURVE",
"444 398 OFFCURVE",
"468 396 CURVE",
"454 417 LINE",
"434 398 OFFCURVE",
"430 377 OFFCURVE",
"430 345 CURVE SMOOTH",
"430 -6 LINE"
);
},
{
closed = 1;
nodes = (
"85 40 OFFCURVE",
"68 58 OFFCURVE",
"68 84 CURVE SMOOTH",
"68 110 OFFCURVE",
"85 128 OFFCURVE",
"108 128 CURVE SMOOTH",
"131 128 OFFCURVE",
"148 110 OFFCURVE",
"148 84 CURVE SMOOTH",
"148 58 OFFCURVE",
"131 40 OFFCURVE",
"108 40 CURVE SMOOTH"
);
},
{
closed = 1;
nodes = (
"169 -8 OFFCURVE",
"206 31 OFFCURVE",
"206 92 CURVE SMOOTH",
"206 235 LINE SMOOTH",
"206 321 OFFCURVE",
"229 357 OFFCURVE",
"294 375 CURVE",
"294 381 LINE",
"278 390 OFFCURVE",
"260 396 OFFCURVE",
"235 396 CURVE SMOOTH",
"168 396 OFFCURVE",
"124 352 OFFCURVE",
"124 235 CURVE SMOOTH",
"124 197 LINE SMOOTH",
"124 176 OFFCURVE",
"126 161 OFFCURVE",
"134 137 CURVE",
"159 137 LINE",
"150 157 OFFCURVE",
"130 172 OFFCURVE",
"98 172 CURVE SMOOTH",
"48 172 OFFCURVE",
"14 136 OFFCURVE",
"14 86 CURVE SMOOTH",
"14 31 OFFCURVE",
"55 -8 OFFCURVE",
"112 -8 CURVE SMOOTH"
);
}
);
width = 596;
},
{
associatedMasterId = "0B1DFD06-3317-40CA-B510-4969A0718C16";
layerId = "37AED329-2CF9-443B-8901-969C05BD0AB5";
name = "Feb 5 18, 16:18";
paths = (
{
closed = 1;
nodes = (
"426 123 OFFCURVE",
"423 192 OFFCURVE",
"425 252 CURVE SMOOTH",
"425 364 LINE SMOOTH",
"425 391 OFFCURVE",
"445 392 OFFCURVE",
"450 397 CURVE",
"419 424 LINE",
"411 431 OFFCURVE",
"403 439 OFFCURVE",
"394 449 CURVE",
"288 534 OFFCURVE",
"188 538 OFFCURVE",
"126 527 CURVE SMOOTH",
"65 516 OFFCURVE",
"42 461 OFFCURVE",
"13 424 CURVE",
"52 430 OFFCURVE",
"84 423 OFFCURVE",
"103 413 CURVE SMOOTH",
"113 408 OFFCURVE",
"125 401 OFFCURVE",
"133 394 CURVE",
"103 354 OFFCURVE",
"110 169 OFFCURVE",
"110 118 CURVE",
"108 117 LINE",
"107 117 LINE SMOOTH",
"107 117 OFFCURVE",
"76 137 OFFCURVE",
"37 103 CURVE SMOOTH",
"16 85 OFFCURVE",
"16 47 OFFCURVE",
"16 47 CURVE",
"21 -15 OFFCURVE",
"53 -31 OFFCURVE",
"70 -32 CURVE",
"114 -35 OFFCURVE",
"132 -13 OFFCURVE",
"145 20 CURVE",
"151 38 OFFCURVE",
"152 59 OFFCURVE",
"151 75 CURVE SMOOTH",
"152 85 OFFCURVE",
"151 95 OFFCURVE",
"150 104 CURVE",
"148 146 OFFCURVE",
"147 184 OFFCURVE",
"150 219 CURVE SMOOTH",
"151 280 OFFCURVE",
"153 346 OFFCURVE",
"165 372 CURVE",
"168 381 OFFCURVE",
"167 391 OFFCURVE",
"188 391 CURVE",
"157 423 OFFCURVE",
"129 439 OFFCURVE",
"109 446 CURVE SMOOTH",
"97 450 OFFCURVE",
"86 452 OFFCURVE",
"77 453 CURVE",
"81 460 OFFCURVE",
"88 466 OFFCURVE",
"96 469 CURVE",
"108 479 OFFCURVE",
"122 488 OFFCURVE",
"137 491 CURVE SMOOTH",
"184 502 OFFCURVE",
"273 508 OFFCURVE",
"362 433 CURVE SMOOTH",
"367 428 OFFCURVE",
"375 423 OFFCURVE",
"385 413 CURVE",
"400 398 LINE",
"397 394 OFFCURVE",
"387 386 OFFCURVE",
"387 365 CURVE SMOOTH",
"388 241 LINE SMOOTH",
"388 177 OFFCURVE",
"389 107 OFFCURVE",
"390 85 CURVE SMOOTH",
"392 51 OFFCURVE",
"389 20 OFFCURVE",
"384 -2 CURVE SMOOTH",
"382 -14 OFFCURVE",
"378 -26 OFFCURVE",
"375 -37 CURVE",
"385 -30 OFFCURVE",
"394 -20 OFFCURVE",
"401 -9 CURVE SMOOTH",
"415 10 OFFCURVE",
"426 37 OFFCURVE",
"426 80 CURVE SMOOTH"
);
},
{
closed = 1;
nodes = (
"97 13 OFFCURVE",
"90 -6 OFFCURVE",
"66 4 CURVE SMOOTH",
"49 10 OFFCURVE",
"45 31 OFFCURVE",
"47 47 CURVE SMOOTH",
"52 74 OFFCURVE",
"66 82 OFFCURVE",
"85 92 CURVE",
"90 95 OFFCURVE",
"95 95 OFFCURVE",
"98 91 CURVE",
"117 75 OFFCURVE",
"111 54 OFFCURVE",
"109 35 CURVE"
);
}
);
width = 488;
}
);
note = uni0E20;
rightMetricsKey = "koKai-thai";
unicode = 0E20;
},
{
color = 3;
glyphname = "ru-thai";
lastChange = "2018-02-27 04:58:46 +0000";
layers = (
{
layerId = "0B1DFD06-3317-40CA-B510-4969A0718C16";
paths = (
{
closed = 1;
nodes = (
"464 -256 OFFCURVE",
"494 -229 OFFCURVE",
"494 -184 CURVE SMOOTH",
"494 349 LINE SMOOTH",
"494 389 OFFCURVE",
"496 404 OFFCURVE",
"506 430 CURVE",
"506 436 LINE",
"488 440 OFFCURVE",
"478 444 OFFCURVE",
"448 462 CURVE SMOOTH",
"320 540 LINE SMOOTH",
"295 555 OFFCURVE",
"267 562 OFFCURVE",
"238 562 CURVE SMOOTH",
"148 562 OFFCURVE",
"63 495 OFFCURVE",
"14 404 CURVE",
"14 399 LINE",
"58 386 OFFCURVE",
"100 358 OFFCURVE",
"121 321 CURVE",
"169 352 LINE",
"151 390 OFFCURVE",
"113 418 OFFCURVE",
"64 427 CURVE",
"89 395 LINE",
"115 455 OFFCURVE",
"174 494 OFFCURVE",
"231 494 CURVE SMOOTH",
"257 494 OFFCURVE",
"281 486 OFFCURVE",
"306 470 CURVE SMOOTH",
"376 425 LINE SMOOTH",
"409 404 OFFCURVE",
"426 398 OFFCURVE",
"450 396 CURVE",
"436 417 LINE",
"416 398 OFFCURVE",
"412 377 OFFCURVE",
"412 345 CURVE SMOOTH",
"412 -256 LINE"
);
},
{
closed = 1;
nodes = (
"165 40 OFFCURVE",
"148 58 OFFCURVE",
"148 84 CURVE SMOOTH",
"148 110 OFFCURVE",
"165 128 OFFCURVE",
"188 128 CURVE SMOOTH",
"211 128 OFFCURVE",
"228 110 OFFCURVE",
"228 84 CURVE SMOOTH",
"228 58 OFFCURVE",
"211 40 OFFCURVE",
"188 40 CURVE SMOOTH"
);
},
{
closed = 1;
nodes = (
"241 -8 OFFCURVE",
"282 31 OFFCURVE",
"282 86 CURVE SMOOTH",
"282 136 OFFCURVE",
"248 172 OFFCURVE",
"198 172 CURVE SMOOTH",
"166 172 OFFCURVE",
"146 157 OFFCURVE",
"137 137 CURVE",
"162 137 LINE",
"170 161 OFFCURVE",
"172 176 OFFCURVE",
"172 197 CURVE SMOOTH",
"172 235 LINE SMOOTH",
"172 321 OFFCURVE",
"195 357 OFFCURVE",
"260 375 CURVE",
"260 381 LINE",
"244 390 OFFCURVE",
"226 396 OFFCURVE",
"201 396 CURVE SMOOTH",
"134 396 OFFCURVE",
"90 352 OFFCURVE",
"90 235 CURVE SMOOTH",
"90 92 LINE SMOOTH",
"90 31 OFFCURVE",
"127 -8 OFFCURVE",
"184 -8 CURVE SMOOTH"
);
}
);
width = 578;
},
{
associatedMasterId = "0B1DFD06-3317-40CA-B510-4969A0718C16";
layerId = "71F648EB-F661-41F8-8840-F84B60CA6011";
name = "Feb 5 18, 16:16";
paths = (
{
closed = 1;
nodes = (
"55 563 OFFCURVE",
"17 536 OFFCURVE",
"-25 507 CURVE",
"-48 489 LINE",
"-61 479 OFFCURVE",
"-69 468 OFFCURVE",
"-65 469 CURVE",
"-22 476 OFFCURVE",
"38 447 OFFCURVE",
"72 421 CURVE",
"3 384 OFFCURVE",
"8 251 OFFCURVE",
"11 164 CURVE",
"11 115 OFFCURVE",
"12 69 OFFCURVE",
"1 32 CURVE",
"2 29 OFFCURVE",
"1 21 OFFCURVE",
"4 18 CURVE SMOOTH",
"6 13 OFFCURVE",
"10 9 OFFCURVE",
"17 7 CURVE",
"44 -4 OFFCURVE",
"68 -5 OFFCURVE",
"91 3 CURVE SMOOTH",
"117 14 OFFCURVE",
"133 36 OFFCURVE",
"137 69 CURVE",
"143 90 OFFCURVE",
"143 119 OFFCURVE",
"121 137 CURVE SMOOTH",
"102 152 OFFCURVE",
"76 145 OFFCURVE",
"50 133 CURVE",
"49 142 OFFCURVE",
"50 150 OFFCURVE",
"50 155 CURVE SMOOTH",
"50 252 OFFCURVE",
"37 379 OFFCURVE",
"113 401 CURVE",
"117 401 OFFCURVE",
"122 402 OFFCURVE",
"126 402 CURVE SMOOTH",
"128 402 OFFCURVE",
"132 402 OFFCURVE",
"134 403 CURVE",
"136 403 OFFCURVE",
"113 434 OFFCURVE",
"107 436 CURVE",
"88 458 OFFCURVE",
"58 472 OFFCURVE",
"19 487 CURVE",
"54 507 OFFCURVE",
"83 527 OFFCURVE",
"135 527 CURVE SMOOTH",
"204 527 OFFCURVE",
"282 447 OFFCURVE",
"311 406 CURVE",
"304 406 OFFCURVE",
"301 392 OFFCURVE",
"298 383 CURVE",
"294 329 OFFCURVE",
"278 -208 OFFCURVE",
"272 -301 CURVE SMOOTH",
"271 -328 OFFCURVE",
"264 -376 OFFCURVE",
"257 -420 CURVE SMOOTH",
"254 -446 OFFCURVE",
"249 -473 OFFCURVE",
"243 -501 CURVE",
"242 -503 OFFCURVE",
"302 -402 OFFCURVE",
"312 -306 CURVE",
"327 71 LINE SMOOTH",
"332 166 OFFCURVE",
"335 272 OFFCURVE",
"340 385 CURVE",
"341 392 OFFCURVE",
"343 397 OFFCURVE",
"349 399 CURVE",
"354 401 OFFCURVE",
"356 401 OFFCURVE",
"359 401 CURVE",
"355 403 OFFCURVE",
"353 406 OFFCURVE",
"351 410 CURVE",
"344 416 OFFCURVE",
"341 419 OFFCURVE",
"338 424 CURVE",
"307 468 OFFCURVE",
"222 566 OFFCURVE",
"124 566 CURVE SMOOTH"
);
},
{
closed = 1;
nodes = (
"49 89 LINE",
"65 96 OFFCURVE",
"82 113 OFFCURVE",
"100 108 CURVE",
"101 104 OFFCURVE",
"101 98 OFFCURVE",
"99 84 CURVE",
"94 60 OFFCURVE",
"85 45 OFFCURVE",
"70 40 CURVE",
"62 35 OFFCURVE",
"52 35 OFFCURVE",
"41 36 CURVE",
"45 54 OFFCURVE",
"48 68 OFFCURVE",
"48 89 CURVE"
);
}
);
width = 457;
}
);
leftMetricsKey = "thoThung-thai";
note = uni0E24;
rightMetricsKey = "koKai-thai";
unicode = 0E24;
},
{
color = 3;
glyphname = "ru-thai.short";
lastChange = "2018-02-27 04:58:46 +0000";
layers = (
{
layerId = "0B1DFD06-3317-40CA-B510-4969A0718C16";
paths = (
{
closed = 1;
nodes = (
"464 -196 OFFCURVE",
"494 -169 OFFCURVE",
"494 -124 CURVE SMOOTH",
"494 349 LINE SMOOTH",
"494 389 OFFCURVE",
"496 404 OFFCURVE",
"506 430 CURVE",
"506 436 LINE",
"488 440 OFFCURVE",
"478 444 OFFCURVE",
"448 462 CURVE SMOOTH",
"320 540 LINE SMOOTH",
"295 555 OFFCURVE",
"267 562 OFFCURVE",
"238 562 CURVE SMOOTH",
"148 562 OFFCURVE",
"63 495 OFFCURVE",
"14 404 CURVE",
"14 399 LINE",
"58 386 OFFCURVE",
"100 358 OFFCURVE",
"121 321 CURVE",
"169 352 LINE",
"151 390 OFFCURVE",
"113 418 OFFCURVE",
"64 427 CURVE",
"89 395 LINE",
"115 455 OFFCURVE",
"174 494 OFFCURVE",
"231 494 CURVE SMOOTH",
"257 494 OFFCURVE",
"281 486 OFFCURVE",
"306 470 CURVE SMOOTH",
"376 425 LINE SMOOTH",
"409 404 OFFCURVE",
"426 398 OFFCURVE",
"450 396 CURVE",
"436 417 LINE",
"416 398 OFFCURVE",
"412 377 OFFCURVE",
"412 345 CURVE SMOOTH",
"412 -196 LINE"
);
},
{
closed = 1;
nodes = (
"165 40 OFFCURVE",
"148 58 OFFCURVE",
"148 84 CURVE SMOOTH",
"148 110 OFFCURVE",
"165 128 OFFCURVE",
"188 128 CURVE SMOOTH",
"211 128 OFFCURVE",
"228 110 OFFCURVE",
"228 84 CURVE SMOOTH",
"228 58 OFFCURVE",
"211 40 OFFCURVE",
"188 40 CURVE SMOOTH"
);
},
{
closed = 1;
nodes = (
"241 -8 OFFCURVE",
"282 31 OFFCURVE",
"282 86 CURVE SMOOTH",
"282 136 OFFCURVE",
"248 172 OFFCURVE",
"198 172 CURVE SMOOTH",
"166 172 OFFCURVE",
"146 157 OFFCURVE",
"137 137 CURVE",
"162 137 LINE",
"170 161 OFFCURVE",
"172 176 OFFCURVE",
"172 197 CURVE SMOOTH",
"172 235 LINE SMOOTH",
"172 321 OFFCURVE",
"195 357 OFFCURVE",
"260 375 CURVE",
"260 381 LINE",
"244 390 OFFCURVE",
"226 396 OFFCURVE",
"201 396 CURVE SMOOTH",
"134 396 OFFCURVE",
"90 352 OFFCURVE",
"90 235 CURVE SMOOTH",
"90 92 LINE SMOOTH",
"90 31 OFFCURVE",
"127 -8 OFFCURVE",
"184 -8 CURVE SMOOTH"
);
}
);
width = 578;
}
);
leftMetricsKey = "ru-thai";
note = "ru-thai.short";
rightMetricsKey = "koKai-thai";
},
{
color = 3;
glyphname = "lu-thai";
lastChange = "2018-02-27 04:58:46 +0000";
layers = (
{
layerId = "0B1DFD06-3317-40CA-B510-4969A0718C16";
paths = (
{
closed = 1;
nodes = (
"482 -256 OFFCURVE",
"512 -229 OFFCURVE",
"512 -184 CURVE SMOOTH",
"512 349 LINE SMOOTH",
"512 389 OFFCURVE",
"514 404 OFFCURVE",
"524 430 CURVE",
"524 436 LINE",
"506 440 OFFCURVE",
"496 444 OFFCURVE",
"466 462 CURVE SMOOTH",
"338 540 LINE SMOOTH",
"313 555 OFFCURVE",
"285 562 OFFCURVE",
"256 562 CURVE SMOOTH",
"166 562 OFFCURVE",
"81 495 OFFCURVE",
"32 404 CURVE",
"32 399 LINE",
"84 389 OFFCURVE",
"130 358 OFFCURVE",
"155 321 CURVE",
"203 352 LINE",
"180 390 OFFCURVE",
"134 418 OFFCURVE",
"82 427 CURVE",
"107 395 LINE",
"133 455 OFFCURVE",
"192 494 OFFCURVE",
"249 494 CURVE SMOOTH",
"275 494 OFFCURVE",
"299 486 OFFCURVE",
"324 470 CURVE SMOOTH",
"394 425 LINE SMOOTH",
"427 404 OFFCURVE",
"444 398 OFFCURVE",
"468 396 CURVE",
"454 417 LINE",
"434 398 OFFCURVE",
"430 377 OFFCURVE",
"430 345 CURVE SMOOTH",
"430 -256 LINE"
);
},
{
closed = 1;
nodes = (
"85 40 OFFCURVE",
"68 58 OFFCURVE",
"68 84 CURVE SMOOTH",
"68 110 OFFCURVE",
"85 128 OFFCURVE",
"108 128 CURVE SMOOTH",
"131 128 OFFCURVE",
"148 110 OFFCURVE",
"148 84 CURVE SMOOTH",
"148 58 OFFCURVE",
"131 40 OFFCURVE",
"108 40 CURVE SMOOTH"
);
},
{
closed = 1;
nodes = (
"169 -8 OFFCURVE",
"206 31 OFFCURVE",
"206 92 CURVE SMOOTH",
"206 235 LINE SMOOTH",
"206 321 OFFCURVE",
"229 357 OFFCURVE",
"294 375 CURVE",
"294 381 LINE",
"278 390 OFFCURVE",
"260 396 OFFCURVE",
"235 396 CURVE SMOOTH",
"168 396 OFFCURVE",
"124 352 OFFCURVE",
"124 235 CURVE SMOOTH",
"124 197 LINE SMOOTH",
"124 176 OFFCURVE",
"126 161 OFFCURVE",
"134 137 CURVE",
"159 137 LINE",
"150 157 OFFCURVE",
"130 172 OFFCURVE",
"98 172 CURVE SMOOTH",
"48 172 OFFCURVE",
"14 136 OFFCURVE",
"14 86 CURVE SMOOTH",
"14 31 OFFCURVE",
"55 -8 OFFCURVE",
"112 -8 CURVE SMOOTH"
);
}
);
width = 596;
},
{
associatedMasterId = "0B1DFD06-3317-40CA-B510-4969A0718C16";
layerId = "5953D7E8-76A3-428C-9929-AF584CFB6AE7";
name = "Feb 5 18, 16:22";
paths = (
{
closed = 1;
nodes = (
"409 -186 OFFCURVE",
"400 -20 OFFCURVE",
"393 123 CURVE SMOOTH",
"389 206 OFFCURVE",
"383 296 OFFCURVE",
"377 389 CURVE",
"377 415 OFFCURVE",
"390 422 OFFCURVE",
"394 426 CURVE",
"389 430 OFFCURVE",
"380 441 OFFCURVE",
"368 452 CURVE",
"346 474 LINE",
"241 560 OFFCURVE",
"125 563 OFFCURVE",
"68 552 CURVE",
"27 541 OFFCURVE",
"8 519 OFFCURVE",
"-8 496 CURVE SMOOTH",
"-14 489 OFFCURVE",
"-18 483 OFFCURVE",
"-24 477 CURVE",
"-47 448 LINE",
"-4 459 OFFCURVE",
"66 415 OFFCURVE",
"68 415 CURVE",
"77 380 OFFCURVE",
"73 195 OFFCURVE",
"74 144 CURVE",
"73 144 LINE",
"72 144 LINE",
"69 145 OFFCURVE",
"40 161 OFFCURVE",
"2 128 CURVE SMOOTH",
"-10 117 OFFCURVE",
"-15 103 OFFCURVE",
"-17 91 CURVE",
"-19 84 OFFCURVE",
"-20 78 OFFCURVE",
"-19 70 CURVE",
"-14 8 OFFCURVE",
"15 -6 OFFCURVE",
"33 -8 CURVE",
"80 -9 OFFCURVE",
"94 12 OFFCURVE",
"107 46 CURVE",
"113 63 OFFCURVE",
"114 84 OFFCURVE",
"115 101 CURVE SMOOTH",
"114 111 OFFCURVE",
"114 120 OFFCURVE",
"114 129 CURVE",
"111 253 LINE",
"106 407 LINE SMOOTH",
"106 413 OFFCURVE",
"113 421 OFFCURVE",
"116 424 CURVE",
"103 432 OFFCURVE",
"55 466 OFFCURVE",
"25 466 CURVE SMOOTH",
"20 466 LINE",
"22 470 LINE",
"24 470 OFFCURVE",
"55 510 OFFCURVE",
"83 516 CURVE",
"129 527 OFFCURVE",
"226 533 OFFCURVE",
"316 456 CURVE",
"327 451 OFFCURVE",
"350 426 OFFCURVE",
"353 422 CURVE",
"353 421 OFFCURVE",
"351 421 OFFCURVE",
"353 419 CURVE",
"351 418 LINE SMOOTH",
"348 413 OFFCURVE",
"340 408 OFFCURVE",
"340 393 CURVE",
"371 -263 LINE",
"364 -483 LINE",
"372 -452 OFFCURVE",
"381 -424 OFFCURVE",
"387 -396 CURVE SMOOTH",
"398 -348 OFFCURVE",
"409 -296 OFFCURVE",
"409 -268 CURVE SMOOTH"
);
},
{
closed = 1;
nodes = (
"60 37 OFFCURVE",
"55 18 OFFCURVE",
"30 29 CURVE",
"14 36 OFFCURVE",
"8 59 OFFCURVE",
"13 70 CURVE",
"17 100 OFFCURVE",
"27 107 OFFCURVE",
"48 117 CURVE",
"52 118 OFFCURVE",
"58 118 OFFCURVE",
"62 116 CURVE",
"82 100 OFFCURVE",
"77 81 OFFCURVE",
"71 61 CURVE"
);
}
);
width = 504;
}
);
leftMetricsKey = "phoSamphao-thai";
note = uni0E26;
rightMetricsKey = "koKai-thai";
unicode = 0E26;
},
{
color = 3;
glyphname = "lu-thai.short";
lastChange = "2018-02-27 04:58:46 +0000";
layers = (
{
layerId = "0B1DFD06-3317-40CA-B510-4969A0718C16";
paths = (
{
closed = 1;
nodes = (
"482 -196 OFFCURVE",
"512 -169 OFFCURVE",
"512 -124 CURVE SMOOTH",
"512 349 LINE SMOOTH",
"512 389 OFFCURVE",
"514 404 OFFCURVE",
"524 430 CURVE",
"524 436 LINE",
"506 440 OFFCURVE",
"496 444 OFFCURVE",
"466 462 CURVE SMOOTH",
"338 540 LINE SMOOTH",
"313 555 OFFCURVE",
"285 562 OFFCURVE",
"256 562 CURVE SMOOTH",
"166 562 OFFCURVE",
"81 495 OFFCURVE",
"32 404 CURVE",
"32 399 LINE",
"84 389 OFFCURVE",
"130 358 OFFCURVE",
"155 321 CURVE",
"203 352 LINE",
"180 390 OFFCURVE",
"134 418 OFFCURVE",
"82 427 CURVE",
"107 395 LINE",
"133 455 OFFCURVE",
"192 494 OFFCURVE",
"249 494 CURVE SMOOTH",
"275 494 OFFCURVE",
"299 486 OFFCURVE",
"324 470 CURVE SMOOTH",
"394 425 LINE SMOOTH",
"427 404 OFFCURVE",
"444 398 OFFCURVE",
"468 396 CURVE",
"454 417 LINE",
"434 398 OFFCURVE",
"430 377 OFFCURVE",
"430 345 CURVE SMOOTH",
"430 -196 LINE"
);
},
{
closed = 1;
nodes = (
"85 40 OFFCURVE",
"68 58 OFFCURVE",
"68 84 CURVE SMOOTH",
"68 110 OFFCURVE",
"85 128 OFFCURVE",
"108 128 CURVE SMOOTH",
"131 128 OFFCURVE",
"148 110 OFFCURVE",
"148 84 CURVE SMOOTH",
"148 58 OFFCURVE",
"131 40 OFFCURVE",
"108 40 CURVE SMOOTH"
);
},
{
closed = 1;
nodes = (
"169 -8 OFFCURVE",
"206 31 OFFCURVE",
"206 92 CURVE SMOOTH",
"206 235 LINE SMOOTH",
"206 321 OFFCURVE",
"229 357 OFFCURVE",
"294 375 CURVE",
"294 381 LINE",
"278 390 OFFCURVE",
"260 396 OFFCURVE",
"235 396 CURVE SMOOTH",
"168 396 OFFCURVE",
"124 352 OFFCURVE",
"124 235 CURVE SMOOTH",
"124 197 LINE SMOOTH",
"124 176 OFFCURVE",
"126 161 OFFCURVE",
"134 137 CURVE",
"159 137 LINE",
"150 157 OFFCURVE",
"130 172 OFFCURVE",
"98 172 CURVE SMOOTH",
"48 172 OFFCURVE",
"14 136 OFFCURVE",
"14 86 CURVE SMOOTH",
"14 31 OFFCURVE",
"55 -8 OFFCURVE",
"112 -8 CURVE SMOOTH"
);
}
);
width = 596;
}
);
leftMetricsKey = "phoSamphao-thai";
note = "lu-thai.short";
rightMetricsKey = "koKai-thai";
},
{
color = 3;
glyphname = "doChada-thai";
lastChange = "2018-02-27 04:58:46 +0000";
layers = (
{
layerId = "0B1DFD06-3317-40CA-B510-4969A0718C16";
paths = (
{
closed = 1;
nodes = (
"276 -260 OFFCURVE",
"334 -194 OFFCURVE",
"360 -81 CURVE SMOOTH",
"368 -46 OFFCURVE",
"355 -21 OFFCURVE",
"320 -12 CURVE",
"290 -148 OFFCURVE",
"253 -208 OFFCURVE",
"193 -208 CURVE SMOOTH",
"162 -208 OFFCURVE",
"142 -192 OFFCURVE",
"142 -166 CURVE SMOOTH",
"142 -134 OFFCURVE",
"168 -114 OFFCURVE",
"216 -114 CURVE SMOOTH",
"285 -114 OFFCURVE",
"377 -155 OFFCURVE",
"446 -256 CURVE",
"488 -256 OFFCURVE",
"512 -229 OFFCURVE",
"512 -184 CURVE SMOOTH",
"512 349 LINE SMOOTH",
"512 389 OFFCURVE",
"514 404 OFFCURVE",
"524 430 CURVE",
"524 436 LINE",
"506 440 OFFCURVE",
"496 444 OFFCURVE",
"466 462 CURVE SMOOTH",
"338 540 LINE SMOOTH",
"313 555 OFFCURVE",
"285 562 OFFCURVE",
"256 562 CURVE SMOOTH",
"166 562 OFFCURVE",
"81 495 OFFCURVE",
"32 404 CURVE",
"32 399 LINE",
"84 389 OFFCURVE",
"130 358 OFFCURVE",
"155 321 CURVE",
"203 352 LINE",
"180 390 OFFCURVE",
"134 418 OFFCURVE",
"82 427 CURVE",
"107 395 LINE",
"133 455 OFFCURVE",
"192 494 OFFCURVE",
"249 494 CURVE SMOOTH",
"275 494 OFFCURVE",
"299 486 OFFCURVE",
"324 470 CURVE SMOOTH",
"394 425 LINE SMOOTH",
"427 404 OFFCURVE",
"444 398 OFFCURVE",
"468 396 CURVE",
"454 417 LINE",
"434 398 OFFCURVE",
"430 377 OFFCURVE",
"430 345 CURVE SMOOTH",
"430 -213 LINE",
"460 -198 LINE",
"384 -102 OFFCURVE",
"297 -60 OFFCURVE",
"212 -60 CURVE SMOOTH",
"125 -60 OFFCURVE",
"70 -104 OFFCURVE",
"70 -164 CURVE SMOOTH",
"70 -221 OFFCURVE",
"120 -260 OFFCURVE",
"188 -260 CURVE SMOOTH"
);
},
{
closed = 1;
nodes = (
"85 40 OFFCURVE",
"68 58 OFFCURVE",
"68 84 CURVE SMOOTH",
"68 110 OFFCURVE",
"85 128 OFFCURVE",
"108 128 CURVE SMOOTH",
"131 128 OFFCURVE",
"148 110 OFFCURVE",
"148 84 CURVE SMOOTH",
"148 58 OFFCURVE",
"131 40 OFFCURVE",
"108 40 CURVE SMOOTH"
);
},
{
closed = 1;
nodes = (
"169 -8 OFFCURVE",
"206 31 OFFCURVE",
"206 92 CURVE SMOOTH",
"206 235 LINE SMOOTH",
"206 321 OFFCURVE",
"229 357 OFFCURVE",
"294 375 CURVE",
"294 381 LINE",
"278 390 OFFCURVE",
"260 396 OFFCURVE",
"235 396 CURVE SMOOTH",
"168 396 OFFCURVE",
"124 352 OFFCURVE",
"124 235 CURVE SMOOTH",
"124 197 LINE SMOOTH",
"124 176 OFFCURVE",
"126 161 OFFCURVE",
"134 137 CURVE",
"159 137 LINE",
"150 157 OFFCURVE",
"130 172 OFFCURVE",
"98 172 CURVE SMOOTH",
"48 172 OFFCURVE",
"14 136 OFFCURVE",
"14 86 CURVE SMOOTH",
"14 31 OFFCURVE",
"55 -8 OFFCURVE",
"112 -8 CURVE SMOOTH"
);
}
);
width = 596;
},
{
associatedMasterId = "0B1DFD06-3317-40CA-B510-4969A0718C16";
layerId = "D0932DD1-3182-4B99-BF73-1F9F7F465F59";
name = "Feb 5 18, 16:26";
paths = (
{
closed = 1;
nodes = (
"238 546 OFFCURVE",
"119 566 OFFCURVE",
"62 555 CURVE",
"22 545 OFFCURVE",
"2 522 OFFCURVE",
"-14 498 CURVE SMOOTH",
"-19 491 OFFCURVE",
"-23 484 OFFCURVE",
"-28 479 CURVE",
"-53 450 LINE",
"-8 461 OFFCURVE",
"62 418 OFFCURVE",
"64 416 CURVE",
"73 381 OFFCURVE",
"52 198 OFFCURVE",
"53 145 CURVE",
"51 145 LINE",
"50 145 LINE",
"49 146 OFFCURVE",
"18 163 OFFCURVE",
"-20 130 CURVE",
"-41 109 OFFCURVE",
"-41 74 OFFCURVE",
"-41 73 CURVE",
"-35 10 OFFCURVE",
"-6 -3 OFFCURVE",
"12 -4 CURVE SMOOTH",
"57 -9 OFFCURVE",
"74 13 OFFCURVE",
"87 47 CURVE",
"91 65 OFFCURVE",
"91 87 OFFCURVE",
"93 104 CURVE SMOOTH",
"94 113 OFFCURVE",
"93 123 OFFCURVE",
"91 131 CURVE",
"97 256 LINE SMOOTH",
"99 321 OFFCURVE",
"102 390 OFFCURVE",
"101 408 CURVE SMOOTH",
"101 416 OFFCURVE",
"108 424 OFFCURVE",
"111 428 CURVE",
"98 436 OFFCURVE",
"52 468 OFFCURVE",
"20 468 CURVE SMOOTH",
"14 468 LINE",
"18 472 LINE SMOOTH",
"18 473 OFFCURVE",
"49 512 OFFCURVE",
"79 518 CURVE SMOOTH",
"123 529 OFFCURVE",
"218 507 OFFCURVE",
"271 461 CURVE",
"280 451 OFFCURVE",
"306 429 OFFCURVE",
"308 424 CURVE",
"308 423 OFFCURVE",
"307 423 OFFCURVE",
"307 421 CURVE",
"307 419 LINE SMOOTH",
"303 416 OFFCURVE",
"297 410 OFFCURVE",
"296 395 CURVE",
"298 262 OFFCURVE",
"298 141 OFFCURVE",
"297 30 CURVE SMOOTH",
"297 -159 OFFCURVE",
"295 -363 OFFCURVE",
"292 -418 CURVE",
"273 -396 OFFCURVE",
"248 -365 OFFCURVE",
"227 -339 CURVE",
"189 -296 LINE SMOOTH",
"168 -274 OFFCURVE",
"152 -254 OFFCURVE",
"150 -251 CURVE",
"168 -229 OFFCURVE",
"185 -203 OFFCURVE",
"199 -175 CURVE SMOOTH",
"218 -136 OFFCURVE",
"233 -85 OFFCURVE",
"243 -42 CURVE SMOOTH",
"251 -16 OFFCURVE",
"256 8 OFFCURVE",
"259 34 CURVE",
"253 10 OFFCURVE",
"242 -11 OFFCURVE",
"233 -33 CURVE SMOOTH",
"216 -71 OFFCURVE",
"192 -118 OFFCURVE",
"167 -148 CURVE",
"153 -176 OFFCURVE",
"137 -201 OFFCURVE",
"121 -221 CURVE",
"75 -182 OFFCURVE",
"34 -162 OFFCURVE",
"-3 -157 CURVE SMOOTH",
"-35 -154 OFFCURVE",
"-58 -164 OFFCURVE",
"-75 -187 CURVE SMOOTH",
"-91 -209 OFFCURVE",
"-93 -234 OFFCURVE",
"-77 -262 CURVE",
"-60 -292 OFFCURVE",
"-16 -320 OFFCURVE",
"23 -325 CURVE SMOOTH",
"61 -330 OFFCURVE",
"95 -308 OFFCURVE",
"128 -274 CURVE",
"129 -275 OFFCURVE",
"148 -296 OFFCURVE",
"165 -317 CURVE SMOOTH",
"199 -357 LINE SMOOTH",
"237 -402 OFFCURVE",
"276 -452 OFFCURVE",
"295 -470 CURVE SMOOTH",
"320 -494 LINE",
"324 -463 LINE",
"331 -402 OFFCURVE",
"336 -187 OFFCURVE",
"335 10 CURVE SMOOTH",
"331 391 LINE",
"335 417 OFFCURVE",
"344 425 OFFCURVE",
"349 429 CURVE",
"347 430 OFFCURVE",
"336 443 OFFCURVE",
"322 454 CURVE",
"318 461 OFFCURVE",
"311 468 OFFCURVE",
"302 474 CURVE"
);
},
{
closed = 1;
nodes = (
"39 40 OFFCURVE",
"33 20 OFFCURVE",
"8 31 CURVE SMOOTH",
"-9 38 OFFCURVE",
"-13 62 OFFCURVE",
"-10 73 CURVE",
"-5 101 OFFCURVE",
"6 112 OFFCURVE",
"28 119 CURVE",
"31 122 OFFCURVE",
"34 122 OFFCURVE",
"40 118 CURVE",
"58 101 OFFCURVE",
"54 84 OFFCURVE",
"50 63 CURVE"
);
},
{
closed = 1;
nodes = (
"-9 -285 OFFCURVE",
"-36 -270 OFFCURVE",
"-47 -251 CURVE SMOOTH",
"-55 -236 OFFCURVE",
"-53 -224 OFFCURVE",
"-44 -213 CURVE",
"-34 -198 OFFCURVE",
"-19 -191 OFFCURVE",
"1 -192 CURVE",
"29 -196 OFFCURVE",
"61 -213 OFFCURVE",
"99 -246 CURVE",
"73 -275 OFFCURVE",
"45 -292 OFFCURVE",
"18 -289 CURVE SMOOTH"
);
}
);
width = 458;
}
);
leftMetricsKey = "phoSamphao-thai";
note = uni0E0E;
rightMetricsKey = "koKai-thai";
unicode = 0E0E;
},
{
color = 3;
glyphname = "doChada-thai.short";
lastChange = "2018-02-27 04:58:46 +0000";
layers = (
{
background = {
paths = (
{
closed = 1;
nodes = (
"254 -200 OFFCURVE",
"312 -134 OFFCURVE",
"338 -21 CURVE SMOOTH",
"346 14 OFFCURVE",
"333 39 OFFCURVE",
"298 48 CURVE",
"268 -88 OFFCURVE",
"231 -148 OFFCURVE",
"171 -148 CURVE SMOOTH",
"140 -148 OFFCURVE",
"120 -132 OFFCURVE",
"120 -106 CURVE SMOOTH",
"120 -74 OFFCURVE",
"146 -54 OFFCURVE",
"194 -54 CURVE SMOOTH",
"263 -54 OFFCURVE",
"355 -95 OFFCURVE",
"424 -196 CURVE",
"466 -196 OFFCURVE",
"490 -169 OFFCURVE",
"490 -124 CURVE SMOOTH",
"490 349 LINE SMOOTH",
"490 389 OFFCURVE",
"492 404 OFFCURVE",
"502 430 CURVE",
"502 436 LINE",
"484 440 OFFCURVE",
"474 444 OFFCURVE",
"444 462 CURVE SMOOTH",
"316 540 LINE SMOOTH",
"291 555 OFFCURVE",
"263 562 OFFCURVE",
"234 562 CURVE SMOOTH",
"144 562 OFFCURVE",
"67 495 OFFCURVE",
"18 404 CURVE",
"18 399 LINE",
"62 386 OFFCURVE",
"112 358 OFFCURVE",
"133 321 CURVE",
"181 352 LINE",
"163 390 OFFCURVE",
"117 418 OFFCURVE",
"68 427 CURVE",
"93 395 LINE",
"119 455 OFFCURVE",
"170 494 OFFCURVE",
"227 494 CURVE SMOOTH",
"253 494 OFFCURVE",
"277 486 OFFCURVE",
"302 470 CURVE SMOOTH",
"372 425 LINE SMOOTH",
"405 404 OFFCURVE",
"422 398 OFFCURVE",
"446 396 CURVE",
"432 417 LINE",
"412 398 OFFCURVE",
"408 377 OFFCURVE",
"408 345 CURVE SMOOTH",
"408 -153 LINE",
"438 -138 LINE",
"362 -42 OFFCURVE",
"275 0 OFFCURVE",
"190 0 CURVE SMOOTH",
"103 0 OFFCURVE",
"48 -44 OFFCURVE",
"48 -104 CURVE SMOOTH",
"48 -161 OFFCURVE",
"98 -200 OFFCURVE",
"166 -200 CURVE SMOOTH"
);
},
{
closed = 1;
nodes = (
"75 70 OFFCURVE",
"62 85 OFFCURVE",
"62 106 CURVE SMOOTH",
"62 127 OFFCURVE",
"75 142 OFFCURVE",
"94 142 CURVE SMOOTH",
"113 142 OFFCURVE",
"126 127 OFFCURVE",
"126 106 CURVE SMOOTH",
"126 85 OFFCURVE",
"113 70 OFFCURVE",
"94 70 CURVE SMOOTH"
);
},
{
closed = 1;
nodes = (
"150 22 OFFCURVE",
"184 60 OFFCURVE",
"184 119 CURVE SMOOTH",
"184 235 LINE SMOOTH",
"184 321 OFFCURVE",
"207 357 OFFCURVE",
"272 375 CURVE",
"272 381 LINE",
"256 390 OFFCURVE",
"238 396 OFFCURVE",
"213 396 CURVE SMOOTH",
"146 396 OFFCURVE",
"102 352 OFFCURVE",
"102 235 CURVE SMOOTH",
"102 223 LINE SMOOTH",
"102 194 OFFCURVE",
"107 169 OFFCURVE",
"116 141 CURVE",
"137 141 LINE",
"132 171 OFFCURVE",
"117 186 OFFCURVE",
"86 186 CURVE SMOOTH",
"41 186 OFFCURVE",
"8 154 OFFCURVE",
"8 108 CURVE SMOOTH",
"8 59 OFFCURVE",
"45 22 OFFCURVE",
"97 22 CURVE SMOOTH"
);
}
);
};
layerId = "0B1DFD06-3317-40CA-B510-4969A0718C16";
paths = (
{
closed = 1;
nodes = (
"276 -200 OFFCURVE",
"334 -134 OFFCURVE",
"360 -21 CURVE SMOOTH",
"368 14 OFFCURVE",
"355 39 OFFCURVE",
"320 48 CURVE",
"290 -88 OFFCURVE",
"253 -148 OFFCURVE",
"193 -148 CURVE SMOOTH",
"162 -148 OFFCURVE",
"142 -132 OFFCURVE",
"142 -106 CURVE SMOOTH",
"142 -74 OFFCURVE",
"168 -54 OFFCURVE",
"216 -54 CURVE SMOOTH",
"285 -54 OFFCURVE",
"377 -95 OFFCURVE",
"446 -196 CURVE",
"488 -196 OFFCURVE",
"512 -169 OFFCURVE",
"512 -124 CURVE SMOOTH",
"512 349 LINE SMOOTH",
"512 389 OFFCURVE",
"514 404 OFFCURVE",
"524 430 CURVE",
"524 436 LINE",
"506 440 OFFCURVE",
"496 444 OFFCURVE",
"466 462 CURVE SMOOTH",
"338 540 LINE SMOOTH",
"313 555 OFFCURVE",
"285 562 OFFCURVE",
"256 562 CURVE SMOOTH",
"166 562 OFFCURVE",
"81 495 OFFCURVE",
"32 404 CURVE",
"32 399 LINE",
"84 389 OFFCURVE",
"130 358 OFFCURVE",
"155 321 CURVE",
"203 352 LINE",
"180 390 OFFCURVE",
"134 418 OFFCURVE",
"82 427 CURVE",
"107 395 LINE",
"133 455 OFFCURVE",
"192 494 OFFCURVE",
"249 494 CURVE SMOOTH",
"275 494 OFFCURVE",
"299 486 OFFCURVE",
"324 470 CURVE SMOOTH",
"394 425 LINE SMOOTH",
"427 404 OFFCURVE",
"444 398 OFFCURVE",
"468 396 CURVE",
"454 417 LINE",
"434 398 OFFCURVE",
"430 377 OFFCURVE",
"430 345 CURVE SMOOTH",
"430 -153 LINE",
"460 -138 LINE",
"384 -42 OFFCURVE",
"297 0 OFFCURVE",
"212 0 CURVE SMOOTH",
"125 0 OFFCURVE",
"70 -44 OFFCURVE",
"70 -104 CURVE SMOOTH",
"70 -161 OFFCURVE",
"120 -200 OFFCURVE",
"188 -200 CURVE SMOOTH"
);
},
{
closed = 1;
nodes = (
"85 60 OFFCURVE",
"68 78 OFFCURVE",
"68 104 CURVE SMOOTH",
"68 130 OFFCURVE",
"85 148 OFFCURVE",
"108 148 CURVE SMOOTH",
"131 148 OFFCURVE",
"148 130 OFFCURVE",
"148 104 CURVE SMOOTH",
"148 78 OFFCURVE",
"131 60 OFFCURVE",
"108 60 CURVE SMOOTH"
);
},
{
closed = 1;
nodes = (
"169 12 OFFCURVE",
"206 51 OFFCURVE",
"206 112 CURVE SMOOTH",
"206 235 LINE SMOOTH",
"206 321 OFFCURVE",
"229 357 OFFCURVE",
"294 375 CURVE",
"294 381 LINE",
"278 390 OFFCURVE",
"260 396 OFFCURVE",
"235 396 CURVE SMOOTH",
"168 396 OFFCURVE",
"124 352 OFFCURVE",
"124 235 CURVE SMOOTH",
"124 217 LINE SMOOTH",
"124 196 OFFCURVE",
"126 181 OFFCURVE",
"134 157 CURVE",
"159 157 LINE",
"150 177 OFFCURVE",
"130 192 OFFCURVE",
"98 192 CURVE SMOOTH",
"48 192 OFFCURVE",
"14 156 OFFCURVE",
"14 106 CURVE SMOOTH",
"14 51 OFFCURVE",
"55 12 OFFCURVE",
"112 12 CURVE SMOOTH"
);
}
);
width = 596;
},
{
associatedMasterId = "0B1DFD06-3317-40CA-B510-4969A0718C16";
layerId = "948B10BC-7F5B-4971-8930-333A11CAD3C6";
name = "Feb 5 18, 16:51";
paths = (
{
closed = 1;
nodes = (
"334 546 OFFCURVE",
"215 566 OFFCURVE",
"158 555 CURVE",
"118 545 OFFCURVE",
"98 522 OFFCURVE",
"82 498 CURVE SMOOTH",
"77 491 OFFCURVE",
"73 484 OFFCURVE",
"68 479 CURVE",
"43 450 LINE",
"88 461 OFFCURVE",
"158 418 OFFCURVE",
"160 416 CURVE",
"169 381 OFFCURVE",
"164 198 OFFCURVE",
"165 145 CURVE",
"163 145 LINE",
"162 145 LINE",
"161 146 OFFCURVE",
"130 163 OFFCURVE",
"93 130 CURVE",
"72 109 OFFCURVE",
"72 74 OFFCURVE",
"72 73 CURVE",
"77 10 OFFCURVE",
"106 -3 OFFCURVE",
"125 -4 CURVE SMOOTH",
"170 -9 OFFCURVE",
"186 13 OFFCURVE",
"200 47 CURVE",
"204 65 OFFCURVE",
"204 87 OFFCURVE",
"205 104 CURVE SMOOTH",
"206 113 OFFCURVE",
"205 123 OFFCURVE",
"204 131 CURVE",
"202 256 LINE SMOOTH",
"201 321 OFFCURVE",
"198 390 OFFCURVE",
"197 408 CURVE SMOOTH",
"197 416 OFFCURVE",
"204 424 OFFCURVE",
"207 428 CURVE",
"194 436 OFFCURVE",
"148 468 OFFCURVE",
"116 468 CURVE SMOOTH",
"110 468 LINE",
"114 472 LINE SMOOTH",
"114 473 OFFCURVE",
"145 512 OFFCURVE",
"175 518 CURVE SMOOTH",
"219 529 OFFCURVE",
"314 507 OFFCURVE",
"367 461 CURVE",
"376 451 OFFCURVE",
"402 429 OFFCURVE",
"404 424 CURVE",
"404 423 OFFCURVE",
"403 423 OFFCURVE",
"403 421 CURVE",
"403 419 LINE SMOOTH",
"399 416 OFFCURVE",
"393 410 OFFCURVE",
"392 395 CURVE",
"394 262 OFFCURVE",
"394 141 OFFCURVE",
"393 30 CURVE SMOOTH",
"393 -159 OFFCURVE",
"391 -363 OFFCURVE",
"388 -418 CURVE",
"369 -396 OFFCURVE",
"344 -365 OFFCURVE",
"323 -339 CURVE",
"285 -296 LINE SMOOTH",
"264 -274 OFFCURVE",
"248 -254 OFFCURVE",
"246 -251 CURVE",
"264 -229 OFFCURVE",
"281 -203 OFFCURVE",
"295 -175 CURVE SMOOTH",
"314 -136 OFFCURVE",
"329 -85 OFFCURVE",
"339 -42 CURVE SMOOTH",
"347 -16 OFFCURVE",
"352 8 OFFCURVE",
"355 34 CURVE",
"349 10 OFFCURVE",
"338 -11 OFFCURVE",
"329 -33 CURVE SMOOTH",
"312 -71 OFFCURVE",
"288 -118 OFFCURVE",
"263 -148 CURVE",
"249 -176 OFFCURVE",
"233 -201 OFFCURVE",
"217 -221 CURVE",
"171 -182 OFFCURVE",
"130 -162 OFFCURVE",
"93 -157 CURVE SMOOTH",
"61 -154 OFFCURVE",
"38 -164 OFFCURVE",
"21 -187 CURVE SMOOTH",
"5 -209 OFFCURVE",
"3 -234 OFFCURVE",
"19 -262 CURVE",
"36 -292 OFFCURVE",
"80 -320 OFFCURVE",
"119 -325 CURVE SMOOTH",
"157 -330 OFFCURVE",
"191 -308 OFFCURVE",
"224 -274 CURVE",
"225 -275 OFFCURVE",
"244 -296 OFFCURVE",
"261 -317 CURVE SMOOTH",
"295 -357 LINE SMOOTH",
"333 -402 OFFCURVE",
"372 -452 OFFCURVE",
"391 -470 CURVE SMOOTH",
"416 -494 LINE",
"420 -463 LINE",
"427 -402 OFFCURVE",
"432 -187 OFFCURVE",
"431 10 CURVE SMOOTH",
"427 391 LINE",
"431 417 OFFCURVE",
"440 425 OFFCURVE",
"445 429 CURVE",
"443 430 OFFCURVE",
"432 443 OFFCURVE",
"418 454 CURVE",
"414 461 OFFCURVE",
"407 468 OFFCURVE",
"398 474 CURVE"
);
},
{
closed = 1;
nodes = (
"151 40 OFFCURVE",
"146 20 OFFCURVE",
"120 31 CURVE SMOOTH",
"104 38 OFFCURVE",
"99 62 OFFCURVE",
"103 73 CURVE",
"107 101 OFFCURVE",
"118 112 OFFCURVE",
"140 119 CURVE",
"143 122 OFFCURVE",
"147 122 OFFCURVE",
"152 118 CURVE",
"171 101 OFFCURVE",
"167 84 OFFCURVE",
"162 63 CURVE"
);
},
{
closed = 1;
nodes = (
"87 -285 OFFCURVE",
"60 -270 OFFCURVE",
"49 -251 CURVE SMOOTH",
"41 -236 OFFCURVE",
"43 -224 OFFCURVE",
"52 -213 CURVE",
"62 -198 OFFCURVE",
"77 -191 OFFCURVE",
"97 -192 CURVE",
"125 -196 OFFCURVE",
"157 -213 OFFCURVE",
"195 -246 CURVE",
"169 -275 OFFCURVE",
"141 -292 OFFCURVE",
"114 -289 CURVE SMOOTH"
);
}
);
width = 517;
}
);
leftMetricsKey = "phoSamphao-thai";
note = "doChada-thai.short";
rightMetricsKey = "koKai-thai";
},
{
color = 3;
glyphname = "toPatak-thai";
lastChange = "2018-02-27 04:58:46 +0000";
layers = (
{
layerId = "0B1DFD06-3317-40CA-B510-4969A0718C16";
paths = (
{
closed = 1;
nodes = (
"488 -256 OFFCURVE",
"512 -229 OFFCURVE",
"512 -184 CURVE SMOOTH",
"512 349 LINE SMOOTH",
"512 389 OFFCURVE",
"514 404 OFFCURVE",
"524 430 CURVE",
"524 436 LINE",
"506 440 OFFCURVE",
"496 444 OFFCURVE",
"466 462 CURVE SMOOTH",
"338 540 LINE SMOOTH",
"313 555 OFFCURVE",
"285 562 OFFCURVE",
"256 562 CURVE SMOOTH",
"166 562 OFFCURVE",
"81 495 OFFCURVE",
"32 404 CURVE",
"32 399 LINE",
"84 389 OFFCURVE",
"130 358 OFFCURVE",
"155 321 CURVE",
"203 352 LINE",
"180 390 OFFCURVE",
"134 418 OFFCURVE",
"82 427 CURVE",
"107 395 LINE",
"133 455 OFFCURVE",
"192 494 OFFCURVE",
"249 494 CURVE SMOOTH",
"275 494 OFFCURVE",
"299 486 OFFCURVE",
"324 470 CURVE SMOOTH",
"394 425 LINE SMOOTH",
"427 404 OFFCURVE",
"444 398 OFFCURVE",
"468 396 CURVE",
"454 417 LINE",
"434 398 OFFCURVE",
"430 377 OFFCURVE",
"430 345 CURVE SMOOTH",
"430 -185 LINE",
"463 -185 LINE",
"417 -114 OFFCURVE",
"373 -100 OFFCURVE",
"343 -100 CURVE SMOOTH",
"294 -100 OFFCURVE",
"257 -138 OFFCURVE",
"267 -219 CURVE",
"305 -232 LINE",
"259 -122 OFFCURVE",
"191 -70 OFFCURVE",
"126 -70 CURVE SMOOTH",
"73 -70 OFFCURVE",
"38 -106 OFFCURVE",
"38 -150 CURVE SMOOTH",
"38 -198 OFFCURVE",
"80 -230 OFFCURVE",
"133 -230 CURVE SMOOTH",
"186 -230 OFFCURVE",
"233 -198 OFFCURVE",
"259 -96 CURVE SMOOTH",
"266 -68 OFFCURVE",
"255 -44 OFFCURVE",
"223 -34 CURVE",
"200 -146 OFFCURVE",
"181 -186 OFFCURVE",
"135 -186 CURVE SMOOTH",
"113 -186 OFFCURVE",
"100 -177 OFFCURVE",
"100 -154 CURVE SMOOTH",
"100 -131 OFFCURVE",
"113 -118 OFFCURVE",
"134 -118 CURVE SMOOTH",
"167 -118 OFFCURVE",
"214 -150 OFFCURVE",
"257 -250 CURVE",
"329 -250 LINE",
"319 -184 OFFCURVE",
"332 -156 OFFCURVE",
"356 -156 CURVE SMOOTH",
"379 -156 OFFCURVE",
"417 -182 OFFCURVE",
"446 -256 CURVE"
);
},
{
closed = 1;
nodes = (
"85 40 OFFCURVE",
"68 58 OFFCURVE",
"68 84 CURVE SMOOTH",
"68 110 OFFCURVE",
"85 128 OFFCURVE",
"108 128 CURVE SMOOTH",
"131 128 OFFCURVE",
"148 110 OFFCURVE",
"148 84 CURVE SMOOTH",
"148 58 OFFCURVE",
"131 40 OFFCURVE",
"108 40 CURVE SMOOTH"
);
},
{
closed = 1;
nodes = (
"169 -8 OFFCURVE",
"206 31 OFFCURVE",
"206 92 CURVE SMOOTH",
"206 235 LINE SMOOTH",
"206 321 OFFCURVE",
"229 357 OFFCURVE",
"294 375 CURVE",
"294 381 LINE",
"278 390 OFFCURVE",
"260 396 OFFCURVE",
"235 396 CURVE SMOOTH",
"168 396 OFFCURVE",
"124 352 OFFCURVE",
"124 235 CURVE SMOOTH",
"124 197 LINE SMOOTH",
"124 176 OFFCURVE",
"126 161 OFFCURVE",
"134 137 CURVE",
"159 137 LINE",
"150 157 OFFCURVE",
"130 172 OFFCURVE",
"98 172 CURVE SMOOTH",
"48 172 OFFCURVE",
"14 136 OFFCURVE",
"14 86 CURVE SMOOTH",
"14 31 OFFCURVE",
"55 -8 OFFCURVE",
"112 -8 CURVE SMOOTH"
);
}
);
width = 596;
},
{
associatedMasterId = "0B1DFD06-3317-40CA-B510-4969A0718C16";
layerId = "055C48B8-DEDE-496C-A26A-FB4668335719";
name = "Feb 5 18, 17:00";
paths = (
{
closed = 1;
nodes = (
"498 474 LINE SMOOTH",
"437 540 OFFCURVE",
"323 572 OFFCURVE",
"261 552 CURVE",
"221 538 OFFCURVE",
"200 519 OFFCURVE",
"184 496 CURVE SMOOTH",
"177 489 OFFCURVE",
"174 483 OFFCURVE",
"168 477 CURVE",
"145 449 LINE",
"187 460 OFFCURVE",
"258 416 OFFCURVE",
"263 416 CURVE",
"264 373 OFFCURVE",
"254 195 OFFCURVE",
"255 144 CURVE",
"252 142 LINE",
"251 144 LINE SMOOTH",
"248 145 OFFCURVE",
"219 162 OFFCURVE",
"181 129 CURVE SMOOTH",
"168 118 OFFCURVE",
"165 103 OFFCURVE",
"163 91 CURVE",
"159 85 OFFCURVE",
"160 78 OFFCURVE",
"160 70 CURVE",
"165 9 OFFCURVE",
"195 -6 OFFCURVE",
"213 -8 CURVE",
"258 -9 OFFCURVE",
"274 12 OFFCURVE",
"287 46 CURVE",
"292 64 OFFCURVE",
"295 85 OFFCURVE",
"295 101 CURVE SMOOTH",
"296 111 OFFCURVE",
"295 120 OFFCURVE",
"292 130 CURVE",
"294 168 OFFCURVE",
"296 206 OFFCURVE",
"297 241 CURVE SMOOTH",
"298 301 OFFCURVE",
"299 370 OFFCURVE",
"299 407 CURVE SMOOTH",
"298 414 OFFCURVE",
"305 421 OFFCURVE",
"308 425 CURVE",
"295 432 OFFCURVE",
"246 466 OFFCURVE",
"215 466 CURVE SMOOTH",
"212 466 LINE",
"213 471 LINE",
"214 472 OFFCURVE",
"248 506 OFFCURVE",
"275 517 CURVE",
"330 532 OFFCURVE",
"411 506 OFFCURVE",
"467 456 CURVE",
"477 450 OFFCURVE",
"501 427 OFFCURVE",
"505 422 CURVE",
"506 421 OFFCURVE",
"504 421 OFFCURVE",
"504 419 CURVE",
"503 418 LINE SMOOTH",
"499 414 OFFCURVE",
"494 406 OFFCURVE",
"492 394 CURVE",
"499 -380 LINE",
"500 -441 LINE",
"499 -437 OFFCURVE",
"441 -290 OFFCURVE",
"371 -290 CURVE SMOOTH",
"316 -290 OFFCURVE",
"298 -336 OFFCURVE",
"285 -367 CURVE",
"279 -385 OFFCURVE",
"272 -403 OFFCURVE",
"263 -403 CURVE SMOOTH",
"257 -403 OFFCURVE",
"239 -376 OFFCURVE",
"228 -360 CURVE",
"228 -359 OFFCURVE",
"228 -359 OFFCURVE",
"226 -358 CURVE",
"246 -345 OFFCURVE",
"325 -281 OFFCURVE",
"369 -231 CURVE SMOOTH",
"415 -183 OFFCURVE",
"439 -130 OFFCURVE",
"451 -85 CURVE SMOOTH",
"456 -58 OFFCURVE",
"462 -32 OFFCURVE",
"462 -6 CURVE",
"461 -6 OFFCURVE",
"408 -151 OFFCURVE",
"349 -204 CURVE SMOOTH",
"303 -248 OFFCURVE",
"222 -315 OFFCURVE",
"204 -326 CURVE",
"181 -295 OFFCURVE",
"152 -264 OFFCURVE",
"110 -254 CURVE SMOOTH",
"76 -248 OFFCURVE",
"38 -264 OFFCURVE",
"19 -293 CURVE SMOOTH",
"3 -317 OFFCURVE",
"4 -342 OFFCURVE",
"21 -370 CURVE SMOOTH",
"30 -386 OFFCURVE",
"43 -397 OFFCURVE",
"60 -403 CURVE",
"102 -418 OFFCURVE",
"149 -398 OFFCURVE",
"198 -373 CURVE",
"198 -374 LINE",
"222 -408 OFFCURVE",
"240 -440 OFFCURVE",
"272 -440 CURVE SMOOTH",
"302 -440 OFFCURVE",
"312 -413 OFFCURVE",
"321 -386 CURVE SMOOTH",
"332 -358 OFFCURVE",
"342 -328 OFFCURVE",
"379 -328 CURVE SMOOTH",
"407 -328 OFFCURVE",
"430 -374 OFFCURVE",
"451 -413 CURVE",
"468 -444 OFFCURVE",
"482 -470 OFFCURVE",
"501 -480 CURVE",
"531 -492 LINE",
"538 -384 LINE",
"536 -360 OFFCURVE",
"537 -165 OFFCURVE",
"533 21 CURVE SMOOTH",
"530 131 OFFCURVE",
"530 253 OFFCURVE",
"530 389 CURVE SMOOTH",
"530 416 OFFCURVE",
"540 422 OFFCURVE",
"544 427 CURVE",
"543 430 OFFCURVE",
"531 441 OFFCURVE",
"520 452 CURVE"
);
},
{
closed = 1;
nodes = (
"240 37 OFFCURVE",
"234 19 OFFCURVE",
"210 30 CURVE",
"192 36 OFFCURVE",
"188 59 OFFCURVE",
"191 70 CURVE",
"196 100 OFFCURVE",
"208 108 OFFCURVE",
"228 118 CURVE",
"234 119 OFFCURVE",
"239 118 OFFCURVE",
"241 117 CURVE",
"261 100 OFFCURVE",
"255 81 OFFCURVE",
"251 62 CURVE"
);
},
{
closed = 1;
nodes = (
"59 -367 OFFCURVE",
"55 -363 OFFCURVE",
"50 -358 CURVE",
"41 -340 OFFCURVE",
"47 -325 OFFCURVE",
"52 -315 CURVE",
"64 -297 OFFCURVE",
"90 -286 OFFCURVE",
"112 -290 CURVE",
"140 -297 OFFCURVE",
"157 -315 OFFCURVE",
"175 -341 CURVE",
"126 -367 OFFCURVE",
"91 -376 OFFCURVE",
"66 -370 CURVE"
);
}
);
width = 616;
}
);
leftMetricsKey = "phoSamphao-thai";
note = uni0E0F;
rightMetricsKey = "koKai-thai";
unicode = 0E0F;
},
